<?xml version="1.0" encoding="utf-8"?>
<!-- Generator: Adobe Illustrator 21.0.0, SVG Export Plug-In . SVG Version: 6.00 Build 0)  -->
<svg version="1.1" id="Слой_1" xmlns="http://www.w3.org/2000/svg" xmlns:xlink="http://www.w3.org/1999/xlink" x="0px" y="0px"
	 viewBox="0 0 145.1 122.2" style="enable-background:new 0 0 145.1 122.2;" xml:space="preserve">
<style type="text/css">
	.st0{fill:url(#SVGID_1_);}
	.st1{fill:none;stroke:#FFFFFF;stroke-width:0.1326;stroke-linecap:round;stroke-linejoin:round;stroke-miterlimit:10;}
	.st2{fill:#FFFFFF;}
	.st3{fill:none;stroke:#9B9B9B;stroke-width:0.3978;stroke-linecap:round;stroke-linejoin:round;stroke-miterlimit:10;}
	.st4{fill:url(#SVGID_2_);}
	.st5{fill:none;stroke:#9B9B9B;stroke-width:0.4354;stroke-linecap:round;stroke-linejoin:round;stroke-miterlimit:10;}
	.st6{fill:none;stroke:#9B9B9B;stroke-width:0.4354;stroke-miterlimit:10;}
</style>
<g>
	
		<linearGradient id="SVGID_1_" gradientUnits="userSpaceOnUse" x1="-16.3528" y1="137.3628" x2="128.6472" y2="137.3628" gradientTransform="matrix(1 0 0 -1 16.4777 198.3753)">
		<stop  offset="0" style="stop-color:#B16B34"/>
		<stop  offset="0.4" style="stop-color:#ECC89B"/>
		<stop  offset="0.5" style="stop-color:#F3CB9E"/>
		<stop  offset="0.6" style="stop-color:#ECC89B"/>
		<stop  offset="0.6908" style="stop-color:#E1B789"/>
		<stop  offset="0.8727" style="stop-color:#C68C59"/>
		<stop  offset="1" style="stop-color:#B16B34"/>
	</linearGradient>
	<path class="st0" d="M144.2,43.9c-8.8-5.2-18-9.4-27.6-12.6c-2.2-2-8.3-7.2-14.3-8.1c-0.6-0.1-1.2-0.1-1.9-0.1
		c3.2-3.1,5.1-11.2,5.5-12.9c0.1-0.6,0-1.3-0.4-1.8s-1-0.8-1.7-0.9c0,0-0.4,0-1.1,0c-3.3,0-9.5,0.4-13.5,3.1c-1.5,1-2.5,2.1-3.4,3.3
		c-1.2-0.5-2.7-1-4.4-1.7l-3.1-1.9c-0.4-0.4-1.2-1-2.9-1.8c-0.7-0.5-1.9-1.3-3.2-1.3c-0.2,0-0.4,0.1-0.5,0.1l-7.1-4.8
		C64.3,2,64,1.6,63.4,1.4L62,0.9c-0.2-0.2-0.4-0.3-0.4-0.3c-0.3-0.5-1-0.7-1.6-0.6c-0.7,0.1-1.2,0.5-1.5,1.1
		c-0.1,0.3-2.5,4.8-3.1,10.2c-0.4-0.3-0.7-0.6-1.1-0.9c-4-2.7-10.2-3.1-13.5-3.1c-0.7,0-1.1,0-1.1,0c-0.7,0-1.3,0.3-1.7,0.9
		c-0.4,0.5-0.6,1.2-0.4,1.8c0.4,1.6,2.2,9.8,5.5,12.9c-0.6,0-1.2,0-1.9,0.1c-7.3,1.1-14.8,8.5-15.1,8.8L26,31.9
		C17.3,35.1,9,39,1,43.7c-0.5,0.3-0.8,0.8-0.8,1.4l-0.1,55.6c0,0.6,0.3,1.1,0.8,1.4c21.9,13,46.6,19.9,71.6,19.9s49.7-6.8,71.7-19.7
		c0.5-0.3,0.8-0.8,0.8-1.4l0.1-55.6C145.1,44.8,144.8,44.2,144.2,43.9z"/>
	<g>
		<path class="st1" d="M72.5,122.1c-25,0-49.7-6.9-71.6-19.9c-0.5-0.3-0.8-0.8-0.8-1.4l0.1-55.6c0-0.6,0.3-1.1,0.8-1.4
			c21.9-13,46.7-19.9,71.6-19.8c25,0,49.7,6.9,71.6,19.9c0.5,0.3,0.8,0.8,0.8,1.4V101c0,0.6-0.3,1.1-0.8,1.4
			C122.2,115.3,97.4,122.1,72.5,122.1z M3.4,99.8c21.2,12.4,45,18.9,69.1,19c24,0,47.9-6.4,69.1-18.7l0.1-53.7
			c-21.2-12.4-45-18.9-69.1-19c-24,0-47.9,6.4-69.1,18.7L3.4,99.8z"/>
		<path class="st2" d="M144.3,43.8c-22-13.1-46.8-20-71.7-20c-0.1,0-0.1,0-0.2,0c-25.2,0-49.2,6.7-71.4,19.9
			c-0.5,0.3-0.9,0.9-0.9,1.5L0,100.8c0,0.6,0.3,1.2,0.9,1.5c22,13,46.7,19.9,71.7,19.9c24.9,0,49.8-6.8,71.8-19.7
			c0.5-0.3,0.9-0.9,0.9-1.5V45.3C145.1,44.7,144.8,44.1,144.3,43.8z M72.5,118.7c-24.1-0.1-47.9-6.7-69-18.9l0.1-53.6
			c21.1-12.2,44.9-18.6,69-18.6c24.1,0.1,47.9,6.7,69,18.9l-0.1,53.6C120.4,112.3,96.6,118.7,72.5,118.7z"/>
	</g>
	<g>
		<path class="st3" d="M72.5,117c-23.2,0-46.3-6.3-66.9-18c-0.2-0.1-0.4-0.4-0.4-0.7l0.1-50.8c0-0.3,0.1-0.5,0.4-0.7
			C26.3,35.1,49.4,29,72.6,29s46.3,6.3,66.9,18c0.2,0.1,0.4,0.4,0.4,0.7l-0.1,50.8c0,0.3-0.1,0.5-0.4,0.7
			C118.8,110.9,95.7,117,72.5,117z M6.8,97.9c20.2,11.5,42.9,17.5,65.7,17.6c22.8,0,45.5-6,65.8-17.3l0.1-49.9
			c-20.2-11.4-43-17.5-65.7-17.6c-22.8,0-45.5,6-65.8,17.3L6.8,97.9z"/>
		<path class="st1" d="M72.5,117c-23.2,0-46.3-6.3-66.9-18c-0.2-0.1-0.4-0.4-0.4-0.7l0.1-50.8c0-0.3,0.1-0.5,0.4-0.7
			C26.3,35.1,49.4,29,72.6,29s46.3,6.3,66.9,18c0.2,0.1,0.4,0.4,0.4,0.7l-0.1,50.8c0,0.3-0.1,0.5-0.4,0.7
			C118.8,110.9,95.7,117,72.5,117z M6.8,97.9c20.2,11.5,42.9,17.5,65.7,17.6c22.8,0,45.5-6,65.8-17.3l0.1-49.9
			c-20.2-11.4-43-17.5-65.7-17.6c-22.8,0-45.5,6-65.8,17.3L6.8,97.9z"/>
		<path class="st2" d="M72.5,117c-23.2,0-46.3-6.3-66.9-18c-0.2-0.1-0.4-0.4-0.4-0.7l0.1-50.8c0-0.3,0.1-0.5,0.4-0.7
			C26.3,35.1,49.4,29,72.6,29s46.3,6.3,66.9,18c0.2,0.1,0.4,0.4,0.4,0.7l-0.1,50.8c0,0.3-0.1,0.5-0.4,0.7
			C118.8,110.9,95.7,117,72.5,117z M6.8,97.9c20.2,11.5,42.9,17.5,65.7,17.6c22.8,0,45.5-6,65.8-17.3l0.1-49.9
			c-20.2-11.4-43-17.5-65.7-17.6c-22.8,0-45.5,6-65.8,17.3L6.8,97.9z"/>
	</g>
	
		<linearGradient id="SVGID_2_" gradientUnits="userSpaceOnUse" x1="8.9472" y1="175.1128" x2="101.6722" y2="175.1128" gradientTransform="matrix(1 0 0 -1 16.4777 198.3753)">
		<stop  offset="0" style="stop-color:#B16B34"/>
		<stop  offset="0.4" style="stop-color:#ECC89B"/>
		<stop  offset="0.5" style="stop-color:#F3CB9E"/>
		<stop  offset="0.6" style="stop-color:#ECC89B"/>
		<stop  offset="0.6908" style="stop-color:#E1B789"/>
		<stop  offset="0.8727" style="stop-color:#C68C59"/>
		<stop  offset="1" style="stop-color:#B16B34"/>
	</linearGradient>
	<path class="st4" d="M117.5,32.1c-0.3-0.3-7.9-7.8-15.1-8.9c-0.6-0.1-1.2-0.1-1.9-0.1c3.2-3.1,5.1-11.2,5.5-12.9
		c0.1-0.6,0-1.3-0.4-1.8s-1-0.8-1.7-0.9c0,0-0.4,0-1.1,0c-3.3,0-9.5,0.4-13.5,3.1c-1.5,1-2.5,2.1-3.4,3.3c-1.2-0.5-2.7-1-4.4-1.7
		l-3.1-1.9c-0.4-0.4-1.2-1-2.9-1.8c-0.7-0.5-1.9-1.3-3.2-1.3c-0.2,0-0.4,0.1-0.5,0.1l-7.1-4.8c-0.3-0.5-0.6-0.9-1.2-1.1l-1.4-0.5
		c-0.2-0.2-0.4-0.3-0.4-0.3C61.3,0.1,60.6-0.1,60,0c-0.7,0.1-1.2,0.5-1.5,1.1c-0.1,0.3-2.5,4.8-3.1,10.2c-0.4-0.3-0.7-0.6-1.1-0.9
		c-4-2.7-10.2-3.1-13.5-3.1c-0.7,0-1.1,0-1.1,0c-0.7,0-1.3,0.3-1.7,0.9c-0.4,0.5-0.6,1.2-0.4,1.8c0.4,1.6,2.2,9.8,5.5,12.9
		c-0.6,0-1.2,0-1.9,0.1c-7.3,1.1-14.8,8.5-15.1,8.8c-0.5,0.5-0.7,1.1-0.7,1.8c0.1,0.7,0.4,1.2,0.9,1.6c1,0.7,10,7,15.3,7h0.2
		c2.3-0.1,4.3-0.7,5.9-1.6c2.6,3.5,6.9,5.9,11.6,5.9c4,0,7.7-1.6,10.4-4.3c0.9,0.2,1.9,0.3,2.9,0.3c1.2,0,2.4-0.2,3.5-0.4
		c2.6,2.4,6,3.8,9.8,3.8c4.3,0,8.1-1.8,10.8-4.8c1.5,0.7,3.1,1.1,5,1.2h0.2c5.3,0,14.3-6.2,15.3-6.9c0.5-0.4,0.9-1,0.9-1.6
		C118.2,33.2,118,32.5,117.5,32.1z"/>
	<g>
		<path class="st5" d="M36.8,58.2c0.3-0.5,0.6-0.9,1-1.1C38,57,38,56.8,38,56.7v-0.2c0-0.3-0.2-0.5-0.5-0.5h-7.3l0,0
			c-0.2,0-0.4,0.2-0.5,0.4l-3.1,14.8l-3.8-14.8c-0.1-0.2-0.3-0.4-0.5-0.4h-6.8l0,0c-0.1,0-0.3,0.1-0.4,0.1C15,56.2,15,56.3,15,56.4
			v0.2c0,0.2,0.1,0.3,0.2,0.4c0.4,0.2,0.8,0.6,1.1,1.2c0.3,0.6,0.5,1.3,0.5,2v6.4c0,8.6-0.3,14.2-0.7,16.7c-0.3,1.8-1.1,3.2-2.3,3.9
			c-0.1,0.1-0.2,0.2-0.2,0.4v0.2c0,0.3,0.2,0.5,0.5,0.5h7c0.1,0,0.3-0.1,0.4-0.1c0.1-0.1,0.1-0.2,0.1-0.4v-0.2
			c0-0.1-0.1-0.3-0.2-0.4c-1-0.9-1.6-2.2-1.9-4c-0.3-2.3-0.5-7.8-0.5-16.3l5.3,21.5c0.1,0.2,0.3,0.4,0.5,0.4h0.3l0,0
			c0.2,0,0.4-0.2,0.5-0.4L29.9,68v15.9c0,0.8-0.2,1.5-0.5,2.1c-0.3,0.5-0.6,0.9-1,1.1c-0.1,0.1-0.2,0.3-0.2,0.4V88
			c0,0.3,0.2,0.5,0.5,0.5h8.9l0,0c0.1,0,0.3-0.1,0.4-0.1c0-0.2,0-0.3,0-0.4v-0.2c0-0.2-0.1-0.3-0.2-0.4c-0.4-0.2-0.7-0.6-1.1-1.2
			c-0.3-0.6-0.5-1.2-0.5-2V60.4C36.3,59.6,36.5,58.9,36.8,58.2z M54.3,81.8V67c0-1.7-0.6-3.1-1.7-4.3c-1.1-1.2-2.5-1.8-4-1.8
			c-1.8,0-3.4,0.6-4.8,1.7c-1.3,1-2.4,2.5-3.3,4.5v0.6c0.9-0.9,1.6-1.5,2.2-1.8c0.6-0.3,1.2-0.5,1.8-0.5c1,0,1.9,0.3,2.7,0.9
			s1.2,1.5,1.2,2.8c0,1.1-0.8,2-2.2,2.6c-0.8,0.4-1.9,0.8-3.4,1.2c-0.9,0.4-1.7,1.4-2.3,2.8c-0.6,1.5-0.9,3.2-0.9,5.1
			c0,2.3,0.3,4.1,0.8,5.2c0.7,1.6,2,2.5,3.8,2.5c1.1,0,2.1-0.3,2.8-0.9c0.6-0.4,1.2-1.2,1.8-2.3c0.4,1,0.9,1.7,1.6,2.3
			s1.4,0.9,2.2,0.9c0.6,0,1.3-0.3,2.1-1c0.8-0.8,1.5-1.8,2-3V84c-0.8,0-1.4-0.1-1.8-0.4C54.4,83.3,54.2,82.7,54.3,81.8z M48.3,83.6
			c-0.3,0.7-0.6,1.3-0.8,1.7c-0.2,0.4-0.5,0.6-0.7,0.6c-0.8,0-1.3-0.8-1.4-2.5c-0.1-0.7-0.1-2-0.1-3.6c0-2.2,0.2-3.7,0.7-4.8
			c0.4-0.9,1.2-1.9,2.5-3L48.3,83.6z M74,84.3c-1.2-0.9-2.8-1.4-4.6-1.4L64,83c-0.9,0-1.5-0.2-2-0.5s-0.7-0.8-0.7-1.5
			c0-0.2,0.1-0.4,0.2-0.7c0.1-0.3,0.4-0.6,0.7-1c0.7,0.6,1.4,1.1,2.2,1.4c0.8,0.4,1.7,0.5,2.7,0.5c2.1,0,3.9-1,5.4-3
			s2.2-4.5,2.2-7.4c0-1.7-0.4-3.4-1.1-5.1c-0.8-1.7-1.7-2.9-2.8-3.6c0,0,0.2-0.3,0.7-1c0.5-0.6,1.1-0.9,1.6-0.9s0.9,0.1,1.2,0.2
			c0.3,0.2,0.6,0.5,0.9,0.9h0.2v-4.9c-1.5,0-2.7,0.5-3.6,1.6c-0.6,0.7-1.2,1.8-1.8,3.3c-0.5-0.2-0.9-0.4-1.3-0.4
			c-0.4-0.1-0.9-0.1-1.7-0.1c-2.4,0-4.4,0.9-5.9,2.8s-2.3,4.2-2.3,7c0,1.3,0.3,2.7,0.8,4.3c0.5,1.6,1.2,2.8,1.9,3.8
			c-0.7,0.9-1.3,2-1.8,3.4c-0.7,1.9-1.1,3.3-1.1,4.2c0,0.6,0.1,1.2,0.2,1.8c0.2,0.6,0.4,1,0.6,1.2c-0.3,0.4-0.7,0.9-1,1.7
			c-0.3,0.8-0.5,1.6-0.5,2.4c0,2.1,0.9,3.7,2.7,4.7c1.4,0.7,3.1,1.1,5.3,1.1c2.8,0,5.1-0.8,7.1-2.4c2.2-1.8,3.2-4.2,3.2-7.3
			C76.3,87.1,75.5,85.4,74,84.3z M63.9,62.7c0.2-0.4,0.5-0.6,0.9-0.6c1,0,2,1.9,3.1,5.7s1.7,7,1.7,9.5c0,1.9-0.4,2.9-1.1,2.9
			c-0.8,0-1.8-2.1-3.1-6.4c-1.3-4.3-1.9-7.4-1.9-9.5C63.5,63.7,63.6,63.1,63.9,62.7z M70.5,96.4c-1,0.8-2.2,1.2-3.4,1.2
			c-2.3,0-4.1-0.6-5.5-1.9s-2.1-2.8-2.1-4.5c0.1-0.2,0.1-0.3,0.2-0.4c0.2-0.4,0.4-0.8,0.6-1c0.2,0.1,0.9,0.3,2.2,0.4
			c2,0.3,3.3,0.5,3.8,0.6c1.7,0.3,3,0.8,4.2,1.3c1.1,0.5,1.7,1.2,1.7,1.9C72,94.7,71.5,95.6,70.5,96.4z M99.2,56.2h-5.7l0,0
			c-0.1,0-0.3,0.1-0.4,0.1C93,56.4,93,56.5,93,56.6v0.2c0,0.1,0,0.2,0.1,0.3c0.7,0.9,1.3,2.4,1.6,4.3c0.3,2.1,0.4,5.1,0.4,9v2.2
			l-8.3-16.2c-0.1-0.2-0.3-0.3-0.4-0.3H81c-0.1,0-0.3,0.1-0.4,0.1c-0.1,0.1-0.1,0.2-0.1,0.3v0.2c0,0.2,0.1,0.3,0.2,0.4
			c0.4,0.2,0.8,0.6,1.1,1.2c0.3,0.6,0.5,1.3,0.5,2v6.4c0,8.4-0.2,14.1-0.6,16.7c-0.3,1.8-0.9,3.2-1.8,3.9c-0.1,0.1-0.2,0.2-0.2,0.4
			v0.2c0,0.1,0,0.3,0.1,0.4s0.2,0.1,0.4,0.1h6.3l0,0c0.3,0,0.5-0.2,0.5-0.5v-0.2c0-0.1-0.1-0.3-0.2-0.4c-0.9-0.9-1.5-2.2-1.8-4
			c-0.3-2.5-0.5-8.1-0.5-16.7v-1l11.6,23.1c0.1,0.2,0.3,0.3,0.4,0.3l0,0h0.2c0.3,0,0.5-0.2,0.5-0.5V70.2c0-3.3,0.2-6.1,0.5-8.2
			c0.4-2.5,1-4.2,1.8-5.1c0.1-0.1,0.1-0.2,0.1-0.3v-0.2C99.7,56.4,99.5,56.2,99.2,56.2z M118.3,85.9c-0.3-0.7-0.5-1.5-0.5-2.2V61.5
			h-7.7v0.2c0.5,0.2,0.9,0.7,1.2,1.5c0.4,0.8,0.5,1.5,0.5,2.2v17.3c0,0.7-0.2,1.2-0.6,1.7s-0.8,0.7-1.3,0.7c-1.3,0-1.9-0.8-1.9-2.4
			V61.5h-7.8v0.2c0.5,0.2,0.9,0.7,1.2,1.5c0.4,0.8,0.5,1.5,0.5,2.2v19.9c0,1,0.5,1.9,1.5,2.5c0.8,0.5,1.6,0.7,2.5,0.7
			c1.3,0,2.7-0.5,3.9-1.4c0.8-0.6,1.5-1.3,2-2l0.2,3.5h0.1c0.9-0.4,2.1-0.6,3.6-0.7c1.4-0.1,2.7-0.2,3.9-0.2v-0.2
			C119.1,87.2,118.7,86.6,118.3,85.9z M131.1,84.9c-0.3,0.4-0.6,0.5-0.9,0.5c-0.4,0-0.7-0.1-0.9-0.4s-0.3-0.7-0.3-1.1V64.1h1.1
			c0.5,0,1-0.2,1.3-0.7s0.5-1.1,0.6-1.9h-3v-7.1h-0.1l-8.2,9.3v0.4h2.3v19.8c0,1.3,0.4,2.4,1.3,3.3c0.8,0.9,1.9,1.4,3.1,1.4
			c1.1,0,2.2-0.5,3.1-1.5s1.5-2.2,1.6-3.5H132C131.7,84.1,131.5,84.5,131.1,84.9z"/>
		<path class="st2" d="M36.8,58.2c0.3-0.5,0.6-0.9,1-1.1C38,57,38,56.8,38,56.7v-0.2c0-0.3-0.2-0.5-0.5-0.5h-7.3l0,0
			c-0.2,0-0.4,0.2-0.5,0.4l-3.1,14.8l-3.8-14.8c-0.1-0.2-0.3-0.4-0.5-0.4h-6.8l0,0c-0.1,0-0.3,0.1-0.4,0.1C15,56.2,15,56.3,15,56.4
			v0.2c0,0.2,0.1,0.3,0.2,0.4c0.4,0.2,0.8,0.6,1.1,1.2c0.3,0.6,0.5,1.3,0.5,2v6.4c0,8.6-0.3,14.2-0.7,16.7c-0.3,1.8-1.1,3.2-2.3,3.9
			c-0.1,0.1-0.2,0.2-0.2,0.4v0.2c0,0.3,0.2,0.5,0.5,0.5h7c0.1,0,0.3-0.1,0.4-0.1c0.1-0.1,0.1-0.2,0.1-0.4v-0.2
			c0-0.1-0.1-0.3-0.2-0.4c-1-0.9-1.6-2.2-1.9-4c-0.3-2.3-0.5-7.8-0.5-16.3l5.3,21.5c0.1,0.2,0.3,0.4,0.5,0.4h0.3l0,0
			c0.2,0,0.4-0.2,0.5-0.4L29.9,68v15.9c0,0.8-0.2,1.5-0.5,2.1c-0.3,0.5-0.6,0.9-1,1.1c-0.1,0.1-0.2,0.3-0.2,0.4V88
			c0,0.3,0.2,0.5,0.5,0.5h8.9l0,0c0.1,0,0.3-0.1,0.4-0.1c0-0.2,0-0.3,0-0.4v-0.2c0-0.2-0.1-0.3-0.2-0.4c-0.4-0.2-0.7-0.6-1.1-1.2
			c-0.3-0.6-0.5-1.2-0.5-2V60.4C36.3,59.6,36.5,58.9,36.8,58.2z M54.3,81.8V67c0-1.7-0.6-3.1-1.7-4.3c-1.1-1.2-2.5-1.8-4-1.8
			c-1.8,0-3.4,0.6-4.8,1.7c-1.3,1-2.4,2.5-3.3,4.5v0.6c0.9-0.9,1.6-1.5,2.2-1.8c0.6-0.3,1.2-0.5,1.8-0.5c1,0,1.9,0.3,2.7,0.9
			s1.2,1.5,1.2,2.8c0,1.1-0.8,2-2.2,2.6c-0.8,0.4-1.9,0.8-3.4,1.2c-0.9,0.4-1.7,1.4-2.3,2.8c-0.6,1.5-0.9,3.2-0.9,5.1
			c0,2.3,0.3,4.1,0.8,5.2c0.7,1.6,2,2.5,3.8,2.5c1.1,0,2.1-0.3,2.8-0.9c0.6-0.4,1.2-1.2,1.8-2.3c0.4,1,0.9,1.7,1.6,2.3
			s1.4,0.9,2.2,0.9c0.6,0,1.3-0.3,2.1-1c0.8-0.8,1.5-1.8,2-3V84c-0.8,0-1.4-0.1-1.8-0.4C54.4,83.3,54.2,82.7,54.3,81.8z M48.3,83.6
			c-0.3,0.7-0.6,1.3-0.8,1.7c-0.2,0.4-0.5,0.6-0.7,0.6c-0.8,0-1.3-0.8-1.4-2.5c-0.1-0.7-0.1-2-0.1-3.6c0-2.2,0.2-3.7,0.7-4.8
			c0.4-0.9,1.2-1.9,2.5-3L48.3,83.6z M74,84.3c-1.2-0.9-2.8-1.4-4.6-1.4L64,83c-0.9,0-1.5-0.2-2-0.5s-0.7-0.8-0.7-1.5
			c0-0.2,0.1-0.4,0.2-0.7c0.1-0.3,0.4-0.6,0.7-1c0.7,0.6,1.4,1.1,2.2,1.4c0.8,0.4,1.7,0.5,2.7,0.5c2.1,0,3.9-1,5.4-3
			s2.2-4.5,2.2-7.4c0-1.7-0.4-3.4-1.1-5.1c-0.8-1.7-1.7-2.9-2.8-3.6c0,0,0.2-0.3,0.7-1c0.5-0.6,1.1-0.9,1.6-0.9s0.9,0.1,1.2,0.2
			c0.3,0.2,0.6,0.5,0.9,0.9h0.2v-4.9c-1.5,0-2.7,0.5-3.6,1.6c-0.6,0.7-1.2,1.8-1.8,3.3c-0.5-0.2-0.9-0.4-1.3-0.4
			c-0.4-0.1-0.9-0.1-1.7-0.1c-2.4,0-4.4,0.9-5.9,2.8s-2.3,4.2-2.3,7c0,1.3,0.3,2.7,0.8,4.3c0.5,1.6,1.2,2.8,1.9,3.8
			c-0.7,0.9-1.3,2-1.8,3.4c-0.7,1.9-1.1,3.3-1.1,4.2c0,0.6,0.1,1.2,0.2,1.8c0.2,0.6,0.4,1,0.6,1.2c-0.3,0.4-0.7,0.9-1,1.7
			c-0.3,0.8-0.5,1.6-0.5,2.4c0,2.1,0.9,3.7,2.7,4.7c1.4,0.7,3.1,1.1,5.3,1.1c2.8,0,5.1-0.8,7.1-2.4c2.2-1.8,3.2-4.2,3.2-7.3
			C76.3,87.1,75.5,85.4,74,84.3z M63.9,62.7c0.2-0.4,0.5-0.6,0.9-0.6c1,0,2,1.9,3.1,5.7s1.7,7,1.7,9.5c0,1.9-0.4,2.9-1.1,2.9
			c-0.8,0-1.8-2.1-3.1-6.4c-1.3-4.3-1.9-7.4-1.9-9.5C63.5,63.7,63.6,63.1,63.9,62.7z M70.5,96.4c-1,0.8-2.2,1.2-3.4,1.2
			c-2.3,0-4.1-0.6-5.5-1.9s-2.1-2.8-2.1-4.5c0.1-0.2,0.1-0.3,0.2-0.4c0.2-0.4,0.4-0.8,0.6-1c0.2,0.1,0.9,0.3,2.2,0.4
			c2,0.3,3.3,0.5,3.8,0.6c1.7,0.3,3,0.8,4.2,1.3c1.1,0.5,1.7,1.2,1.7,1.9C72,94.7,71.5,95.6,70.5,96.4z M99.2,56.2h-5.7l0,0
			c-0.1,0-0.3,0.1-0.4,0.1C93,56.4,93,56.5,93,56.6v0.2c0,0.1,0,0.2,0.1,0.3c0.7,0.9,1.3,2.4,1.6,4.3c0.3,2.1,0.4,5.1,0.4,9v2.2
			l-8.3-16.2c-0.1-0.2-0.3-0.3-0.4-0.3H81c-0.1,0-0.3,0.1-0.4,0.1c-0.1,0.1-0.1,0.2-0.1,0.3v0.2c0,0.2,0.1,0.3,0.2,0.4
			c0.4,0.2,0.8,0.6,1.1,1.2c0.3,0.6,0.5,1.3,0.5,2v6.4c0,8.4-0.2,14.1-0.6,16.7c-0.3,1.8-0.9,3.2-1.8,3.9c-0.1,0.1-0.2,0.2-0.2,0.4
			v0.2c0,0.1,0,0.3,0.1,0.4s0.2,0.1,0.4,0.1h6.3l0,0c0.3,0,0.5-0.2,0.5-0.5v-0.2c0-0.1-0.1-0.3-0.2-0.4c-0.9-0.9-1.5-2.2-1.8-4
			c-0.3-2.5-0.5-8.1-0.5-16.7v-1l11.6,23.1c0.1,0.2,0.3,0.3,0.4,0.3l0,0h0.2c0.3,0,0.5-0.2,0.5-0.5V70.2c0-3.3,0.2-6.1,0.5-8.2
			c0.4-2.5,1-4.2,1.8-5.1c0.1-0.1,0.1-0.2,0.1-0.3v-0.2C99.7,56.4,99.5,56.2,99.2,56.2z M118.3,85.9c-0.3-0.7-0.5-1.5-0.5-2.2V61.5
			h-7.7v0.2c0.5,0.2,0.9,0.7,1.2,1.5c0.4,0.8,0.5,1.5,0.5,2.2v17.3c0,0.7-0.2,1.2-0.6,1.7s-0.8,0.7-1.3,0.7c-1.3,0-1.9-0.8-1.9-2.4
			V61.5h-7.8v0.2c0.5,0.2,0.9,0.7,1.2,1.5c0.4,0.8,0.5,1.5,0.5,2.2v19.9c0,1,0.5,1.9,1.5,2.5c0.8,0.5,1.6,0.7,2.5,0.7
			c1.3,0,2.7-0.5,3.9-1.4c0.8-0.6,1.5-1.3,2-2l0.2,3.5h0.1c0.9-0.4,2.1-0.6,3.6-0.7c1.4-0.1,2.7-0.2,3.9-0.2v-0.2
			C119.1,87.2,118.7,86.6,118.3,85.9z M131.1,84.9c-0.3,0.4-0.6,0.5-0.9,0.5c-0.4,0-0.7-0.1-0.9-0.4s-0.3-0.7-0.3-1.1V64.1h1.1
			c0.5,0,1-0.2,1.3-0.7s0.5-1.1,0.6-1.9h-3v-7.1h-0.1l-8.2,9.3v0.4h2.3v19.8c0,1.3,0.4,2.4,1.3,3.3c0.8,0.9,1.9,1.4,3.1,1.4
			c1.1,0,2.2-0.5,3.1-1.5s1.5-2.2,1.6-3.5H132C131.7,84.1,131.5,84.5,131.1,84.9z"/>
	</g>
	<g>
		<path class="st6" d="M102.1,25.4c-1.1-0.2-2.1-0.1-3.1-0.1c-0.5,0.1-1.1,0.1-1.6,0.2c-0.3,0.1-0.5,0.1-0.8,0.2
			c0.4,0.7,0.7,1.3,0.9,2.1c0.2,0.5,0.3,1.1,0.4,1.6c0.1,0.7,0.2,1.4,0.2,2.1c0,0.2,0,0.3-0.1,0.5c0.2,0.1,0.5,0.2,0.7,0.3
			c0.5,0.2,1,0.3,1.5,0.5c2.7,0.8,5.7,1.3,5.7,1.3S103,34,100,33.9c-0.5,0-1-0.1-1.5-0.1c-0.3,0-0.5,0-0.8,0
			c-0.1,0.8-0.4,1.5-0.7,2.2c0,0.1-0.1,0.2-0.1,0.3c-0.3,0.7-0.7,1.3-1.1,2c0.2,0.1,0.4,0.3,0.7,0.4c0.4,0.2,0.9,0.5,1.3,0.7
			c1.1,0.4,2.3,0.7,3.7,0.8h0.1c4.7,0,14-6.5,14-6.5S108.7,26.4,102.1,25.4z M62.8,9.6l4.4,0.2h0.1l2,0.1h0.1l2.2,0.1
			c0-0.1,0-0.1,0.1-0.2L71,9.4l-1.2-0.7L68,7.6l-3.6-2.2l-1.9-1.2c-0.2,0.4-0.5,1-0.7,1.7c0,0.1-0.1,0.3-0.1,0.4
			c-0.1,0.3-0.2,0.6-0.3,0.9c-0.2,0.7-0.4,1.4-0.6,2.2L62.8,9.6z M84.9,16.7l0.8,0.5l0.8,0.5l0.4,0.2l0,0H87h0.1l0,0l0.9,0.7
			l0.2,0.2l0.1,0.1c0,0-0.1,0.2-0.4,0.5c0.3,0,0.6-0.1,0.9-0.1s0.6-0.1,0.8-0.1c0.2,0,0.4-0.1,0.6-0.1h0.2c0.4-0.1,0.8-0.2,1.2-0.2
			c0.2,0,0.4-0.1,0.6-0.2c2.5-0.8,5.9-3,5.9-3s-2.3,2-4.5,3.8c-0.2,0.2-0.5,0.4-0.7,0.5c-0.2,0.2-0.4,0.3-0.6,0.4
			c-0.2,0.2-0.5,0.3-0.7,0.5c1.3,0.7,2.5,1.6,3.5,2.7c0.3-0.1,0.5-0.1,0.8-0.2c0.5-0.2,1-0.4,1.4-0.6c0.5-0.3,1-0.6,1.5-1
			c3-2.5,5-11.9,5-11.9s-8.6-0.4-13.2,2.7c-1,0.7-1.8,1.5-2.5,2.3c-0.3,0.3-0.5,0.7-0.7,1c0,0,0,0.1-0.1,0.1
			c-0.2,0.3-0.3,0.6-0.5,0.8c-0.4-0.1-0.9-0.3-1.4-0.5c-0.2-0.1-0.5-0.2-0.7-0.3c-1.2-0.5-2.7-1-4.2-1.7l3.9,2.3L84.9,16.7z
			 M71.6,9.8L71.6,9.8L71.6,9.8L71.6,9.8z M69.3,10.9H69l0,0h-2.5l-4,0.1h-2.3c-0.1,0.7-0.1,1.3-0.2,2c0,0.1,0,0.1,0,0.2
			c0,0.7,0.1,1.4,0.2,2.1l2.2-0.7l4.4-1.5l2.5-0.8l0.5-0.2l0.8-0.3h0.1l1.3-0.4c-0.1-0.2-0.3-0.4-0.3-0.6h-0.6L69.3,10.9z
			 M71.4,12.2L71.4,12.2l-1.2,0.5l-0.9,0.4l-1.6,0.7l-5,2.1l-2,0.8l-0.1-0.1c0.1,0.4,0.2,0.8,0.4,1.2c0.1,0.3,0.3,0.6,0.5,0.9
			c0,0.1,0.1,0.1,0.1,0.2s0.1,0.1,0.1,0.2c0.1,0.1,0.1,0.2,0.2,0.3c0.2,0.3,0.4,0.5,0.6,0.7c0.1,0.1,0.1,0.2,0.2,0.3
			c0.1,0,0.3,0.1,0.4,0.1c0.2-0.2,0.3-0.4,0.5-0.6c0.3-0.3,0.5-0.6,0.8-0.8c0.1-0.1,0.3-0.2,0.4-0.3c0.6-0.5,1.3-0.9,2-1.3l1.8-1.6
			l0.2-0.2l2.1-1.8l0.2-0.1l0.2-0.2l0.5-0.5l0.4-0.3l0,0l0.2-0.2l0.3-0.3c-0.1-0.1-0.2-0.1-0.3-0.2c-0.1,0-0.1-0.1-0.2-0.1l-0.3,0
			L71.4,12.2z M72.7,13l-0.2,0.2L72,13.7l-0.3,0.4l-0.5,0.6l-0.6,0.7l-0.9,1c0.2,0,0.4-0.1,0.5-0.2C71,16,71.8,16,72.6,16h0.1v-0.1
			l0.3-0.6l0.1-0.4l0.4-0.9l0.1-0.2l0.1-0.3l0.3-0.7h-0.1c-0.2-0.1-0.3-0.1-0.5-0.2c0,0-0.1,0-0.1-0.1l0,0l-0.1,0.2L72.7,13L72.7,13
			z M73.9,13.5l-0.1,0.2l-0.1,0.4l-0.2,0.8l-0.1,0.3l-0.2,0.5L73.1,16c0.6,0,1.1,0.1,1.7,0.2c0.1,0,0.2,0,0.2,0l0-0.8v-0.2L74.8,14
			l0,0v-0.1v-0.3L74.7,13h-0.1c-0.1,0-0.2,0-0.2,0c-0.1,0-0.2,0-0.3-0.1L73.9,13.5L73.9,13.5z M77.2,14.5l0.1,0.1l0.4,0.6l0.1,0.2
			l0.2,0.4l0.7,1l0.9,1.4c0.1,0.1,0.2,0.2,0.3,0.2c0.4,0.3,0.9,0.7,1.3,1.1c0.1,0.1,0.1,0.1,0.2,0.2s0.2,0.3,0.4,0.4
			c0.3-0.1,0.5-0.2,0.8-0.2c0.2-0.1,0.5-0.2,0.7-0.2c0.1,0,0.2,0,0.3-0.1c0.2,0,0.3,0,0.5,0c0.1,0,0.1,0,0.2,0c0.2,0,0.3,0,0.5,0
			s0.4,0,0.5-0.1c0.3-0.3,0.5-0.5,0.7-0.7l0.1-0.1c0.1-0.1,0.2-0.2,0.3-0.3l-0.2-0.1l-1.6-1l-0.1-0.1L84.3,17l-4.6-2.9l-0.8-0.5
			l-1.2-0.8c-0.1-0.1-0.3-0.1-0.4-0.2c-0.2-0.1-0.4-0.2-0.6-0.3c-0.1,0-0.1,0-0.2,0c0,0,0,0-0.1,0s-0.2,0.1-0.5,0.2l0.4,0.5
			L77.2,14.5z M75.2,13.9L75.2,13.9v0.3l0.1,0.9l0.1,0.4l0.1,0.3l0.1,0.5c0.8,0.2,1.6,0.5,2.4,0.9l0,0l0,0l-0.6-1.1l-0.7-1.2l0,0
			l-0.1-0.1l-0.3-0.5L76.1,14l-0.5-1l-0.1-0.2c-0.1,0.1-0.3,0.1-0.4,0.1l0.1,0.6V13.9z M57.6,16.2c0.1,0.5,0.2,1.1,0.3,1.6
			s0.3,1,0.5,1.5c0.1,0.2,0.2,0.5,0.3,0.7c0.2,0,0.4-0.1,0.6-0.1c0.2,0,0.4,0,0.5,0.1c0.2,0,0.3,0,0.5,0c-0.1-0.2-0.3-0.4-0.4-0.7
			c0-0.1,0-0.1-0.1-0.2c-0.1-0.2-0.2-0.4-0.3-0.6c-0.1-0.3-0.3-0.6-0.4-0.9c-0.3-0.7-0.4-1.4-0.6-2.1c-0.1-0.6-0.2-1.2-0.2-1.8
			c0-0.2,0-0.4,0-0.7c0-2.1,0.3-4.2,0.7-5.9c0.2-0.9,0.5-1.6,0.7-2.3c0.5-1.3,0.8-2.1,0.8-2.1l0.2-0.2L61,2.6
			C60.6,2.3,60.3,2,60.3,2S60,2.9,59.6,4c-0.4,0.9-0.8,2.1-1.2,3.5c-0.4,1.5-0.8,3.1-0.9,4.9c0,0.4,0,0.8,0,1.2c0,0.6,0,1.2,0.1,1.8
			C57.5,15.6,57.5,15.9,57.6,16.2z M46.5,33.7c-0.3,0-0.6,0.1-0.9,0.1c-0.2,0-0.4,0-0.6,0c-3.5,0.2-7.6,0.3-7.6,0.3s4.6-0.7,7.4-1.9
			c0.3-0.1,0.7-0.3,1-0.4c0.2-0.1,0.4-0.2,0.6-0.3c0.3-0.2,0.5-0.3,0.8-0.5c0.2-1.7,0.7-3.3,1.5-4.7c-0.2-0.1-0.5-0.2-0.7-0.3
			c-0.5-0.2-1-0.3-1.5-0.4c-1.5-0.4-3.2-0.5-5-0.3c-6.6,1-13.9,8.2-13.9,8.2s9.2,6.6,14,6.5h0.1c1.9,0,3.5-0.6,4.8-1.3
			c0.5-0.2,0.9-0.5,1.3-0.8c0.2-0.2,0.4-0.3,0.6-0.5c-0.6-1.2-1-2.5-1.2-3.9C47,33.6,46.7,33.6,46.5,33.7z M47.9,23.3
			c0.6,0.2,1.1,0.3,1.7,0.3c0.3,0,0.6,0.1,0.9,0.1c0.8-0.8,1.8-1.5,2.8-2.1c-0.3-0.1-0.5-0.3-0.8-0.4c-0.4-0.3-0.9-0.6-1.4-0.9
			c-0.2-0.1-0.4-0.3-0.6-0.4c-2.3-1.9-5.2-4.4-5.2-4.4s4.1,2.6,6.5,3.3c0.5,0.1,1,0.2,1.4,0.3c1,0.2,1.9,0.3,2.7,0.4
			c0.2,0,0.5,0,0.7,0.1c0.4,0,0.7,0.1,0.8,0.1s0.2,0,0.2,0s0-0.1,0-0.2c-0.1-0.3-0.2-0.8-0.5-1.5c-0.2-0.4-0.4-1-0.7-1.5
			c-0.4-0.7-0.8-1.3-1.4-2c-0.6-0.7-1.3-1.5-2.3-2.1c-4.6-3.1-13.2-2.7-13.2-2.7s2,9.4,5,11.9C45.7,22.4,46.8,22.9,47.9,23.3z
			 M65.5,38c-3.1-2.2-5.2-5.8-5.1-9.9c0-0.8,0.1-1.6,0.2-2.3c0.1-0.6,0.3-1.1,0.5-1.6c0-0.1,0.1-0.2,0.1-0.4c0-0.1,0.1-0.3,0.1-0.4
			c0.1-0.2,0.2-0.4,0.3-0.5s0.1-0.3,0.2-0.4c0.1-0.1,0.2-0.3,0.2-0.4s0.1-0.2,0.1-0.2c-0.2,0-0.4-0.1-0.5-0.2c-0.1,0-0.2,0-0.2,0
			c-0.2,0-0.5,0-0.8-0.1c-0.3,0-0.6-0.1-0.9-0.1c-0.1,0-0.1,0-0.2,0c-0.1,0-0.1,0-0.2,0c-0.2,0-0.4,0-0.5,0.1c-0.1,0-0.1,0-0.2,0
			c-0.5,0-1,0.1-1.6,0.2c-0.7,0.2-1.5,0.4-2.1,0.7c-0.7,0.3-1.4,0.7-2,1.2c-0.1,0.1-0.1,0.1-0.2,0.2c-0.2,0.1-0.3,0.3-0.5,0.4
			c-0.3,0.3-0.6,0.6-0.9,0.9c-0.3,0.3-0.5,0.6-0.7,0.9S50.2,26.7,50,27c-0.5,0.9-1,2-1.2,3.1c-0.2,0.7-0.2,1.4-0.2,2.2
			c0,0.4,0.1,0.8,0.1,1.2c0.1,1.1,0.4,2.2,0.8,3.1c0.3,0.7,0.7,1.4,1.2,2c2,2.6,5.1,4.4,8.7,4.4c2.4,0,4.6-0.8,6.4-2.1
			c0.4-0.3,0.9-0.7,1.3-1c0.2-0.2,0.3-0.4,0.5-0.6c-0.2-0.1-0.5-0.2-0.7-0.4C66.3,38.5,65.9,38.3,65.5,38z M55.4,27.3
			c-1.1,1.1-1.5,2-1.6,3.1c-0.1,0.5-0.1,1.1,0,1.8c0.2,0.7,0.2,1.5-0.3,1.9c-0.4,0.3-1.2,0-1.7-0.7c-0.1-0.1-0.2-0.3-0.2-0.5
			c0-0.1,0-0.3-0.1-0.4c-0.4-2.5,0.1-4.4,1.7-6.2c0.2-0.2,0.4-0.4,0.6-0.6c0,0,0-0.1,0.1-0.1l0.1-0.1c0,0,0.1,0,0.1-0.1
			c0.5-0.3,1.1-0.4,1.5-0.3c0.3,0.1,0.5,0.2,0.6,0.5C56.5,26.2,56,26.9,55.4,27.3z M96.7,31.5c0-0.1,0-0.2,0-0.3c0-1-0.2-2-0.5-3
			c0,0,0,0,0-0.1c-0.2-0.7-0.5-1.4-0.9-2c-0.1-0.1-0.1-0.3-0.2-0.4c-0.3-0.5-0.7-1-1.1-1.4c-0.2-0.2-0.4-0.4-0.6-0.6
			c-0.9-0.9-2-1.6-3.2-2.1c-0.3-0.1-0.7-0.2-1.1-0.3c-0.1,0-0.1,0-0.2-0.1c-0.8-0.2-1.6-0.4-2.4-0.4c0,0,0,0-0.1,0
			c-0.2,0-0.3-0.1-0.5-0.1c-0.3,0-0.5,0.1-0.8,0.1s-0.6,0-0.9,0.1h-0.1c-0.2,0-0.3,0.1-0.5,0.1c-0.1,0-0.1,0-0.2,0.1
			c-0.1,0-0.2,0.1-0.3,0.1c-0.1,0-0.2,0.1-0.3,0.1c0,0,0,0,0,0.1s0.1,0.1,0.1,0.2c0.1,0.1,0.1,0.3,0.2,0.4c0.1,0.2,0.2,0.4,0.3,0.6
			c0.1,0.2,0.2,0.3,0.3,0.5c0,0.1,0.1,0.1,0.1,0.2c0.1,0.1,0.1,0.2,0.1,0.3c0.2,0.5,0.3,0.9,0.4,1.4c0,0.1,0.1,0.2,0.1,0.3
			c0.1,0.2,0.1,0.5,0.2,0.7c0,0.2,0,0.5,0.1,0.7c0.1,0.5,0.1,0.9,0.1,1.4c0,3.9-1.9,7.4-4.8,9.6c-0.4,0.3-0.8,0.6-1.3,0.8
			c-0.2,0.1-0.5,0.3-0.7,0.4c0.2,0.2,0.4,0.4,0.6,0.5c0.4,0.4,0.8,0.7,1.3,1c1.7,1.1,3.7,1.8,5.9,1.8c3,0,5.7-1.2,7.6-3.1
			c0.5-0.5,1-1.1,1.4-1.7c0.7-1.1,1.3-2.4,1.6-3.7C96.6,33,96.7,32.3,96.7,31.5z M80.2,35.8c1.1-1.1,2-2.4,2.5-3.9
			c0.4-1.1,0.7-2.3,0.7-3.5c0-0.1,0-0.2,0-0.3c0-0.4-0.1-0.7-0.1-1.1c0-0.3,0-0.6-0.1-0.9c0-0.2-0.1-0.3-0.1-0.5
			c-0.1-0.3-0.2-0.7-0.3-1c-0.1-0.3-0.1-0.5-0.3-0.8c0-0.1-0.1-0.1-0.1-0.1c0-0.1-0.1-0.1-0.1-0.2c-0.2-0.3-0.3-0.7-0.5-1
			c0,0,0-0.1-0.1-0.1c0-0.1-0.1-0.2-0.1-0.2s0,0,0-0.1c-0.1-0.1-0.2-0.2-0.3-0.3c-0.3-0.4-0.6-0.8-0.9-1.1c-0.1-0.1-0.1-0.2-0.2-0.2
			c-0.1-0.1-0.3-0.2-0.4-0.3c-0.1-0.1-0.2-0.2-0.3-0.2c-0.3-0.3-0.6-0.5-1-0.8c-0.1-0.1-0.2-0.1-0.3-0.1c-0.8-0.5-1.6-0.8-2.4-1.1
			l0,0c-0.2-0.1-0.4-0.1-0.6-0.2c-0.1,0-0.2-0.1-0.2-0.1c-0.7-0.1-1.3-0.2-2-0.2c-0.1,0-0.1,0-0.2,0c0,0,0,0-0.1,0
			c-0.2,0-0.3,0-0.5,0.1c-0.2,0-0.3,0-0.5,0c-0.7,0.1-1.4,0.2-2.1,0.4c-0.7,0.2-1.4,0.5-2,0.8c-0.4,0.2-0.9,0.5-1.2,0.8
			c-0.1,0.1-0.2,0.1-0.3,0.2c-0.2,0.1-0.3,0.3-0.5,0.4l0,0c-0.2,0.1-0.4,0.3-0.5,0.4c-0.2,0.2-0.3,0.4-0.5,0.6s-0.3,0.4-0.5,0.6
			c0,0.1-0.1,0.1-0.1,0.2c-0.1,0.1-0.2,0.3-0.3,0.4c0,0,0,0.1-0.1,0.1c-0.1,0.2-0.2,0.4-0.3,0.6c0,0,0,0,0,0.1
			c-0.2,0.3-0.3,0.5-0.5,0.8c-0.1,0.1-0.1,0.3-0.2,0.4v0.1c-0.1,0.2-0.2,0.5-0.2,0.7c-0.2,0.5-0.3,1.1-0.3,1.6
			C62,27.2,62,27.7,62,28.1c0,3.6,1.8,6.8,4.6,8.8c0.4,0.3,0.8,0.5,1.3,0.7c0.2,0.1,0.4,0.3,0.7,0.4c0.5,0.2,0.9,0.3,1.4,0.4
			c0.3,0.1,0.5,0.2,0.8,0.2c0.5,0.1,1.1,0.1,1.6,0.2c0.1,0,0.3,0,0.4,0c0.3,0,0.5-0.1,0.8-0.1c0.5,0,1.1-0.1,1.6-0.2
			c0.3-0.1,0.5-0.2,0.8-0.2c0.5-0.1,1-0.3,1.5-0.5c0.2-0.1,0.5-0.2,0.7-0.4c0.4-0.2,0.8-0.5,1.2-0.8C79.5,36.4,79.8,36.1,80.2,35.8z
			 M68.8,23.2C68.8,23.3,68.7,23.3,68.8,23.2c-0.3,0.3-0.4,0.4-0.5,0.6l-0.1,0.1c-0.2,0.2-0.4,0.5-0.5,0.7s-0.2,0.3-0.2,0.5
			c0,0.1-0.1,0.1-0.1,0.2c-0.1,0.2-0.2,0.4-0.2,0.7c0,0.1,0,0.1,0,0.2c0,0.2-0.1,0.4-0.1,0.6s0,0.5,0.1,0.8c0,0.2,0,0.4,0.1,0.7
			c0.1,0.2,0.1,0.4,0.1,0.6c0,0.1,0,0.2,0,0.4c0,0.4-0.1,0.7-0.4,1c-0.5,0.4-1.6-0.1-1.9-1.2c0-0.2-0.1-0.4-0.1-0.7
			c-0.1-0.6-0.1-1.2-0.1-1.8c0-0.3,0-0.5,0.1-0.7v-0.1c0.1-0.5,0.2-0.9,0.4-1.3l0,0c0,0,0-0.1,0.1-0.1c0.1-0.2,0.2-0.3,0.3-0.5
			c0-0.1,0.1-0.1,0.1-0.2c0.1-0.2,0.2-0.3,0.3-0.5c0.2-0.2,0.3-0.5,0.5-0.7s0.4-0.4,0.5-0.5l0,0c0.1-0.1,0.2-0.2,0.2-0.3
			c0,0,0.1,0,0.2-0.1c0.1,0,0.1-0.1,0.2-0.1c0.2-0.1,0.4-0.2,0.6-0.2c0.1,0,0.1,0,0.2,0s0.1,0,0.2,0c0.5,0,0.8,0.2,0.9,0.5
			c0,0.1,0,0.2,0,0.3c0,0,0,0,0,0.1C69.6,22.5,69.2,22.9,68.8,23.2z"/>
		<path class="st2" d="M102.1,25.4c-1.1-0.2-2.1-0.1-3.1-0.1c-0.5,0.1-1.1,0.1-1.6,0.2c-0.3,0.1-0.5,0.1-0.8,0.2
			c0.4,0.7,0.7,1.3,0.9,2.1c0.2,0.5,0.3,1.1,0.4,1.6c0.1,0.7,0.2,1.4,0.2,2.1c0,0.2,0,0.3-0.1,0.5c0.2,0.1,0.5,0.2,0.7,0.3
			c0.5,0.2,1,0.3,1.5,0.5c2.7,0.8,5.7,1.3,5.7,1.3S103,34,100,33.9c-0.5,0-1-0.1-1.5-0.1c-0.3,0-0.5,0-0.8,0
			c-0.1,0.8-0.4,1.5-0.7,2.2c0,0.1-0.1,0.2-0.1,0.3c-0.3,0.7-0.7,1.3-1.1,2c0.2,0.1,0.4,0.3,0.7,0.4c0.4,0.2,0.9,0.5,1.3,0.7
			c1.1,0.4,2.3,0.7,3.7,0.8h0.1c4.7,0,14-6.5,14-6.5S108.7,26.4,102.1,25.4z M62.8,9.6l4.4,0.2h0.1l2,0.1h0.1l2.2,0.1
			c0-0.1,0-0.1,0.1-0.2L71,9.4l-1.2-0.7L68,7.6l-3.6-2.2l-1.9-1.2c-0.2,0.4-0.5,1-0.7,1.7c0,0.1-0.1,0.3-0.1,0.4
			c-0.1,0.3-0.2,0.6-0.3,0.9c-0.2,0.7-0.4,1.4-0.6,2.2L62.8,9.6z M84.9,16.7l0.8,0.5l0.8,0.5l0.4,0.2l0,0H87h0.1l0,0l0.9,0.7
			l0.2,0.2l0.1,0.1c0,0-0.1,0.2-0.4,0.5c0.3,0,0.6-0.1,0.9-0.1s0.6-0.1,0.8-0.1c0.2,0,0.4-0.1,0.6-0.1h0.2c0.4-0.1,0.8-0.2,1.2-0.2
			c0.2,0,0.4-0.1,0.6-0.2c2.5-0.8,5.9-3,5.9-3s-2.3,2-4.5,3.8c-0.2,0.2-0.5,0.4-0.7,0.5c-0.2,0.2-0.4,0.3-0.6,0.4
			c-0.2,0.2-0.5,0.3-0.7,0.5c1.3,0.7,2.5,1.6,3.5,2.7c0.3-0.1,0.5-0.1,0.8-0.2c0.5-0.2,1-0.4,1.4-0.6c0.5-0.3,1-0.6,1.5-1
			c3-2.5,5-11.9,5-11.9s-8.6-0.4-13.2,2.7c-1,0.7-1.8,1.5-2.5,2.3c-0.3,0.3-0.5,0.7-0.7,1c0,0,0,0.1-0.1,0.1
			c-0.2,0.3-0.3,0.6-0.5,0.8c-0.4-0.1-0.9-0.3-1.4-0.5c-0.2-0.1-0.5-0.2-0.7-0.3c-1.2-0.5-2.7-1-4.2-1.7l3.9,2.3L84.9,16.7z
			 M71.6,9.8L71.6,9.8L71.6,9.8L71.6,9.8z M69.3,10.9H69l0,0h-2.5l-4,0.1h-2.3c-0.1,0.7-0.1,1.3-0.2,2c0,0.1,0,0.1,0,0.2
			c0,0.7,0.1,1.4,0.2,2.1l2.2-0.7l4.4-1.5l2.5-0.8l0.5-0.2l0.8-0.3h0.1l1.3-0.4c-0.1-0.2-0.3-0.4-0.3-0.6h-0.6L69.3,10.9z
			 M71.4,12.2L71.4,12.2l-1.2,0.5l-0.9,0.4l-1.6,0.7l-5,2.1l-2,0.8l-0.1-0.1c0.1,0.4,0.2,0.8,0.4,1.2c0.1,0.3,0.3,0.6,0.5,0.9
			c0,0.1,0.1,0.1,0.1,0.2s0.1,0.1,0.1,0.2c0.1,0.1,0.1,0.2,0.2,0.3c0.2,0.3,0.4,0.5,0.6,0.7c0.1,0.1,0.1,0.2,0.2,0.3
			c0.1,0,0.3,0.1,0.4,0.1c0.2-0.2,0.3-0.4,0.5-0.6c0.3-0.3,0.5-0.6,0.8-0.8c0.1-0.1,0.3-0.2,0.4-0.3c0.6-0.5,1.3-0.9,2-1.3l1.8-1.6
			l0.2-0.2l2.1-1.8l0.2-0.1l0.2-0.2l0.5-0.5l0.4-0.3l0,0l0.2-0.2l0.3-0.3c-0.1-0.1-0.2-0.1-0.3-0.2c-0.1,0-0.1-0.1-0.2-0.1l-0.3,0
			L71.4,12.2z M72.7,13l-0.2,0.2L72,13.7l-0.3,0.4l-0.5,0.6l-0.6,0.7l-0.9,1c0.2,0,0.4-0.1,0.5-0.2C71,16,71.8,16,72.6,16h0.1v-0.1
			l0.3-0.6l0.1-0.4l0.4-0.9l0.1-0.2l0.1-0.3l0.3-0.7h-0.1c-0.2-0.1-0.3-0.1-0.5-0.2c0,0-0.1,0-0.1-0.1l0,0l-0.1,0.2L72.7,13L72.7,13
			z M73.9,13.5l-0.1,0.2l-0.1,0.4l-0.2,0.8l-0.1,0.3l-0.2,0.5L73.1,16c0.6,0,1.1,0.1,1.7,0.2c0.1,0,0.2,0,0.2,0l0-0.8v-0.2L74.8,14
			l0,0v-0.1v-0.3L74.7,13h-0.1c-0.1,0-0.2,0-0.2,0c-0.1,0-0.2,0-0.3-0.1L73.9,13.5L73.9,13.5z M77.2,14.5l0.1,0.1l0.4,0.6l0.1,0.2
			l0.2,0.4l0.7,1l0.9,1.4c0.1,0.1,0.2,0.2,0.3,0.2c0.4,0.3,0.9,0.7,1.3,1.1c0.1,0.1,0.1,0.1,0.2,0.2s0.2,0.3,0.4,0.4
			c0.3-0.1,0.5-0.2,0.8-0.2c0.2-0.1,0.5-0.2,0.7-0.2c0.1,0,0.2,0,0.3-0.1c0.2,0,0.3,0,0.5,0c0.1,0,0.1,0,0.2,0c0.2,0,0.3,0,0.5,0
			s0.4,0,0.5-0.1c0.3-0.3,0.5-0.5,0.7-0.7l0.1-0.1c0.1-0.1,0.2-0.2,0.3-0.3l-0.2-0.1l-1.6-1l-0.1-0.1L84.3,17l-4.6-2.9l-0.8-0.5
			l-1.2-0.8c-0.1-0.1-0.3-0.1-0.4-0.2c-0.2-0.1-0.4-0.2-0.6-0.3c-0.1,0-0.1,0-0.2,0c0,0,0,0-0.1,0s-0.2,0.1-0.5,0.2l0.4,0.5
			L77.2,14.5z M75.2,13.9L75.2,13.9v0.3l0.1,0.9l0.1,0.4l0.1,0.3l0.1,0.5c0.8,0.2,1.6,0.5,2.4,0.9l0,0l0,0l-0.6-1.1l-0.7-1.2l0,0
			l-0.1-0.1l-0.3-0.5L76.1,14l-0.5-1l-0.1-0.2c-0.1,0.1-0.3,0.1-0.4,0.1l0.1,0.6V13.9z M57.6,16.2c0.1,0.5,0.2,1.1,0.3,1.6
			s0.3,1,0.5,1.5c0.1,0.2,0.2,0.5,0.3,0.7c0.2,0,0.4-0.1,0.6-0.1c0.2,0,0.4,0,0.5,0.1c0.2,0,0.3,0,0.5,0c-0.1-0.2-0.3-0.4-0.4-0.7
			c0-0.1,0-0.1-0.1-0.2c-0.1-0.2-0.2-0.4-0.3-0.6c-0.1-0.3-0.3-0.6-0.4-0.9c-0.3-0.7-0.4-1.4-0.6-2.1c-0.1-0.6-0.2-1.2-0.2-1.8
			c0-0.2,0-0.4,0-0.7c0-2.1,0.3-4.2,0.7-5.9c0.2-0.9,0.5-1.6,0.7-2.3c0.5-1.3,0.8-2.1,0.8-2.1l0.2-0.2L61,2.6
			C60.6,2.3,60.3,2,60.3,2S60,2.9,59.6,4c-0.4,0.9-0.8,2.1-1.2,3.5c-0.4,1.5-0.8,3.1-0.9,4.9c0,0.4,0,0.8,0,1.2c0,0.6,0,1.2,0.1,1.8
			C57.5,15.6,57.5,15.9,57.6,16.2z M46.5,33.7c-0.3,0-0.6,0.1-0.9,0.1c-0.2,0-0.4,0-0.6,0c-3.5,0.2-7.6,0.3-7.6,0.3s4.6-0.7,7.4-1.9
			c0.3-0.1,0.7-0.3,1-0.4c0.2-0.1,0.4-0.2,0.6-0.3c0.3-0.2,0.5-0.3,0.8-0.5c0.2-1.7,0.7-3.3,1.5-4.7c-0.2-0.1-0.5-0.2-0.7-0.3
			c-0.5-0.2-1-0.3-1.5-0.4c-1.5-0.4-3.2-0.5-5-0.3c-6.6,1-13.9,8.2-13.9,8.2s9.2,6.6,14,6.5h0.1c1.9,0,3.5-0.6,4.8-1.3
			c0.5-0.2,0.9-0.5,1.3-0.8c0.2-0.2,0.4-0.3,0.6-0.5c-0.6-1.2-1-2.5-1.2-3.9C47,33.6,46.7,33.6,46.5,33.7z M47.9,23.3
			c0.6,0.2,1.1,0.3,1.7,0.3c0.3,0,0.6,0.1,0.9,0.1c0.8-0.8,1.8-1.5,2.8-2.1c-0.3-0.1-0.5-0.3-0.8-0.4c-0.4-0.3-0.9-0.6-1.4-0.9
			c-0.2-0.1-0.4-0.3-0.6-0.4c-2.3-1.9-5.2-4.4-5.2-4.4s4.1,2.6,6.5,3.3c0.5,0.1,1,0.2,1.4,0.3c1,0.2,1.9,0.3,2.7,0.4
			c0.2,0,0.5,0,0.7,0.1c0.4,0,0.7,0.1,0.8,0.1s0.2,0,0.2,0s0-0.1,0-0.2c-0.1-0.3-0.2-0.8-0.5-1.5c-0.2-0.4-0.4-1-0.7-1.5
			c-0.4-0.7-0.8-1.3-1.4-2c-0.6-0.7-1.3-1.5-2.3-2.1c-4.6-3.1-13.2-2.7-13.2-2.7s2,9.4,5,11.9C45.7,22.4,46.8,22.9,47.9,23.3z
			 M65.5,38c-3.1-2.2-5.2-5.8-5.1-9.9c0-0.8,0.1-1.6,0.2-2.3c0.1-0.6,0.3-1.1,0.5-1.6c0-0.1,0.1-0.2,0.1-0.4c0-0.1,0.1-0.3,0.1-0.4
			c0.1-0.2,0.2-0.4,0.3-0.5s0.1-0.3,0.2-0.4c0.1-0.1,0.2-0.3,0.2-0.4s0.1-0.2,0.1-0.2c-0.2,0-0.4-0.1-0.5-0.2c-0.1,0-0.2,0-0.2,0
			c-0.2,0-0.5,0-0.8-0.1c-0.3,0-0.6-0.1-0.9-0.1c-0.1,0-0.1,0-0.2,0c-0.1,0-0.1,0-0.2,0c-0.2,0-0.4,0-0.5,0.1c-0.1,0-0.1,0-0.2,0
			c-0.5,0-1,0.1-1.6,0.2c-0.7,0.2-1.5,0.4-2.1,0.7c-0.7,0.3-1.4,0.7-2,1.2c-0.1,0.1-0.1,0.1-0.2,0.2c-0.2,0.1-0.3,0.3-0.5,0.4
			c-0.3,0.3-0.6,0.6-0.9,0.9c-0.3,0.3-0.5,0.6-0.7,0.9S50.2,26.7,50,27c-0.5,0.9-1,2-1.2,3.1c-0.2,0.7-0.2,1.4-0.2,2.2
			c0,0.4,0.1,0.8,0.1,1.2c0.1,1.1,0.4,2.2,0.8,3.1c0.3,0.7,0.7,1.4,1.2,2c2,2.6,5.1,4.4,8.7,4.4c2.4,0,4.6-0.8,6.4-2.1
			c0.4-0.3,0.9-0.7,1.3-1c0.2-0.2,0.3-0.4,0.5-0.6c-0.2-0.1-0.5-0.2-0.7-0.4C66.3,38.5,65.9,38.3,65.5,38z M55.4,27.3
			c-1.1,1.1-1.5,2-1.6,3.1c-0.1,0.5-0.1,1.1,0,1.8c0.2,0.7,0.2,1.5-0.3,1.9c-0.4,0.3-1.2,0-1.7-0.7c-0.1-0.1-0.2-0.3-0.2-0.5
			c0-0.1,0-0.3-0.1-0.4c-0.4-2.5,0.1-4.4,1.7-6.2c0.2-0.2,0.4-0.4,0.6-0.6c0,0,0-0.1,0.1-0.1l0.1-0.1c0,0,0.1,0,0.1-0.1
			c0.5-0.3,1.1-0.4,1.5-0.3c0.3,0.1,0.5,0.2,0.6,0.5C56.5,26.2,56,26.9,55.4,27.3z M96.7,31.5c0-0.1,0-0.2,0-0.3c0-1-0.2-2-0.5-3
			c0,0,0,0,0-0.1c-0.2-0.7-0.5-1.4-0.9-2c-0.1-0.1-0.1-0.3-0.2-0.4c-0.3-0.5-0.7-1-1.1-1.4c-0.2-0.2-0.4-0.4-0.6-0.6
			c-0.9-0.9-2-1.6-3.2-2.1c-0.3-0.1-0.7-0.2-1.1-0.3c-0.1,0-0.1,0-0.2-0.1c-0.8-0.2-1.6-0.4-2.4-0.4c0,0,0,0-0.1,0
			c-0.2,0-0.3-0.1-0.5-0.1c-0.3,0-0.5,0.1-0.8,0.1s-0.6,0-0.9,0.1h-0.1c-0.2,0-0.3,0.1-0.5,0.1c-0.1,0-0.1,0-0.2,0.1
			c-0.1,0-0.2,0.1-0.3,0.1c-0.1,0-0.2,0.1-0.3,0.1c0,0,0,0,0,0.1s0.1,0.1,0.1,0.2c0.1,0.1,0.1,0.3,0.2,0.4c0.1,0.2,0.2,0.4,0.3,0.6
			c0.1,0.2,0.2,0.3,0.3,0.5c0,0.1,0.1,0.1,0.1,0.2c0.1,0.1,0.1,0.2,0.1,0.3c0.2,0.5,0.3,0.9,0.4,1.4c0,0.1,0.1,0.2,0.1,0.3
			c0.1,0.2,0.1,0.5,0.2,0.7c0,0.2,0,0.5,0.1,0.7c0.1,0.5,0.1,0.9,0.1,1.4c0,3.9-1.9,7.4-4.8,9.6c-0.4,0.3-0.8,0.6-1.3,0.8
			c-0.2,0.1-0.5,0.3-0.7,0.4c0.2,0.2,0.4,0.4,0.6,0.5c0.4,0.4,0.8,0.7,1.3,1c1.7,1.1,3.7,1.8,5.9,1.8c3,0,5.7-1.2,7.6-3.1
			c0.5-0.5,1-1.1,1.4-1.7c0.7-1.1,1.3-2.4,1.6-3.7C96.6,33,96.7,32.3,96.7,31.5z M80.2,35.8c1.1-1.1,2-2.4,2.5-3.9
			c0.4-1.1,0.7-2.3,0.7-3.5c0-0.1,0-0.2,0-0.3c0-0.4-0.1-0.7-0.1-1.1c0-0.3,0-0.6-0.1-0.9c0-0.2-0.1-0.3-0.1-0.5
			c-0.1-0.3-0.2-0.7-0.3-1c-0.1-0.3-0.1-0.5-0.3-0.8c0-0.1-0.1-0.1-0.1-0.1c0-0.1-0.1-0.1-0.1-0.2c-0.2-0.3-0.3-0.7-0.5-1
			c0,0,0-0.1-0.1-0.1c0-0.1-0.1-0.2-0.1-0.2s0,0,0-0.1c-0.1-0.1-0.2-0.2-0.3-0.3c-0.3-0.4-0.6-0.8-0.9-1.1c-0.1-0.1-0.1-0.2-0.2-0.2
			c-0.1-0.1-0.3-0.2-0.4-0.3c-0.1-0.1-0.2-0.2-0.3-0.2c-0.3-0.3-0.6-0.5-1-0.8c-0.1-0.1-0.2-0.1-0.3-0.1c-0.8-0.5-1.6-0.8-2.4-1.1
			l0,0c-0.2-0.1-0.4-0.1-0.6-0.2c-0.1,0-0.2-0.1-0.2-0.1c-0.7-0.1-1.3-0.2-2-0.2c-0.1,0-0.1,0-0.2,0c0,0,0,0-0.1,0
			c-0.2,0-0.3,0-0.5,0.1c-0.2,0-0.3,0-0.5,0c-0.7,0.1-1.4,0.2-2.1,0.4c-0.7,0.2-1.4,0.5-2,0.8c-0.4,0.2-0.9,0.5-1.2,0.8
			c-0.1,0.1-0.2,0.1-0.3,0.2c-0.2,0.1-0.3,0.3-0.5,0.4l0,0c-0.2,0.1-0.4,0.3-0.5,0.4c-0.2,0.2-0.3,0.4-0.5,0.6s-0.3,0.4-0.5,0.6
			c0,0.1-0.1,0.1-0.1,0.2c-0.1,0.1-0.2,0.3-0.3,0.4c0,0,0,0.1-0.1,0.1c-0.1,0.2-0.2,0.4-0.3,0.6c0,0,0,0,0,0.1
			c-0.2,0.3-0.3,0.5-0.5,0.8c-0.1,0.1-0.1,0.3-0.2,0.4v0.1c-0.1,0.2-0.2,0.5-0.2,0.7c-0.2,0.5-0.3,1.1-0.3,1.6
			C62,27.2,62,27.7,62,28.1c0,3.6,1.8,6.8,4.6,8.8c0.4,0.3,0.8,0.5,1.3,0.7c0.2,0.1,0.4,0.3,0.7,0.4c0.5,0.2,0.9,0.3,1.4,0.4
			c0.3,0.1,0.5,0.2,0.8,0.2c0.5,0.1,1.1,0.1,1.6,0.2c0.1,0,0.3,0,0.4,0c0.3,0,0.5-0.1,0.8-0.1c0.5,0,1.1-0.1,1.6-0.2
			c0.3-0.1,0.5-0.2,0.8-0.2c0.5-0.1,1-0.3,1.5-0.5c0.2-0.1,0.5-0.2,0.7-0.4c0.4-0.2,0.8-0.5,1.2-0.8C79.5,36.4,79.8,36.1,80.2,35.8z
			 M68.8,23.2C68.8,23.3,68.7,23.3,68.8,23.2c-0.3,0.3-0.4,0.4-0.5,0.6l-0.1,0.1c-0.2,0.2-0.4,0.5-0.5,0.7s-0.2,0.3-0.2,0.5
			c0,0.1-0.1,0.1-0.1,0.2c-0.1,0.2-0.2,0.4-0.2,0.7c0,0.1,0,0.1,0,0.2c0,0.2-0.1,0.4-0.1,0.6s0,0.5,0.1,0.8c0,0.2,0,0.4,0.1,0.7
			c0.1,0.2,0.1,0.4,0.1,0.6c0,0.1,0,0.2,0,0.4c0,0.4-0.1,0.7-0.4,1c-0.5,0.4-1.6-0.1-1.9-1.2c0-0.2-0.1-0.4-0.1-0.7
			c-0.1-0.6-0.1-1.2-0.1-1.8c0-0.3,0-0.5,0.1-0.7v-0.1c0.1-0.5,0.2-0.9,0.4-1.3l0,0c0,0,0-0.1,0.1-0.1c0.1-0.2,0.2-0.3,0.3-0.5
			c0-0.1,0.1-0.1,0.1-0.2c0.1-0.2,0.2-0.3,0.3-0.5c0.2-0.2,0.3-0.5,0.5-0.7s0.4-0.4,0.5-0.5l0,0c0.1-0.1,0.2-0.2,0.2-0.3
			c0,0,0.1,0,0.2-0.1c0.1,0,0.1-0.1,0.2-0.1c0.2-0.1,0.4-0.2,0.6-0.2c0.1,0,0.1,0,0.2,0s0.1,0,0.2,0c0.5,0,0.8,0.2,0.9,0.5
			c0,0.1,0,0.2,0,0.3c0,0,0,0,0,0.1C69.6,22.5,69.2,22.9,68.8,23.2z"/>
	</g>
</g>
</svg>
