<svg id="Layer_1" data-name="Layer 1" xmlns="http://www.w3.org/2000/svg" viewBox="0 0 81.24 86.51"><defs><style>.cls-1{fill:#39b54a;}.cls-1,.cls-2{stroke:#39b54a;stroke-miterlimit:10;stroke-width:2px;}.cls-2{fill:#fff;}.cls-3{fill:#006837;}</style></defs><title>Diznatys1</title><path class="cls-1" d="M1,45.89A39.62,39.62,0,0,0,40.62,85.51H80.24V45.89A39.62,39.62,0,0,0,1,45.89Z" transform="translate(0 0)"/><path class="cls-2" d="M1.49,40.37A39.37,39.37,0,0,0,40.86,79.75H80.24V40.37a39.38,39.38,0,0,0-78.75,0Z" transform="translate(0 0)"/><path class="cls-3" d="M16.45,47.83v.23a1.65,1.65,0,0,0-.57.08.42.42,0,0,0-.26.26,2.2,2.2,0,0,0-.06.6v5.46a1.28,1.28,0,0,0,.15.77c.1.12.33.17.67.17h.33c0,.29-.05.56-.06.83s0,.46,0,.6a4.75,4.75,0,0,0,0,.72h-.26a3.26,3.26,0,0,0-.35-1.15,1.43,1.43,0,0,0-.62-.6,2.06,2.06,0,0,0-.9-.18H11.88a2,2,0,0,0-.89.18,1.45,1.45,0,0,0-.63.6A3.26,3.26,0,0,0,10,57.55H9.76a7,7,0,0,0,0-.72c0-.14,0-.34,0-.6s0-.54-.07-.83h3.21a1,1,0,0,0,.72-.17,1.18,1.18,0,0,0,.17-.77V49a1.18,1.18,0,0,0-.17-.77.8.8,0,0,0-.59-.17H12.9a.82.82,0,0,0-.37.07.43.43,0,0,0-.21.27,2.39,2.39,0,0,0-.11.6c0,.5-.09,1-.12,1.64s-.1,1.18-.18,1.77a10.24,10.24,0,0,1-.34,1.6A3.11,3.11,0,0,1,11,55.17a1.32,1.32,0,0,1-1,.44V55.4a1.08,1.08,0,0,0,.85-.38,2.73,2.73,0,0,0,.55-1,10.47,10.47,0,0,0,.34-1.48c.08-.56.14-1.14.19-1.74L12,49c0-.39,0-.64-.13-.75a1.14,1.14,0,0,0-.76-.19v-.23l.55,0h.58l.49,0,.48,0,.76,0,.81,0H16Z" transform="translate(0 0)"/><path class="cls-3" d="M20.64,47.83v.23a1.46,1.46,0,0,0-.54.08.36.36,0,0,0-.23.26,2.2,2.2,0,0,0-.06.6v5.46a2.17,2.17,0,0,0,.06.59.36.36,0,0,0,.25.26,1.57,1.57,0,0,0,.52.09v.22l-.75,0H18l-.75,0V55.4a1.64,1.64,0,0,0,.53-.09.38.38,0,0,0,.23-.26,2.17,2.17,0,0,0,.06-.59V49a2.2,2.2,0,0,0-.06-.6.39.39,0,0,0-.24-.26,1.38,1.38,0,0,0-.52-.08v-.23l.75,0h1.9Z" transform="translate(0 0)"/><path class="cls-3" d="M24.38,47.68a3.39,3.39,0,0,1,1.81.44,1.37,1.37,0,0,1,.69,1.22,1.44,1.44,0,0,1-.24.82,2.47,2.47,0,0,1-.62.63,3.89,3.89,0,0,1-.83.44,5.39,5.39,0,0,1-.87.27,5.48,5.48,0,0,1,1.06.13,3.68,3.68,0,0,1,1,.37,2.16,2.16,0,0,1,.7.64,1.55,1.55,0,0,1,.26.89,1.65,1.65,0,0,1-.29,1,2.31,2.31,0,0,1-.78.7,4.07,4.07,0,0,1-1.11.43,5.3,5.3,0,0,1-1.26.15,4.77,4.77,0,0,1-1.08-.12,2.47,2.47,0,0,1-.9-.4,1.91,1.91,0,0,1-.42-.43,1,1,0,0,1-.18-.58.84.84,0,0,1,.27-.66,1,1,0,0,1,.66-.24.88.88,0,0,1,.63.22.93.93,0,0,1,0,1.24,1.24,1.24,0,0,1-.62.34,1.71,1.71,0,0,0,.59.27,2.75,2.75,0,0,0,.86.12A1.94,1.94,0,0,0,25.11,55a2,2,0,0,0,.51-1.46,2.91,2.91,0,0,0-.15-1,1.74,1.74,0,0,0-.49-.72,1.34,1.34,0,0,0-.83-.29l-.23.1a.69.69,0,0,1-.25,0,.32.32,0,0,1-.16,0,.18.18,0,0,1-.07-.15c0-.11.09-.17.26-.17a.93.93,0,0,1,.23,0l.23,0a1.5,1.5,0,0,0,.63-.45,1.79,1.79,0,0,0,.31-.67,3.33,3.33,0,0,0,.09-.78,1.79,1.79,0,0,0-.31-1.18A1.14,1.14,0,0,0,24,48a1.62,1.62,0,0,0-1,.32,2.21,2.21,0,0,0-.63.86,4,4,0,0,0-.25,1.17H21.8V49.19c0-.32,0-.59,0-.8s0-.42,0-.59H22a2.33,2.33,0,0,0,.09.45.2.2,0,0,0,.19.15.51.51,0,0,0,.26-.13L23,48a2.42,2.42,0,0,1,.56-.22A3.62,3.62,0,0,1,24.38,47.68Z" transform="translate(0 0)"/><path class="cls-3" d="M28,55.62V55.4a1.52,1.52,0,0,0,.52-.09.37.37,0,0,0,.24-.26,2.17,2.17,0,0,0,.06-.59V49a2.2,2.2,0,0,0-.06-.6.39.39,0,0,0-.24-.26,1.42,1.42,0,0,0-.52-.08v-.23l.74,0h1.91l.75,0v.23a1.46,1.46,0,0,0-.54.08.39.39,0,0,0-.24.26,2.83,2.83,0,0,0-.05.6v5.46a2.17,2.17,0,0,0,.06.59.37.37,0,0,0,.24.26,1.64,1.64,0,0,0,.53.09v.22l-.75,0H28.74Zm1.86-3.8V51.6H34.2v.22Zm2.8,3.8V55.4a1.64,1.64,0,0,0,.53-.09.39.39,0,0,0,.24-.26,2.67,2.67,0,0,0,.06-.59V49a2.7,2.7,0,0,0-.06-.6.43.43,0,0,0-.25-.26,1.38,1.38,0,0,0-.52-.08v-.23l.78,0h1.9l.72,0v.23a1.4,1.4,0,0,0-.53.08.39.39,0,0,0-.24.26,2.2,2.2,0,0,0-.06.6v5.46a2.17,2.17,0,0,0,.06.59.41.41,0,0,0,.25.26,1.57,1.57,0,0,0,.52.09v.22l-.72,0h-1.9Z" transform="translate(0 0)"/><path class="cls-3" d="M40.47,47.81l2.67,6.89a1.32,1.32,0,0,0,.35.54.61.61,0,0,0,.35.16v.22l-.78,0H41.21l-.72,0V55.4a1,1,0,0,0,.71-.19c.1-.11.08-.36-.07-.73l-1.87-5.12.2-.28-1.67,4.35a3.83,3.83,0,0,0-.31,1.24.63.63,0,0,0,.27.56,1.55,1.55,0,0,0,.71.17v.22l-.7,0H36.64l-.38,0V55.4a1,1,0,0,0,.47-.29,2.65,2.65,0,0,0,.47-.86l2.51-6.44h.76Zm.77,4.65v.21H38l.11-.21Z" transform="translate(0 0)"/><path class="cls-3" d="M50.3,47.83c0,.38,0,.74-.06,1.08s0,.61,0,.8,0,.31,0,.46,0,.27,0,.37H50a5.76,5.76,0,0,0-.45-1.46,1.8,1.8,0,0,0-.64-.77,1.67,1.67,0,0,0-.88-.22h-.25v6.28a1.86,1.86,0,0,0,.09.66.5.5,0,0,0,.34.29,2.76,2.76,0,0,0,.74.08v.22l-.91,0H45.73l-.87,0V55.4a2.79,2.79,0,0,0,.75-.08A.48.48,0,0,0,46,55a1.86,1.86,0,0,0,.09-.66V48.09h-.25a1.69,1.69,0,0,0-.88.22,1.81,1.81,0,0,0-.63.76,6.7,6.7,0,0,0-.47,1.47h-.25a3.46,3.46,0,0,0,0-.37v-.46c0-.19,0-.45,0-.8s0-.7-.06-1.08l1.1,0h4.59Z" transform="translate(0 0)"/><path class="cls-3" d="M54.36,47.83v.23a1.42,1.42,0,0,0-.52.08.39.39,0,0,0-.24.26,2.2,2.2,0,0,0-.06.6v5.46a2.17,2.17,0,0,0,.06.59.37.37,0,0,0,.24.26,1.63,1.63,0,0,0,.52.09v.22l-.74,0H51.71l-.75,0V55.4a1.54,1.54,0,0,0,.53-.09.37.37,0,0,0,.24-.26,2.17,2.17,0,0,0,.06-.59V49a2.2,2.2,0,0,0-.06-.6.39.39,0,0,0-.24-.26,1.44,1.44,0,0,0-.53-.08v-.23l.75,0h1.91Zm2.53.61c0,.15,0,.31,0,.47l-3.67,6.22-.1-.31Zm2.36-.61v.23a1.48,1.48,0,0,0-.53.08.39.39,0,0,0-.24.26,2.2,2.2,0,0,0-.06.6v5.46a2.17,2.17,0,0,0,.06.59.37.37,0,0,0,.24.26,1.7,1.7,0,0,0,.53.09v.22l-.75,0H56.59l-.74,0V55.4a1.57,1.57,0,0,0,.52-.09.37.37,0,0,0,.24-.26,2.17,2.17,0,0,0,.06-.59V49a2.2,2.2,0,0,0-.06-.6.39.39,0,0,0-.24-.26,1.38,1.38,0,0,0-.52-.08v-.23l.74,0H58.5Z" transform="translate(0 0)"/><path class="cls-3" d="M63.89,47.68a2.75,2.75,0,0,1,1.19.22,4,4,0,0,1,.83.5c.15.11.26.12.34,0a1.11,1.11,0,0,0,.16-.6h.25c0,.29,0,.64,0,1s0,1,0,1.63h-.26a5.66,5.66,0,0,0-.14-.87A2.75,2.75,0,0,0,66,49a1.56,1.56,0,0,0-.44-.49,1.67,1.67,0,0,0-.64-.41,2.13,2.13,0,0,0-.76-.13,1.64,1.64,0,0,0-1,.31,2.33,2.33,0,0,0-.68.85,5.29,5.29,0,0,0-.38,1.22,8,8,0,0,0,0,2.81,4.2,4.2,0,0,0,.4,1.21,2.4,2.4,0,0,0,.69.84,1.75,1.75,0,0,0,1,.3,2.12,2.12,0,0,0,.73-.13,1.81,1.81,0,0,0,.63-.41,1.58,1.58,0,0,0,.58-.82,5.9,5.9,0,0,0,.23-1.3h.26c0,.7,0,1.26,0,1.69s0,.79,0,1.08h-.25a1.23,1.23,0,0,0-.15-.59c-.07-.08-.19-.07-.35,0a5.67,5.67,0,0,1-.86.5,2.63,2.63,0,0,1-1.17.22,4.16,4.16,0,0,1-2-.48,3.24,3.24,0,0,1-1.36-1.36A4.46,4.46,0,0,1,60,51.79a4.35,4.35,0,0,1,.5-2.15,3.59,3.59,0,0,1,1.37-1.44A3.85,3.85,0,0,1,63.89,47.68Z" transform="translate(0 0)"/><path class="cls-3" d="M72.41,51.74l0,.19H71.2a.72.72,0,0,0-.53.2,1.38,1.38,0,0,0-.3.55,4.85,4.85,0,0,0-.19.81l-.2,1.1a1.33,1.33,0,0,1-.5.93,1.73,1.73,0,0,1-1,.26,2,2,0,0,1-.81-.15,1.69,1.69,0,0,1-.63-.49l.15-.13a.84.84,0,0,0,.21.18.52.52,0,0,0,.23.07.35.35,0,0,0,.32-.18,2,2,0,0,0,.2-.61l.23-1.14a1.49,1.49,0,0,1,.65-1,3.84,3.84,0,0,1,1.45-.43l.42,0,.55-.05C71.72,51.77,72,51.75,72.41,51.74Zm2.17-3.91v.23a1.44,1.44,0,0,0-.53.08.4.4,0,0,0-.23.26,2.2,2.2,0,0,0-.06.6v5.46a2.17,2.17,0,0,0,.06.59.38.38,0,0,0,.23.26,1.64,1.64,0,0,0,.53.09v.22l-.74,0H71.93l-.75,0V55.4a1.7,1.7,0,0,0,.53-.09.37.37,0,0,0,.24-.26,2.17,2.17,0,0,0,.06-.59V49a1.58,1.58,0,0,0-.13-.76c-.08-.12-.27-.18-.55-.18a1.15,1.15,0,0,0-1.06.47A2.34,2.34,0,0,0,70,49.85a3.45,3.45,0,0,0,.12.94,1.27,1.27,0,0,0,.46.67,1.72,1.72,0,0,0,1,.25h1v.22H71.42a5.38,5.38,0,0,1-2-.3,1.93,1.93,0,0,1-1-.78,2,2,0,0,1-.29-1,1.7,1.7,0,0,1,.76-1.47,4.13,4.13,0,0,1,2.29-.51h2.66Z" transform="translate(0 0)"/><path class="cls-3" d="M34.9,61q0,.48-.06.93c0,.3,0,.53,0,.69s0,.29,0,.42,0,.24,0,.33H34.6a4.15,4.15,0,0,0-.39-1.27,1.5,1.5,0,0,0-.6-.66,1.62,1.62,0,0,0-.81-.19h-.32a1.93,1.93,0,0,0-.49.05.34.34,0,0,0-.22.22,1.94,1.94,0,0,0-.05.51v5.59a1.59,1.59,0,0,0,.12.75c.07.13.24.19.51.19a1.29,1.29,0,0,0,.84-.24,1.37,1.37,0,0,0,.42-.71,4.37,4.37,0,0,0,.12-1.09,4.31,4.31,0,0,0-.13-1.14,1.33,1.33,0,0,0-1.45-1H31v-.22h1.37a5.12,5.12,0,0,1,1.51.2,2.83,2.83,0,0,1,1,.52,2,2,0,0,1,.53.74,2.36,2.36,0,0,1,.17.87,2.1,2.1,0,0,1-1.33,2,4.39,4.39,0,0,1-1.81.31H29.89l-.74,0V68.6a2,2,0,0,0,.52-.08.41.41,0,0,0,.24-.27,2.17,2.17,0,0,0,.06-.59V62.2a2.2,2.2,0,0,0-.06-.6.39.39,0,0,0-.24-.26,1.34,1.34,0,0,0-.52-.08V61l1.28,0h3.38Z" transform="translate(0 0)"/><path class="cls-3" d="M39.67,61v.22a1.44,1.44,0,0,0-.53.08.39.39,0,0,0-.24.26,2.83,2.83,0,0,0,0,.6v5.46a2.17,2.17,0,0,0,.06.59.41.41,0,0,0,.24.27,2,2,0,0,0,.52.08v.22l-.75,0H37l-.75,0V68.6a2,2,0,0,0,.53-.08.41.41,0,0,0,.24-.27,2.17,2.17,0,0,0,.06-.59V62.2a2.2,2.2,0,0,0-.06-.6.39.39,0,0,0-.24-.26,1.44,1.44,0,0,0-.53-.08V61l.75,0h1.9Z" transform="translate(0 0)"/><path class="cls-3" d="M47.62,61v.22a1.62,1.62,0,0,0-.56.08.4.4,0,0,0-.26.26,2.12,2.12,0,0,0-.07.6v5.46a2.1,2.1,0,0,0,.07.59.41.41,0,0,0,.26.27,2.32,2.32,0,0,0,.56.08v.22l-.77,0h-2l-.81,0V68.6a2.84,2.84,0,0,0,.62-.08.42.42,0,0,0,.28-.27,1.73,1.73,0,0,0,.08-.59V62.2a1.11,1.11,0,0,0-.18-.77.76.76,0,0,0-.58-.17h-.08a1,1,0,0,0-.42.07.43.43,0,0,0-.24.27,3.07,3.07,0,0,0-.1.6c0,.51-.09,1.08-.13,1.69s-.1,1.22-.18,1.81a9.32,9.32,0,0,1-.33,1.64,3.05,3.05,0,0,1-.63,1.19,1.29,1.29,0,0,1-1,.45,1.38,1.38,0,0,1-.85-.28.91.91,0,0,1-.36-.75.88.88,0,0,1,.29-.68,1,1,0,0,1,.71-.25.92.92,0,0,1,.59.18.61.61,0,0,1,.23.5.9.9,0,0,1-.25.64,1.34,1.34,0,0,1-.63.37.26.26,0,0,0,.12.05h.15a1.09,1.09,0,0,0,.85-.39,2.73,2.73,0,0,0,.55-1,8.24,8.24,0,0,0,.34-1.51c.08-.56.14-1.16.19-1.78l.12-1.84a1,1,0,0,0-.13-.75,1.14,1.14,0,0,0-.76-.19V61l.55,0h.58l.49,0h1.24l.81,0h1.7Z" transform="translate(0 0)"/><path class="cls-3" d="M51.82,61v.22a1.73,1.73,0,0,0-.59.08.4.4,0,0,0-.26.26,2.12,2.12,0,0,0-.07.6v5.46a1.59,1.59,0,0,0,.12.75c.08.13.25.19.52.19a1.26,1.26,0,0,0,.84-.25,1.32,1.32,0,0,0,.41-.71,3.8,3.8,0,0,0,.13-1.08,4.23,4.23,0,0,0-.14-1.12,1.44,1.44,0,0,0-.47-.76,1.38,1.38,0,0,0-.93-.28H50.19v-.22h1.36a4.94,4.94,0,0,1,1.9.3,2.06,2.06,0,0,1,1,.81,2.15,2.15,0,0,1,.3,1.11,2.63,2.63,0,0,1-.17.92,2.09,2.09,0,0,1-.56.77,2.65,2.65,0,0,1-1,.53,4.67,4.67,0,0,1-1.43.19H49.07l-.74,0V68.6a2,2,0,0,0,.52-.08.41.41,0,0,0,.24-.27,2.17,2.17,0,0,0,.06-.59V62.2a2.2,2.2,0,0,0-.06-.6.39.39,0,0,0-.24-.26,1.38,1.38,0,0,0-.52-.08V61l.74,0h2Z" transform="translate(0 0)"/><path class="cls-3" d="M66.86,61v.22a1.34,1.34,0,0,0-.52.08.39.39,0,0,0-.24.26,2.2,2.2,0,0,0-.06.6v5.46a2.17,2.17,0,0,0,.06.59.41.41,0,0,0,.24.27,2,2,0,0,0,.52.08v.22l-.71,0h-1l-1.07,0h-3l-1.06,0H58l-1.08,0H56l-.71,0V68.6a2,2,0,0,0,.53-.08.41.41,0,0,0,.24-.27,2.17,2.17,0,0,0,.06-.59V62.2a2.2,2.2,0,0,0-.06-.6.38.38,0,0,0-.25-.26,1.38,1.38,0,0,0-.52-.08V61l.75,0h1.84l.7,0v.22a1,1,0,0,0-.45.08.4.4,0,0,0-.21.26,2.29,2.29,0,0,0,0,.6v5.46a1.2,1.2,0,0,0,.16.77c.11.12.35.17.73.17h.56a1,1,0,0,0,.72-.17,1.18,1.18,0,0,0,.17-.77V62.2a2.83,2.83,0,0,0-.05-.6.35.35,0,0,0-.21-.26,1.05,1.05,0,0,0-.46-.08V61l.71,0H62l.7,0v.22a1,1,0,0,0-.45.08.35.35,0,0,0-.21.26,2.29,2.29,0,0,0,0,.6v5.46a1.11,1.11,0,0,0,.18.77,1.09,1.09,0,0,0,.71.17h.56c.37,0,.62,0,.72-.17s.17-.37.17-.77V62.2a2.83,2.83,0,0,0-.05-.6.36.36,0,0,0-.2-.26,1.08,1.08,0,0,0-.46-.08V61l.7,0h1.84Z" transform="translate(0 0)"/><path class="cls-3" d="M73.5,61q0,.48-.06.93c0,.3,0,.53,0,.69s0,.29,0,.42,0,.24,0,.33H73.2a4.27,4.27,0,0,0-.34-1.27,1.44,1.44,0,0,0-.6-.66,1.82,1.82,0,0,0-.86-.19h-.46a1.84,1.84,0,0,0-.48.05.34.34,0,0,0-.22.22,1.58,1.58,0,0,0,0,.51v5.72a1.66,1.66,0,0,0,0,.51.34.34,0,0,0,.22.22,1.84,1.84,0,0,0,.48,0h.54A1.56,1.56,0,0,0,73,67.62a4.81,4.81,0,0,0,.41-1.39h.25c0,.23,0,.54,0,.92,0,.17,0,.41,0,.72s0,.62.07.95l-1.27,0H68.9l-1.29,0V68.6a2,2,0,0,0,.53-.08.41.41,0,0,0,.24-.27,2.17,2.17,0,0,0,.06-.59V62.2a2.2,2.2,0,0,0-.06-.6.38.38,0,0,0-.25-.26,1.38,1.38,0,0,0-.52-.08V61l1.29,0h3.45ZM71.78,64.8V65H69.86V64.8Zm.32-1.45c0,.41,0,.73,0,.95s0,.42,0,.61,0,.38,0,.6,0,.54,0,1h-.25a2.73,2.73,0,0,0-.2-.72,1.31,1.31,0,0,0-.43-.53,1.13,1.13,0,0,0-.71-.2V64.8a1,1,0,0,0,.7-.24,1.8,1.8,0,0,0,.41-.58,4.09,4.09,0,0,0,.2-.63Z" transform="translate(0 0)"/></svg>