<svg id="Layer_1" data-name="Layer 1" xmlns="http://www.w3.org/2000/svg" viewBox="0 0 81.24 86.51"><defs><style>.cls-1{fill:#39b54a;}.cls-1,.cls-2{stroke:#39b54a;stroke-miterlimit:10;stroke-width:2px;}.cls-2{fill:#fff;}.cls-3{fill:#006837;}</style></defs><title>Diznatys_ru1</title><path class="cls-1" d="M1,45.89A39.62,39.62,0,0,0,40.62,85.51H80.24V45.89A39.62,39.62,0,0,0,1,45.89Z" transform="translate(0 0)"/><path class="cls-2" d="M1.49,40.37A39.37,39.37,0,0,0,40.86,79.75H80.24V40.37a39.38,39.38,0,0,0-78.75,0Z" transform="translate(0 0)"/><path class="cls-3" d="M37,47.8V48a1.15,1.15,0,0,0-.48.38,6,6,0,0,0-.56.88l-2.4,4.82-.25.06-3.11-5.47a2,2,0,0,0-.39-.51.7.7,0,0,0-.34-.16V47.8h.41l.55,0h1.09l.66,0h.5V48a.73.73,0,0,0-.49.2c-.12.11-.1.34,0,.68l2,3.55-.46.72,1.52-3.07a3.53,3.53,0,0,0,.43-1.25.68.68,0,0,0-.23-.63,1.22,1.22,0,0,0-.71-.2V47.8l.71,0h1.12Zm-3.42,5.75.21.09-.52,1a4.08,4.08,0,0,1-.25.45,1.73,1.73,0,0,1-.23.29,1,1,0,0,1-.42.25,1.73,1.73,0,0,1-.5.07,1.41,1.41,0,0,1-.89-.26.82.82,0,0,1-.33-.65.79.79,0,0,1,.28-.64,1.09,1.09,0,0,1,.7-.23,1.21,1.21,0,0,1,.68.18.6.6,0,0,1,.26.52.7.7,0,0,1-.21.52,1.4,1.4,0,0,1-.53.31.51.51,0,0,0,.22,0,.79.79,0,0,0,.56-.23,2.1,2.1,0,0,0,.43-.63Z" transform="translate(0 0)"/><path class="cls-3" d="M40.43,47.64a3.39,3.39,0,0,1,1.81.44,1.38,1.38,0,0,1,.69,1.22,1.41,1.41,0,0,1-.24.82,2.47,2.47,0,0,1-.62.63,4.23,4.23,0,0,1-.84.45,6,6,0,0,1-.86.26,5.48,5.48,0,0,1,1.06.13,3.38,3.38,0,0,1,1,.38,2.25,2.25,0,0,1,.7.63,1.56,1.56,0,0,1,.26.9,1.67,1.67,0,0,1-.29,1,2.21,2.21,0,0,1-.78.7,4.2,4.2,0,0,1-1.11.43,5.3,5.3,0,0,1-1.26.15,4.77,4.77,0,0,1-1.08-.12,2.31,2.31,0,0,1-.9-.4,1.72,1.72,0,0,1-.42-.43.94.94,0,0,1-.19-.58.84.84,0,0,1,.28-.66,1,1,0,0,1,.66-.24.9.9,0,0,1,.63.22.86.86,0,0,1,.24.66.82.82,0,0,1-.23.58,1.21,1.21,0,0,1-.62.34,1.84,1.84,0,0,0,.58.28,3.23,3.23,0,0,0,.87.11A1.94,1.94,0,0,0,41.16,55a2,2,0,0,0,.51-1.47,2.71,2.71,0,0,0-.16-1,1.55,1.55,0,0,0-.48-.71,1.29,1.29,0,0,0-.83-.3l-.23.1a.69.69,0,0,1-.25,0,.29.29,0,0,1-.16,0,.15.15,0,0,1-.07-.14c0-.12.09-.18.25-.18l.23,0,.24,0a1.52,1.52,0,0,0,.63-.46,1.72,1.72,0,0,0,.31-.67,3.33,3.33,0,0,0,.09-.78,1.76,1.76,0,0,0-.31-1.17A1.11,1.11,0,0,0,40,48a1.57,1.57,0,0,0-1,.33,2,2,0,0,0-.63.86,3.58,3.58,0,0,0-.25,1.17h-.26V49.15c0-.31,0-.58,0-.8s0-.42,0-.59h.25a1.76,1.76,0,0,0,.09.45.2.2,0,0,0,.19.15.6.6,0,0,0,.26-.12l.46-.29a1.77,1.77,0,0,1,.56-.22A3,3,0,0,1,40.43,47.64Z" transform="translate(0 0)"/><path class="cls-3" d="M44.26,55.59v-.22a2.26,2.26,0,0,0,.53-.09A.39.39,0,0,0,45,55a2.17,2.17,0,0,0,.06-.59V49a2.2,2.2,0,0,0-.06-.6.41.41,0,0,0-.24-.26,1.69,1.69,0,0,0-.53-.08V47.8l.75,0h1.91l.74,0V48a1.69,1.69,0,0,0-.53.08.41.41,0,0,0-.24.26,2.83,2.83,0,0,0,0,.6v5.46a2.17,2.17,0,0,0,.06.59.39.39,0,0,0,.24.27,2.49,2.49,0,0,0,.52.09v.22a7.39,7.39,0,0,0-.74,0H45Q44.56,55.56,44.26,55.59Zm1.86-3.81v-.22h4.35v.22Zm2.81,3.81v-.22a2.48,2.48,0,0,0,.53-.09.4.4,0,0,0,.23-.27,2.17,2.17,0,0,0,.06-.59V49a2.2,2.2,0,0,0-.06-.6.41.41,0,0,0-.24-.26,1.62,1.62,0,0,0-.52-.08V47.8l.77,0h1.91l.72,0V48a1.76,1.76,0,0,0-.54.08.37.37,0,0,0-.23.26,2.2,2.2,0,0,0-.06.6v5.46a2.17,2.17,0,0,0,.06.59.38.38,0,0,0,.25.27,2.37,2.37,0,0,0,.52.09v.22a7.1,7.1,0,0,0-.72,0H49.7C49.39,55.56,49.13,55.57,48.93,55.59Z" transform="translate(0 0)"/><path class="cls-3" d="M57,47.78l2.67,6.88a1.21,1.21,0,0,0,.35.55.68.68,0,0,0,.35.16v.22c-.23,0-.48,0-.78,0H57.7a6.83,6.83,0,0,0-.72,0v-.22a1,1,0,0,0,.71-.2c.1-.11.07-.35-.07-.73l-1.87-5.11L56,49,54.27,53.4a3.93,3.93,0,0,0-.3,1.23.63.63,0,0,0,.27.57,1.85,1.85,0,0,0,.71.17v.22l-.7,0H53.12a2.05,2.05,0,0,0-.37,0v-.22a.93.93,0,0,0,.47-.3,2.65,2.65,0,0,0,.47-.86l2.51-6.43H57Zm.77,4.64v.22H54.45l.11-.22Z" transform="translate(0 0)"/><path class="cls-3" d="M67,47.8q0,.56-.06,1.08c0,.34,0,.6,0,.79s0,.31,0,.46a3.57,3.57,0,0,0,0,.37h-.26A5.53,5.53,0,0,0,66.27,49a1.77,1.77,0,0,0-.64-.76,1.7,1.7,0,0,0-.88-.23h-.26v6.28a1.57,1.57,0,0,0,.1.66.46.46,0,0,0,.34.29,3.15,3.15,0,0,0,.74.09v.22l-.91,0H62.44l-.87,0v-.22a3.17,3.17,0,0,0,.75-.09.48.48,0,0,0,.34-.29,2.09,2.09,0,0,0,.08-.66V48.05H62.5a1.7,1.7,0,0,0-.88.23A1.77,1.77,0,0,0,61,49a6.48,6.48,0,0,0-.46,1.46h-.25c0-.1,0-.22,0-.37v-.46c0-.19,0-.45,0-.79l-.06-1.08,1.1,0h4.59Z" transform="translate(0 0)"/><path class="cls-3" d="M71.38,47.8V48a2,2,0,0,0-.58.08.46.46,0,0,0-.27.26,2.2,2.2,0,0,0-.06.6v5.46a1.59,1.59,0,0,0,.11.75.57.57,0,0,0,.52.2,1.26,1.26,0,0,0,.84-.26,1.33,1.33,0,0,0,.42-.71,4.72,4.72,0,0,0,0-2.2,1.53,1.53,0,0,0-.46-.76,1.48,1.48,0,0,0-.94-.28H69.75V51h1.37a4.65,4.65,0,0,1,1.89.31,2.06,2.06,0,0,1,1,.8,2.16,2.16,0,0,1,.3,1.12,2.38,2.38,0,0,1-.18.91,2,2,0,0,1-.56.77,2.57,2.57,0,0,1-1,.53,4.63,4.63,0,0,1-1.43.19H68.63a7.26,7.26,0,0,0-.74,0v-.22a2.6,2.6,0,0,0,.53-.09.39.39,0,0,0,.24-.27,2.17,2.17,0,0,0,.06-.59V49a2.2,2.2,0,0,0-.06-.6.41.41,0,0,0-.24-.26,1.74,1.74,0,0,0-.53-.08V47.8l.74,0h2Z" transform="translate(0 0)"/><path class="cls-3" d="M29.58,61q0,.48-.06.93c0,.3,0,.53,0,.7s0,.28,0,.41,0,.25,0,.33h-.26a4.24,4.24,0,0,0-.39-1.27,1.5,1.5,0,0,0-.6-.66,1.73,1.73,0,0,0-.81-.19h-.32a1.5,1.5,0,0,0-.49.06.28.28,0,0,0-.21.21,1.6,1.6,0,0,0-.06.51v5.59a1.56,1.56,0,0,0,.12.75c.07.13.24.2.51.2a1.34,1.34,0,0,0,.85-.25,1.38,1.38,0,0,0,.41-.71,4.37,4.37,0,0,0,.12-1.09,4.23,4.23,0,0,0-.13-1.13,1.39,1.39,0,0,0-.48-.76,1.53,1.53,0,0,0-1-.27H25.69v-.21h1.36a5.07,5.07,0,0,1,1.51.2,2.74,2.74,0,0,1,1,.52,1.94,1.94,0,0,1,.54.75,2.35,2.35,0,0,1,.16.87,2.22,2.22,0,0,1-.32,1.15,2.26,2.26,0,0,1-1,.83,4.43,4.43,0,0,1-1.81.31H24.57a7.12,7.12,0,0,0-.74,0v-.22a2.49,2.49,0,0,0,.52-.09.39.39,0,0,0,.24-.27,2.17,2.17,0,0,0,.06-.59V62.16a2.2,2.2,0,0,0-.06-.6.42.42,0,0,0-.23-.26,1.69,1.69,0,0,0-.53-.08V61l1.28,0h3.38Z" transform="translate(0 0)"/><path class="cls-3" d="M35.17,60.84a4.16,4.16,0,0,1,2,.48,3.3,3.3,0,0,1,1.36,1.36,5,5,0,0,1,0,4.3,3.55,3.55,0,0,1-1.38,1.44,3.87,3.87,0,0,1-2,.52,4.27,4.27,0,0,1-2-.47,3.27,3.27,0,0,1-1.36-1.37,4.87,4.87,0,0,1,0-4.3,3.72,3.72,0,0,1,1.37-1.44A3.94,3.94,0,0,1,35.17,60.84Zm-.05.2a1.43,1.43,0,0,0-1.07.5,3.29,3.29,0,0,0-.7,1.36,7.17,7.17,0,0,0-.25,2,6.47,6.47,0,0,0,.28,2,3.19,3.19,0,0,0,.76,1.33,1.45,1.45,0,0,0,1.06.47,1.4,1.4,0,0,0,1.07-.49A3.34,3.34,0,0,0,37,66.88a7.62,7.62,0,0,0,.25-2,6.89,6.89,0,0,0-.28-2,3.33,3.33,0,0,0-.76-1.32A1.52,1.52,0,0,0,35.12,61Z" transform="translate(0 0)"/><path class="cls-3" d="M47.2,61v.22a1.8,1.8,0,0,0-.56.08.42.42,0,0,0-.26.26,1.81,1.81,0,0,0-.07.6v5.46a1.78,1.78,0,0,0,.07.59.39.39,0,0,0,.26.27,2.59,2.59,0,0,0,.56.09v.22c-.2,0-.45,0-.77,0h-2c-.33,0-.6,0-.82,0v-.22a3.61,3.61,0,0,0,.63-.09.42.42,0,0,0,.28-.27,1.78,1.78,0,0,0,.07-.59V62.16c0-.4-.05-.66-.17-.77a.79.79,0,0,0-.59-.17h-.07a1,1,0,0,0-.43.07.48.48,0,0,0-.23.27,2.46,2.46,0,0,0-.1.6c0,.52-.09,1.08-.13,1.69s-.11,1.22-.18,1.82a9.49,9.49,0,0,1-.34,1.64,3,3,0,0,1-.62,1.18,1.42,1.42,0,0,1-1.88.17.9.9,0,0,1-.36-.74.85.85,0,0,1,.29-.68,1,1,0,0,1,.71-.26.92.92,0,0,1,.59.18.61.61,0,0,1,.22.5.92.92,0,0,1-.24.65,1.5,1.5,0,0,1-.64.37l.13,0h.15a1.11,1.11,0,0,0,.85-.38,3,3,0,0,0,.55-1,9.53,9.53,0,0,0,.34-1.52q.12-.84.18-1.77c0-.62.09-1.24.12-1.85a1,1,0,0,0-.12-.75,1.24,1.24,0,0,0-.77-.19V61l.55,0H43a4,4,0,0,0,.49,0h1.23c.23,0,.5,0,.82,0h.6l.61,0Z" transform="translate(0 0)"/><path class="cls-3" d="M51.61,61v.22a2,2,0,0,0-.58.08.42.42,0,0,0-.26.26,1.81,1.81,0,0,0-.07.6v5.46a1.56,1.56,0,0,0,.12.75c.07.13.25.2.52.2a1.21,1.21,0,0,0,.83-.26,1.33,1.33,0,0,0,.42-.71,4.9,4.9,0,0,0,0-2.2,1.54,1.54,0,0,0-.47-.76,1.44,1.44,0,0,0-.94-.28H50v-.21h1.36a4.73,4.73,0,0,1,1.9.31,2,2,0,0,1,1,.81,2.1,2.1,0,0,1,.3,1.11,2.38,2.38,0,0,1-.18.91,2,2,0,0,1-.55.77,2.7,2.7,0,0,1-1,.53,4.59,4.59,0,0,1-1.43.19H48.87a7.12,7.12,0,0,0-.74,0v-.22a2.49,2.49,0,0,0,.52-.09.39.39,0,0,0,.24-.27,2.17,2.17,0,0,0,.06-.59V62.16a2.2,2.2,0,0,0-.06-.6.41.41,0,0,0-.24-.26,1.67,1.67,0,0,0-.52-.08V61l.74,0h2Z" transform="translate(0 0)"/><path class="cls-3" d="M66.88,61v.22a1.69,1.69,0,0,0-.53.08.42.42,0,0,0-.23.26,2.2,2.2,0,0,0-.06.6v5.46a2.17,2.17,0,0,0,.06.59.39.39,0,0,0,.24.27,2.37,2.37,0,0,0,.52.09v.22a6.49,6.49,0,0,0-.71,0h-1l-1.07,0-1,0-.61,0H61.13l-1.06,0-1,0-1,0-1.08,0H56a6.49,6.49,0,0,0-.71,0v-.22a2.48,2.48,0,0,0,.53-.09.4.4,0,0,0,.23-.27,2.17,2.17,0,0,0,.06-.59V62.16a2.2,2.2,0,0,0-.06-.6.41.41,0,0,0-.24-.26,1.62,1.62,0,0,0-.52-.08V61l.75,0h1.83l.71,0v.22a1.21,1.21,0,0,0-.45.08.37.37,0,0,0-.21.26,2.2,2.2,0,0,0-.06.6v5.46a1.24,1.24,0,0,0,.17.78,1.07,1.07,0,0,0,.72.17h.56a1.08,1.08,0,0,0,.73-.17,1.25,1.25,0,0,0,.16-.78V62.16a3,3,0,0,0,0-.6A.43.43,0,0,0,60,61.3a1.23,1.23,0,0,0-.46-.08V61l.71,0H62l.7,0v.22a1.31,1.31,0,0,0-.46.08.43.43,0,0,0-.21.26,2.83,2.83,0,0,0,0,.6v5.46c0,.4.06.66.19.77a1.11,1.11,0,0,0,.7.18h.57a1.07,1.07,0,0,0,.72-.17,1.24,1.24,0,0,0,.17-.78V62.16a2.83,2.83,0,0,0,0-.6.4.4,0,0,0-.21-.26,1.23,1.23,0,0,0-.46-.08V61l.71,0h1.84Z" transform="translate(0 0)"/><path class="cls-3" d="M73.73,61q0,.48-.06.93c0,.3,0,.53,0,.7s0,.28,0,.41a2.63,2.63,0,0,0,0,.33h-.25a4.7,4.7,0,0,0-.34-1.27,1.5,1.5,0,0,0-.6-.66,2,2,0,0,0-.87-.19h-.45a1.5,1.5,0,0,0-.49.06.3.3,0,0,0-.21.21,1.6,1.6,0,0,0-.06.51v5.72a1.6,1.6,0,0,0,.06.51.33.33,0,0,0,.21.22,1.93,1.93,0,0,0,.49,0h.54a1.75,1.75,0,0,0,.87-.21,1.68,1.68,0,0,0,.65-.73,4.86,4.86,0,0,0,.42-1.4h.25c0,.23,0,.54,0,.92,0,.17,0,.41,0,.72s0,.63.06,1q-.56,0-1.26,0H69.14q-.7,0-1.29,0v-.22a2.48,2.48,0,0,0,.53-.09.4.4,0,0,0,.23-.27,2.17,2.17,0,0,0,.06-.59V62.16a2.2,2.2,0,0,0-.06-.6.41.41,0,0,0-.24-.26,1.62,1.62,0,0,0-.52-.08V61l1.29,0h3.44ZM72,64.76V65H70.09v-.22Zm.32-1.45a9.32,9.32,0,0,0,0,1v.61c0,.18,0,.39,0,.6s0,.54.06,1h-.25a2.78,2.78,0,0,0-.21-.71,1.41,1.41,0,0,0-.42-.54,1.2,1.2,0,0,0-.72-.2v-.22a1,1,0,0,0,.71-.24,1.85,1.85,0,0,0,.41-.58,2.8,2.8,0,0,0,.19-.63Z" transform="translate(0 0)"/></svg>