<svg id="Layer_1" data-name="Layer 1" xmlns="http://www.w3.org/2000/svg" viewBox="0 0 81.24 86.51"><defs><style>.cls-1{fill:#39b54a;}.cls-1,.cls-2{stroke:#39b54a;stroke-miterlimit:10;stroke-width:2px;}.cls-2{fill:#fff;}.cls-3{fill:#006837;}</style></defs><title>Diznatys_eng1</title><path class="cls-1" d="M1,45.89A39.62,39.62,0,0,0,40.62,85.51H80.24V45.89A39.62,39.62,0,0,0,1,45.89Z" transform="translate(0 0)"/><path class="cls-2" d="M1.49,40.37A39.37,39.37,0,0,0,40.86,79.75H80.24V40.37a39.38,39.38,0,0,0-78.75,0Z" transform="translate(0 0)"/><path class="cls-3" d="M25.58,47.86c0,.38,0,.73-.06,1.08s0,.61,0,.79,0,.32,0,.46,0,.27,0,.38h-.25a5.85,5.85,0,0,0-.45-1.47,1.7,1.7,0,0,0-.64-.76,1.67,1.67,0,0,0-.88-.23h-.25V54.4a1.76,1.76,0,0,0,.09.65.51.51,0,0,0,.35.3,3.84,3.84,0,0,0,.74.08v.22l-.91,0H21l-.87,0v-.22a4,4,0,0,0,.75-.08.49.49,0,0,0,.34-.3,1.76,1.76,0,0,0,.09-.65V48.11h-.24a1.67,1.67,0,0,0-.88.23,1.77,1.77,0,0,0-.64.76,6,6,0,0,0-.46,1.47h-.26a2.09,2.09,0,0,0,0-.38c0-.14,0-.3,0-.46s0-.45,0-.79,0-.7-.06-1.08l1.11,0h4.59Z" transform="translate(0 0)"/><path class="cls-3" d="M30.45,47.71a4.27,4.27,0,0,1,2,.47,3.36,3.36,0,0,1,1.36,1.36,4.46,4.46,0,0,1,.48,2.15,4.53,4.53,0,0,1-.49,2.16,3.68,3.68,0,0,1-1.38,1.44,3.94,3.94,0,0,1-2,.51,4.15,4.15,0,0,1-2-.47A3.36,3.36,0,0,1,27,54a4.49,4.49,0,0,1-.48-2.15,4.35,4.35,0,0,1,.5-2.15,3.68,3.68,0,0,1,1.37-1.45A3.94,3.94,0,0,1,30.45,47.71Zm0,.2a1.43,1.43,0,0,0-1.08.49,3.29,3.29,0,0,0-.7,1.36,7.2,7.2,0,0,0-.25,2,6.87,6.87,0,0,0,.28,2,3.26,3.26,0,0,0,.76,1.33,1.49,1.49,0,0,0,1.06.47,1.45,1.45,0,0,0,1.08-.5,3.46,3.46,0,0,0,.7-1.37,7.56,7.56,0,0,0,.25-2,6.77,6.77,0,0,0-.28-2,3.26,3.26,0,0,0-.76-1.33A1.5,1.5,0,0,0,30.41,47.91Z" transform="translate(0 0)"/><path class="cls-3" d="M41.65,47.86v.22a2.34,2.34,0,0,0-.57.08.44.44,0,0,0-.26.27,2.2,2.2,0,0,0-.06.6v5.59a1.63,1.63,0,0,0,.05.5.33.33,0,0,0,.19.22,1.28,1.28,0,0,0,.45.06H42a1.54,1.54,0,0,0,.92-.31,2.47,2.47,0,0,0,.69-.87A4,4,0,0,0,44,52.94h.25c0,.25,0,.58,0,1,0,.17,0,.42,0,.74s0,.65.07,1c-.38,0-.8,0-1.27,0H39.47c-.46,0-.89,0-1.29,0v-.22a1.9,1.9,0,0,0,.53-.09.37.37,0,0,0,.24-.26,2.2,2.2,0,0,0,.06-.6V49a2.2,2.2,0,0,0-.06-.6.41.41,0,0,0-.24-.27,2.12,2.12,0,0,0-.53-.08v-.22l.75,0h1.94Z" transform="translate(0 0)"/><path class="cls-3" d="M51,47.86c0,.32,0,.64-.06.94s0,.53,0,.69,0,.29,0,.42,0,.24,0,.33h-.25A3.91,3.91,0,0,0,50.37,49a1.39,1.39,0,0,0-.6-.66,1.79,1.79,0,0,0-.86-.2h-.45a1.46,1.46,0,0,0-.49.06.35.35,0,0,0-.22.21,2.09,2.09,0,0,0,0,.52v5.72a2,2,0,0,0,0,.5.34.34,0,0,0,.22.22,1.46,1.46,0,0,0,.49.06H49a1.75,1.75,0,0,0,.87-.22,1.68,1.68,0,0,0,.65-.73,4.5,4.5,0,0,0,.41-1.4h.26a7.93,7.93,0,0,0,0,.93c0,.17,0,.4,0,.71s0,.63.07,1c-.37,0-.8,0-1.27,0H46.41c-.46,0-.89,0-1.29,0v-.22a1.83,1.83,0,0,0,.53-.09.37.37,0,0,0,.24-.26,2.2,2.2,0,0,0,.06-.6V49a2.2,2.2,0,0,0-.06-.6.41.41,0,0,0-.24-.27,2,2,0,0,0-.53-.08v-.22l1.29,0h3.45C50.29,47.89,50.67,47.88,51,47.86Zm-1.72,3.76v.22H47.37v-.22Zm.32-1.45c0,.42,0,.74,0,1s0,.42,0,.6,0,.39,0,.61,0,.54.06,1h-.26a2.4,2.4,0,0,0-.2-.72,1.31,1.31,0,0,0-.42-.53,1.18,1.18,0,0,0-.72-.21v-.22a1,1,0,0,0,.7-.24,1.5,1.5,0,0,0,.41-.58,2.85,2.85,0,0,0,.2-.63Z" transform="translate(0 0)"/><path class="cls-3" d="M56,47.84l2.67,6.89a1.32,1.32,0,0,0,.35.54.71.71,0,0,0,.35.16v.22c-.22,0-.48,0-.78,0H56.73c-.3,0-.54,0-.72,0v-.22a1.09,1.09,0,0,0,.71-.19c.1-.12.08-.36-.07-.73l-1.87-5.12.2-.29-1.67,4.36a3.43,3.43,0,0,0-.3,1.23.59.59,0,0,0,.27.57,1.63,1.63,0,0,0,.7.17v.22l-.69,0H52.16c-.14,0-.27,0-.38,0v-.22a.93.93,0,0,0,.47-.3,2.54,2.54,0,0,0,.47-.86l2.51-6.43H56Zm.77,4.64v.22H53.48l.11-.22Z" transform="translate(0 0)"/><path class="cls-3" d="M59.66,47.86l.74,0h2.65a4.23,4.23,0,0,1,2.29.5,1.61,1.61,0,0,1,.76,1.42,2,2,0,0,1-.15.75,1.91,1.91,0,0,1-.53.7,2.61,2.61,0,0,1-1,.52,5.64,5.64,0,0,1-1.61.19H61.76v-.22h.94a1.72,1.72,0,0,0,1-.24,1.35,1.35,0,0,0,.46-.66,3.35,3.35,0,0,0,.13-.92A2.54,2.54,0,0,0,64,48.56a1.17,1.17,0,0,0-1.06-.48c-.29,0-.47.06-.55.19a1.44,1.44,0,0,0-.13.76v5.45a2.2,2.2,0,0,0,.06.6.37.37,0,0,0,.24.26,1.82,1.82,0,0,0,.52.09v.22c-.19,0-.44,0-.74,0H60.4c-.31,0-.56,0-.74,0v-.22a1.82,1.82,0,0,0,.52-.09.37.37,0,0,0,.24-.26,2.2,2.2,0,0,0,.06-.6V49a2.2,2.2,0,0,0-.06-.6.41.41,0,0,0-.24-.27,2,2,0,0,0-.52-.08Zm2.07,3.91c.32,0,.59,0,.82,0l.61.06.48,0a3.06,3.06,0,0,1,1.48.43,1.62,1.62,0,0,1,.62,1L66,54.49a2.39,2.39,0,0,0,.21.62.35.35,0,0,0,.32.18.49.49,0,0,0,.24-.08A1,1,0,0,0,67,55l.15.14a1.74,1.74,0,0,1-.63.48,2.09,2.09,0,0,1-.83.15,1.74,1.74,0,0,1-1-.25,1.32,1.32,0,0,1-.5-.93l-.2-1.1a6.09,6.09,0,0,0-.19-.81,1.31,1.31,0,0,0-.3-.55.7.7,0,0,0-.54-.21H61.76Z" transform="translate(0 0)"/><path class="cls-3" d="M74.74,47.86v.22a1.06,1.06,0,0,0-.53.18.7.7,0,0,0-.24.44,4.41,4.41,0,0,0-.06.83v6.14h-.56l-4.77-6.05v4.23a5.3,5.3,0,0,0,.06.92.69.69,0,0,0,.29.47,1.92,1.92,0,0,0,.71.19v.22c-.14,0-.32,0-.55,0H67.94a4.34,4.34,0,0,0-.44,0v-.22a1.25,1.25,0,0,0,.53-.19.71.71,0,0,0,.23-.43,4.48,4.48,0,0,0,.06-.83V49a2.2,2.2,0,0,0-.06-.6.41.41,0,0,0-.24-.27,2,2,0,0,0-.52-.08v-.22l.44,0h1l.44,0,4.26,5.25V49.67a4.37,4.37,0,0,0-.07-.93.66.66,0,0,0-.29-.47,1.6,1.6,0,0,0-.71-.19v-.22l.55,0H74.3Z" transform="translate(0 0)"/><path class="cls-3" d="M50.9,61.06v.22a2,2,0,0,0-.53.08.41.41,0,0,0-.24.27,2.2,2.2,0,0,0-.06.6v5.45a2.2,2.2,0,0,0,.06.6.37.37,0,0,0,.24.26,1.59,1.59,0,0,0,.53.09v.22c-.21,0-.46,0-.78,0H48.18c-.31,0-.56,0-.75,0v-.22a1.88,1.88,0,0,0,.57-.09.4.4,0,0,0,.26-.26,2.12,2.12,0,0,0,.07-.6v-6h.07l-2.73,7.13H45.5l-3-7.08v5.27a5.3,5.3,0,0,0,.06.92.7.7,0,0,0,.3.47,1.86,1.86,0,0,0,.7.19v.22c-.13,0-.32,0-.55,0H41.89c-.18,0-.32,0-.44,0v-.22a1.25,1.25,0,0,0,.53-.19.67.67,0,0,0,.23-.43,4.34,4.34,0,0,0,.07-.83v-5a2.12,2.12,0,0,0-.07-.6.41.41,0,0,0-.24-.27,2,2,0,0,0-.52-.08v-.22l.44,0h1.45l.81,0,2.31,5.58-.28.25,2.21-5.8h1.73Z" transform="translate(0 0)"/><path class="cls-3" d="M55.76,60.91a4.27,4.27,0,0,1,2,.47,3.36,3.36,0,0,1,1.36,1.36,4.46,4.46,0,0,1,.48,2.15,4.53,4.53,0,0,1-.49,2.16,3.68,3.68,0,0,1-1.38,1.44,3.94,3.94,0,0,1-2,.51,4.15,4.15,0,0,1-2-.47,3.3,3.3,0,0,1-1.36-1.36A4.49,4.49,0,0,1,51.87,65a4.35,4.35,0,0,1,.5-2.15,3.68,3.68,0,0,1,1.37-1.45A4,4,0,0,1,55.76,60.91Zm0,.2a1.43,1.43,0,0,0-1.08.49,3.48,3.48,0,0,0-.7,1.36,7.59,7.59,0,0,0-.25,2A6.87,6.87,0,0,0,54,67a3.26,3.26,0,0,0,.76,1.33,1.49,1.49,0,0,0,1.06.47,1.43,1.43,0,0,0,1.08-.5,3.33,3.33,0,0,0,.7-1.37,7.17,7.17,0,0,0,.25-2,6.77,6.77,0,0,0-.28-2,3.26,3.26,0,0,0-.76-1.33A1.48,1.48,0,0,0,55.72,61.11Z" transform="translate(0 0)"/><path class="cls-3" d="M60.62,61.06l.75,0H64a4.25,4.25,0,0,1,2.29.5A1.61,1.61,0,0,1,67.07,63a2,2,0,0,1-.15.75,1.91,1.91,0,0,1-.53.7,2.61,2.61,0,0,1-1,.52,5.68,5.68,0,0,1-1.61.19H62.72v-.22h1a1.67,1.67,0,0,0,1-.24,1.3,1.3,0,0,0,.47-.66,3.36,3.36,0,0,0,.12-.92,2.45,2.45,0,0,0-.31-1.35,1.14,1.14,0,0,0-1.05-.48c-.29,0-.47.06-.56.19a1.58,1.58,0,0,0-.12.76v5.45a2.2,2.2,0,0,0,.06.6.38.38,0,0,0,.23.26,1.64,1.64,0,0,0,.53.09v.22c-.2,0-.45,0-.75,0h-1.9c-.32,0-.56,0-.75,0v-.22a1.59,1.59,0,0,0,.53-.09.37.37,0,0,0,.24-.26,2.2,2.2,0,0,0,.06-.6V62.23a2.2,2.2,0,0,0-.06-.6.41.41,0,0,0-.24-.27,2.12,2.12,0,0,0-.53-.08ZM62.7,65c.32,0,.59,0,.82,0l.61.06.48,0a3,3,0,0,1,1.47.43,1.64,1.64,0,0,1,.63,1L67,67.69a2.06,2.06,0,0,0,.21.62.35.35,0,0,0,.32.18.42.42,0,0,0,.23-.08,1.06,1.06,0,0,0,.21-.18l.15.14a1.77,1.77,0,0,1-.64.48,2,2,0,0,1-.82.15,1.74,1.74,0,0,1-1-.25,1.32,1.32,0,0,1-.51-.93l-.2-1.1a6.2,6.2,0,0,0-.18-.81,1.58,1.58,0,0,0-.3-.55.7.7,0,0,0-.54-.21H62.72Z" transform="translate(0 0)"/><path class="cls-3" d="M74.34,61.06c0,.32,0,.64-.06.94s0,.53,0,.69,0,.29,0,.42,0,.24,0,.33H74a3.91,3.91,0,0,0-.34-1.27,1.39,1.39,0,0,0-.6-.66,1.79,1.79,0,0,0-.86-.2h-.45a1.46,1.46,0,0,0-.49.06.35.35,0,0,0-.22.21,2.09,2.09,0,0,0,0,.52v5.72a2,2,0,0,0,0,.5.34.34,0,0,0,.22.22,1.46,1.46,0,0,0,.49.06h.54a1.75,1.75,0,0,0,.87-.22,1.68,1.68,0,0,0,.65-.73,4.5,4.5,0,0,0,.41-1.4h.26a7.93,7.93,0,0,0,0,.93c0,.17,0,.4,0,.71s0,.63.07,1c-.37,0-.8,0-1.27,0H69.74c-.46,0-.89,0-1.28,0v-.22a1.52,1.52,0,0,0,.52-.09.37.37,0,0,0,.24-.26,2.2,2.2,0,0,0,.06-.6V62.23a2.2,2.2,0,0,0-.06-.6.41.41,0,0,0-.24-.27,2,2,0,0,0-.52-.08v-.22l1.28,0h3.45C73.62,61.09,74,61.08,74.34,61.06Zm-1.72,3.76V65H70.7v-.22Zm.32-1.45c0,.42,0,.74,0,1s0,.42,0,.6,0,.39,0,.61,0,.54.06,1h-.26a2.4,2.4,0,0,0-.2-.72,1.31,1.31,0,0,0-.42-.53,1.18,1.18,0,0,0-.72-.21v-.22a1,1,0,0,0,.7-.24,1.5,1.5,0,0,0,.41-.58,2.85,2.85,0,0,0,.2-.63Z" transform="translate(0 0)"/></svg>