<svg xmlns="http://www.w3.org/2000/svg" xmlns:xlink="http://www.w3.org/1999/xlink" id="Layer_1" x="0px" y="0px" viewBox="0 0 72 72" style="enable-background:new 0 0 72 72;" xml:space="preserve">
<style type="text/css">
	.st0{opacity:0.5;fill:#F4E0C7;enable-background:new    ;}
	.st1{fill:#F4E0C7;}
	.st2{clip-path:url(#SVGID_2_);}
</style>
<circle class="st0" cx="54" cy="53.2" r="1.2"></circle>
<circle class="st0" cx="18" cy="53.2" r="1.2"></circle>
<circle class="st0" cx="54" cy="17.8" r="1.2"></circle>
<circle class="st0" cx="18" cy="17.8" r="1.2"></circle>
<g>
	<path class="st1" d="M31.9,35.9c-0.1,0-0.2,0-0.4,0.1l0,0l0,0l0,0c-0.1,0-0.1,0.1-0.1,0.1C31,36.5,30.9,37,31,37.6v0.1   c0,0,0,0.1,0.1,0.1c0.1,0.2,0.3,0.3,0.4,0.2s0.1-0.3,0.1-0.5s0-0.3,0-0.4c0-0.3,0.1-0.5,0.4-0.7c0.1-0.1,0.3-0.3,0.2-0.4   C32,35.9,32,35.9,31.9,35.9z"></path>
	<path class="st1" d="M35.2,35c0-0.1-0.1-0.1-0.2-0.1c0,0,0,0-0.1,0l0,0h-0.1l0,0l0,0c0,0,0,0-0.1,0.1l0,0l-0.1,0.1   c0,0.1-0.1,0.1-0.1,0.2l-0.1,0.1l0,0c0,0,0,0.1-0.1,0.1l0,0l0,0c0,0.1-0.1,0.2-0.1,0.3l0,0c0,0.1,0,0.1,0,0.2c0,0.1,0,0.3,0,0.4   c0,0.1,0,0.1,0,0.2c0.1,0.3,0.3,0.4,0.5,0.3c0.1,0,0.1-0.1,0.1-0.2v-0.1v-0.1c0-0.1,0-0.1,0-0.2c0-0.1,0-0.1,0-0.2   c0-0.1,0-0.1,0-0.1l0,0c0-0.1,0-0.1,0-0.2l0,0c0,0,0-0.1,0.1-0.1c0-0.1,0.1-0.1,0.1-0.2l0,0l0.1-0.1l0,0c0.1-0.1,0.2-0.2,0.2-0.3   C35.2,35.1,35.2,35.1,35.2,35C35.2,35.1,35.2,35.1,35.2,35z"></path>
	<path class="st1" d="M46.7,37.9c0,0.2-0.1,0.3-0.2,0.4c-0.2,0.2-2.4,1.6-3.6,1.6l0,0c-0.5,0-0.9-0.1-1.2-0.3   c-0.6,0.7-1.5,1.1-2.6,1.1c-0.9,0-1.7-0.3-2.3-0.9C36.5,40,36.2,40,35.9,40c-0.2,0-0.5,0-0.7-0.1c-0.6,0.6-1.5,1-2.5,1   c-1.1,0-2.1-0.6-2.8-1.4c-0.4,0.2-0.9,0.4-1.4,0.4l0,0c-1.3,0-3.4-1.5-3.6-1.7c-0.1-0.1-0.2-0.2-0.2-0.4s0-0.3,0.2-0.4   c0.1-0.1,1.9-1.8,3.6-2.1c0.2,0,0.3,0,0.4,0c-0.8-0.7-1.2-2.7-1.3-3.1c0-0.2,0-0.3,0.1-0.4s0.2-0.2,0.4-0.2c0,0,0.1,0,0.3,0   c0.8,0,2.2,0.1,3.2,0.7c0.1,0.1,0.2,0.1,0.3,0.2c0.1-1.3,0.7-2.3,0.7-2.4c0.1-0.1,0.2-0.2,0.4-0.3c0.2,0,0.3,0,0.4,0.1   c0,0,0,0,0.1,0.1l0.3,0.1c0.1,0,0.2,0.1,0.3,0.3l1.7,1.1h0.1c0.3,0,0.6,0.2,0.8,0.3c0.4,0.2,0.6,0.3,0.7,0.4l0.7,0.4   c0.4,0.2,0.7,0.3,1,0.4c0.2-0.3,0.5-0.6,0.8-0.8c1-0.6,2.4-0.7,3.2-0.7c0.2,0,0.3,0,0.3,0c0.2,0,0.3,0.1,0.4,0.2   c0.1,0.1,0.1,0.3,0.1,0.4c-0.1,0.4-0.5,2.3-1.3,3.1c0.1,0,0.3,0,0.4,0c1.7,0.3,3.5,2,3.6,2.1C46.7,37.6,46.7,37.8,46.7,37.9z    M37.8,33.3l0.9,0.6l0.1,0.1H39l0.2,0.1l0.1,0.1l0,0l0,0l0,0l0,0l0.2,0.2h0.1l0,0c0,0,0,0-0.1,0.1c0.1,0,0.1,0,0.2,0   c0.1,0,0.1,0,0.2,0H40h0.1c0.1,0,0.2,0,0.3-0.1h0.1c0.6-0.2,1.4-0.7,1.4-0.7s-0.6,0.5-1.1,0.9c-0.1,0-0.1,0.1-0.2,0.1l-0.1,0.1   c-0.1,0-0.1,0.1-0.2,0.1c0.3,0.2,0.6,0.4,0.8,0.6c0.1,0,0.1,0,0.2-0.1c0.1,0,0.2-0.1,0.3-0.1c0.1-0.1,0.2-0.1,0.4-0.2   c0.7-0.6,1.2-2.8,1.2-2.8s-2-0.1-3.1,0.6c-0.2,0.2-0.4,0.3-0.6,0.5c-0.1,0.1-0.1,0.2-0.2,0.2l0,0c0,0.1-0.1,0.1-0.1,0.2   c-0.1,0-0.2-0.1-0.3-0.1s-0.1,0-0.2-0.1C38.5,33.6,38.2,33.4,37.8,33.3z M36.7,32.9L36.7,32.9l0.3,0.4l0,0l0.1,0.1v0.1l0.1,0.1   l0.2,0.2l0.2,0.3c0,0,0,0,0.1,0.1s0.2,0.2,0.3,0.3l0,0l0.1,0.1c0.1,0,0.1,0,0.2-0.1c0.1,0,0.1,0,0.2-0.1c0,0,0,0,0.1,0h0.1l0,0h0.1   h0.1c0.1-0.1,0.1-0.1,0.2-0.2l0,0c0,0,0,0,0.1-0.1l0,0L38.7,34l0,0l0,0l-1.1-0.7l-0.2-0.1L37.1,33H37c0,0-0.1,0-0.1-0.1l0,0l0,0   C36.8,32.8,36.8,32.9,36.7,32.9z M36.5,33v0.2v0.1l0,0v0.1v0.2v0.1v0.1v0.1c0.2,0,0.4,0.1,0.6,0.2l0,0l0,0L37,33.7l-0.2-0.3l0,0   l0,0l-0.1-0.1v-0.1L36.5,33L36.5,33C36.6,33,36.5,33,36.5,33z M36.3,33l-0.1,0.2l0,0v0.1v0.1l-0.1,0.2v0.1v0.1l0,0   c0.1,0,0.3,0,0.4,0c0,0,0,0,0.1,0v-0.2v-0.1v-0.3l0,0l0,0v-0.1V33l0,0C36.4,33,36.4,33,36.3,33L36.3,33z M36,32.9L36,32.9L36,32.9   L36,32.9l-0.2,0.2l-0.1,0.1l-0.1,0.1l-0.1,0.2l-0.2,0.2h0.1c0.2,0,0.4-0.1,0.6-0.1l0,0l0,0l0.1-0.2v-0.1l0.1-0.2l0,0V33l0.1-0.2   l0,0C36.2,32.9,36.1,32.9,36,32.9C36.1,32.9,36.1,32.9,36,32.9C36.1,32.9,36.1,32.9,36,32.9L36,32.9z M35.8,32.7L35.8,32.7   l-0.2,0.1l0,0l-0.3,0.1L35.1,33l-0.4,0.2l-1.2,0.5L33,33.9l0,0c0,0.1,0.1,0.2,0.1,0.3s0.1,0.1,0.1,0.2l0,0l0,0c0,0,0,0.1,0.1,0.1   c0,0.1,0.1,0.1,0.1,0.2c0,0,0,0,0.1,0.1h0.1c0-0.1,0.1-0.1,0.1-0.1c0.1-0.1,0.1-0.1,0.2-0.2l0.1-0.1c0.1-0.1,0.3-0.2,0.5-0.3   l0.4-0.4H35l0.5-0.4l0,0h0.1l0.1-0.1l0.1-0.1l0,0l0,0l0.1-0.1C35.9,32.8,35.9,32.8,35.8,32.7C35.9,32.7,35.9,32.7,35.8,32.7z    M35.7,32.2L35.7,32.2L35.7,32.2L35.7,32.2z M35.7,32.5h-0.2h-0.4H35l0,0h-0.6h-0.9H33c0,0.2,0,0.3,0,0.5l0,0c0,0.2,0,0.3,0,0.5   l0.5-0.2l1-0.4l0.6-0.2h0.1l0.2-0.1l0,0L35.7,32.5C35.7,32.6,35.7,32.5,35.7,32.5z M33.2,31.6c-0.1,0.2-0.1,0.3-0.1,0.5h0.5l1,0.1   l0,0h0.5l0,0h0.5l0,0l-0.2-0.1L35.2,32l-0.4-0.3l-0.9-0.5l-0.5-0.3c0,0.1-0.1,0.2-0.2,0.4v0.1C33.2,31.5,33.2,31.6,33.2,31.6z    M32.3,33.1c0,0.1,0,0.3,0,0.4c0,0.1,0,0.1,0,0.2c0,0.1,0,0.3,0.1,0.4c0,0.1,0.1,0.2,0.1,0.4c0,0.1,0,0.1,0.1,0.2   c0.1,0,0.1,0,0.2,0h0.1H33c0-0.1-0.1-0.1-0.1-0.2l0,0c0,0,0-0.1-0.1-0.1c0-0.1-0.1-0.1-0.1-0.2c-0.1-0.2-0.1-0.3-0.1-0.5   c0-0.1,0-0.3,0-0.4c0-0.1,0-0.1,0-0.2c0-0.5,0.1-1,0.2-1.4c0.1-0.2,0.1-0.4,0.2-0.5c0.1-0.3,0.2-0.5,0.2-0.5l0,0h0.1   c-0.1-0.1-0.2-0.1-0.2-0.1S33,30.8,32.9,31s-0.2,0.5-0.3,0.8C32.5,32.1,32.4,32.5,32.3,33.1C32.3,33,32.3,33.1,32.3,33.1z M29.3,35   c0.2,0.2,0.5,0.3,0.8,0.4c0.1,0,0.3,0.1,0.4,0.1s0.1,0,0.2,0c0.2-0.2,0.4-0.4,0.7-0.5c-0.1,0-0.1-0.1-0.2-0.1   c-0.1-0.1-0.2-0.1-0.3-0.2l-0.1-0.1c-0.6-0.4-1.2-1-1.2-1s1,0.6,1.5,0.8c0.1,0,0.2,0,0.3,0.1c0.2,0,0.5,0.1,0.6,0.1s0.1,0,0.2,0   s0.2,0,0.2,0l0,0l0,0c0-0.1,0-0.2-0.1-0.3c0-0.1-0.1-0.2-0.2-0.4c-0.1-0.2-0.2-0.3-0.3-0.5c-0.1-0.2-0.3-0.3-0.5-0.5   c-1.1-0.7-3.1-0.6-3.1-0.6S28.6,34.4,29.3,35z M30.2,38.8c-0.1-0.3-0.2-0.6-0.3-0.9c-0.1,0-0.1,0-0.2,0s-0.1,0-0.2,0h-0.1   c-0.8,0-1.8,0.1-1.8,0.1s1.1-0.2,1.8-0.5c0.1,0,0.2-0.1,0.2-0.1l0.1-0.1c0.1,0,0.1-0.1,0.2-0.1c0-0.4,0.2-0.8,0.3-1.1   c-0.1,0-0.1,0-0.2-0.1c-0.1,0-0.2-0.1-0.4-0.1c-0.3-0.1-0.7-0.1-1.2-0.1c-1.6,0.2-3.3,1.9-3.3,1.9s2.2,1.6,3.3,1.6l0,0   c0.4,0,0.8-0.1,1.1-0.3c0.1-0.1,0.2-0.1,0.3-0.2C30.1,38.9,30.1,38.8,30.2,38.8z M34.7,39.2c-0.1,0-0.1-0.1-0.2-0.1   c-0.1-0.1-0.2-0.1-0.3-0.2c-0.7-0.5-1.2-1.4-1.2-2.3c0-0.2,0-0.4,0.1-0.5c0-0.1,0.1-0.3,0.1-0.4v-0.1v-0.1c0,0,0-0.1,0.1-0.1   c0,0,0-0.1,0.1-0.1c0,0,0-0.1,0.1-0.1c0,0,0,0,0-0.1h-0.1c0,0,0,0-0.1,0s-0.1,0-0.2,0c-0.1,0-0.1,0-0.2,0l0,0c0,0,0,0-0.1,0h-0.1   l0,0c-0.1,0-0.2,0-0.4,0s-0.3,0.1-0.5,0.2c-0.2,0.1-0.3,0.2-0.5,0.3l0,0l-0.1,0.1c-0.1,0.1-0.2,0.1-0.2,0.2   c-0.1,0.1-0.1,0.1-0.2,0.2c-0.1,0.1-0.1,0.1-0.1,0.2c-0.1,0.2-0.2,0.5-0.3,0.7c0,0.2-0.1,0.3-0.1,0.5c0,0.1,0,0.2,0,0.3   c0,0.3,0.1,0.5,0.2,0.7s0.2,0.3,0.3,0.5c0.5,0.6,1.2,1,2.1,1c0.6,0,1.1-0.2,1.5-0.5c0.1-0.1,0.2-0.2,0.3-0.2   C34.6,39.3,34.7,39.2,34.7,39.2z M37.2,38.8c0.1-0.1,0.2-0.1,0.3-0.2c0.1-0.1,0.2-0.1,0.2-0.2c0.3-0.3,0.5-0.6,0.6-0.9   c0.1-0.3,0.2-0.5,0.2-0.8c0,0,0,0,0-0.1s0-0.2,0-0.3s0-0.2,0-0.2V36c0-0.1,0-0.2-0.1-0.2c0-0.1,0-0.1-0.1-0.2l0,0l0,0   c0-0.1-0.1-0.2-0.1-0.2l0,0c0,0,0,0,0-0.1l0,0c0,0,0-0.1-0.1-0.1C38,35.1,38,35,37.9,34.9c0,0,0,0-0.1-0.1c0,0-0.1,0-0.1-0.1   c0,0,0,0-0.1-0.1s-0.2-0.1-0.2-0.2c0,0,0,0-0.1,0c-0.2-0.1-0.4-0.2-0.6-0.3l0,0h-0.1c0,0,0,0-0.1,0c-0.2,0-0.3-0.1-0.5-0.1   c0,0,0,0-0.1,0l0,0h-0.1h-0.1c-0.2,0-0.3,0-0.5,0.1c-0.2,0-0.3,0.1-0.5,0.2c-0.1,0.1-0.2,0.1-0.3,0.2c0,0,0,0-0.1,0l-0.1,0.1l0,0   l-0.1,0.1L34,34.8l-0.1,0.1l0,0c0,0,0,0.1-0.1,0.1l0,0c0,0,0,0.1-0.1,0.1l0,0c0,0.1-0.1,0.1-0.1,0.2v0.1l0,0c0,0.1,0,0.1-0.1,0.2   c0,0.1-0.1,0.3-0.1,0.4c0,0.1,0,0.2,0,0.3c0,0.9,0.4,1.6,1.1,2.1c0.1,0.1,0.2,0.1,0.3,0.2c0.1,0,0.1,0.1,0.2,0.1   c0.1,0,0.2,0.1,0.3,0.1s0.1,0,0.2,0.1c0.1,0,0.3,0,0.4,0H36c0.1,0,0.1,0,0.2,0c0.1,0,0.3,0,0.4,0c0.1,0,0.1,0,0.2-0.1   c0.1,0,0.2-0.1,0.3-0.1C37.1,38.9,37.1,38.8,37.2,38.8z M41.2,38.8c0.2-0.3,0.3-0.6,0.4-0.9c0-0.2,0.1-0.3,0.1-0.5c0,0,0,0,0-0.1   c0-0.2-0.1-0.5-0.1-0.7l0,0c-0.1-0.2-0.1-0.3-0.2-0.5c0,0,0-0.1-0.1-0.1c-0.1-0.1-0.2-0.2-0.3-0.3l-0.1-0.1   c-0.2-0.2-0.5-0.4-0.8-0.5C40,35,39.9,35,39.8,35l0,0c-0.2-0.1-0.4-0.1-0.6-0.1l0,0h-0.1c-0.1,0-0.1,0-0.2,0c-0.1,0-0.2,0-0.2,0   l0,0h-0.1l0,0c0,0,0,0-0.1,0c0,0,0,0-0.1,0l0,0l0,0c0,0,0,0.1,0.1,0.1l0.1,0.1c0,0,0,0.1,0.1,0.1l0,0v0.1c0,0.1,0.1,0.2,0.1,0.3   c0,0,0,0,0,0.1s0,0.1,0,0.2c0,0.1,0,0.1,0,0.2c0,0.1,0,0.2,0,0.3c0,0.9-0.5,1.7-1.1,2.3c-0.1,0.1-0.2,0.1-0.3,0.2   c-0.1,0-0.1,0.1-0.2,0.1l0.1,0.1c0.1,0.1,0.2,0.2,0.3,0.2c0.4,0.3,0.9,0.4,1.4,0.4c0.7,0,1.3-0.3,1.8-0.7   C41,39.1,41.1,38.9,41.2,38.8z M46.2,37.9c0,0-1.7-1.7-3.3-2c-0.3,0-0.5,0-0.7,0c-0.1,0-0.3,0-0.4,0.1c-0.1,0-0.1,0-0.2,0   c0.1,0.2,0.2,0.3,0.2,0.5c0,0.1,0.1,0.3,0.1,0.4c0,0.2,0.1,0.3,0.1,0.5v0.1c0.1,0,0.1,0.1,0.2,0.1c0.1,0,0.2,0.1,0.4,0.1   C43.2,37.9,44,38,44,38s-0.7,0-1.4-0.1c-0.1,0-0.2,0-0.4,0c-0.1,0-0.1,0-0.2,0c0,0.2-0.1,0.3-0.2,0.5c0,0,0,0,0,0.1   c-0.1,0.2-0.2,0.3-0.3,0.5c0,0,0.1,0.1,0.2,0.1c0.1,0.1,0.2,0.1,0.3,0.2c0.3,0.1,0.6,0.2,0.9,0.2l0,0C44,39.4,46.2,37.9,46.2,37.9z   "></path>
</g>
<g>
	<defs>
		<rect id="SVGID_1_" width="72" height="72"></rect>
	</defs>
	<clipPath id="SVGID_2_">
		<use xlink:href="#SVGID_1_" style="overflow:visible;"></use>
	</clipPath>
	<g class="st2">
		<circle class="st0" cx="36" cy="72" r="1.2"></circle>
		<circle class="st0" cx="72" cy="36" r="1.2"></circle>
		<g>
			<path class="st1" d="M68.1,72.4c-0.1,0-0.2,0-0.4,0.1l0,0l0,0l0,0c-0.1,0-0.1,0.1-0.1,0.1c-0.4,0.4-0.5,0.9-0.4,1.5v0.1     c0,0,0,0.1,0.1,0.1c0.1,0.2,0.3,0.3,0.4,0.2c0.1-0.1,0.1-0.3,0.1-0.5s0-0.3,0-0.4c0-0.3,0.1-0.5,0.4-0.7c0.1-0.1,0.3-0.3,0.2-0.4     C68.3,72.4,68.2,72.4,68.1,72.4z"></path>
			<path class="st1" d="M71.4,71.5c0-0.1-0.1-0.1-0.2-0.1c0,0,0,0-0.1,0l0,0H71l0,0l0,0c0,0,0,0-0.1,0.1l0,0l-0.1,0.1     c0,0.1-0.1,0.1-0.1,0.2l-0.1,0.1l0,0c0,0,0,0.1-0.1,0.1l0,0l0,0c0,0.1-0.1,0.2-0.1,0.3l0,0c0,0.1,0,0.1,0,0.2s0,0.3,0,0.4     s0,0.1,0,0.2c0.1,0.3,0.3,0.4,0.5,0.3c0.1,0,0.1-0.1,0.1-0.2v-0.1V73c0-0.1,0-0.1,0-0.2s0-0.1,0-0.2s0-0.1,0-0.1l0,0     c0-0.1,0-0.1,0-0.2l0,0c0,0,0-0.1,0.1-0.1c0-0.1,0.1-0.1,0.1-0.2l0,0l0.1-0.1l0,0c0.1-0.1,0.2-0.2,0.2-0.3     C71.5,71.6,71.4,71.6,71.4,71.5C71.5,71.6,71.5,71.6,71.4,71.5z"></path>
			<path class="st1" d="M83,74.4c0,0.2-0.1,0.3-0.2,0.4c-0.2,0.2-2.4,1.6-3.6,1.6l0,0c-0.5,0-0.9-0.1-1.2-0.3     c-0.6,0.7-1.5,1.1-2.6,1.1c-0.9,0-1.7-0.3-2.3-0.9c-0.3,0.1-0.5,0.1-0.8,0.1c-0.2,0-0.5,0-0.7-0.1c-0.6,0.6-1.5,1-2.5,1     c-1.1,0-2.1-0.6-2.8-1.4c-0.4,0.2-0.9,0.4-1.4,0.4l0,0c-1.3,0-3.4-1.5-3.6-1.7c-0.3,0.1-0.3,0-0.3-0.2s0-0.3,0.2-0.4     c0.1-0.1,1.9-1.8,3.6-2.1c0.2,0,0.3,0,0.4,0c-0.8-0.7-1.2-2.7-1.3-3.1c0-0.2,0-0.3,0.1-0.4c0.1-0.1,0.2-0.2,0.4-0.2     c0,0,0.1,0,0.3,0c0.8,0,2.2,0.1,3.2,0.7c0.1,0.1,0.2,0.1,0.3,0.2c0.1-1.3,0.7-2.3,0.7-2.4c0.1-0.1,0.2-0.2,0.4-0.3     c0.2,0,0.3,0,0.4,0.1c0,0,0,0,0.1,0.1l0.3,0.1c0.1,0,0.2,0.1,0.3,0.3l1.7,1.1h0.1c0.3,0,0.6,0.2,0.8,0.3c0.4,0.2,0.6,0.3,0.7,0.4     l0.7,0.4c0.4,0.2,0.7,0.3,1,0.4c0.2-0.3,0.5-0.6,0.8-0.8c1-0.6,2.4-0.7,3.2-0.7c0.2,0,0.3,0,0.3,0c0.2,0,0.3,0.1,0.4,0.2     s0.1,0.3,0.1,0.4c-0.1,0.4-0.5,2.3-1.3,3.1c0.1,0,0.3,0,0.4,0c1.7,0.3,3.5,2,3.6,2.1C82.9,74.1,83,74.3,83,74.4z M74.1,69.8     l0.9,0.6l0.1,0.1l0.2,0.1l0.2,0.1l0.1,0.1l0,0l0,0l0,0l0,0l0.2,0.2h0.1l0,0c0,0,0,0-0.1,0.1c0.1,0,0.1,0,0.2,0s0.1,0,0.2,0h0.1     h0.1c0.1,0,0.2,0,0.3-0.1h0.1c0.6-0.2,1.4-0.7,1.4-0.7s-0.6,0.5-1.1,0.9c-0.1,0-0.1,0.1-0.2,0.1l-0.1,0.1c-0.1,0-0.1,0.1-0.2,0.1     c0.3,0.2,0.6,0.4,0.8,0.6c0.1,0,0.1,0,0.2-0.1c0.1,0,0.2-0.1,0.3-0.1c0.1-0.1,0.2-0.1,0.4-0.2c0.7-0.6,1.2-2.8,1.2-2.8     s-2-0.1-3.1,0.6c-0.2,0.2-0.4,0.3-0.6,0.5c-0.1,0.1-0.1,0.2-0.2,0.2l0,0c0,0.1-0.1,0.1-0.1,0.2c-0.1,0-0.2-0.1-0.3-0.1     c-0.1,0-0.1,0-0.2-0.1C74.8,70.1,74.4,69.9,74.1,69.8z M73,69.4L73,69.4l0.3,0.4l0,0l0.1,0.1V70l0.1,0.1l0.2,0.2l0.2,0.3     c0,0,0,0,0.1,0.1s0.2,0.2,0.3,0.3l0,0l0.1,0.1c0.1,0,0.1,0,0.2-0.1c0.1,0,0.1,0,0.2-0.1c0,0,0,0,0.1,0H75l0,0h0.1h0.1     c0.1-0.1,0.1-0.1,0.2-0.2l0,0c0,0,0,0,0.1-0.1l0,0L75,70.5l0,0l0,0l-1.1-0.7l-0.2-0.1l-0.3-0.2h-0.1c0,0-0.1,0-0.1-0.1l0,0l0,0     C73.1,69.3,73,69.4,73,69.4z M72.8,69.5v0.2v0.1l0,0v0.1v0.2v0.1v0.1v0.1c0.2,0,0.4,0.1,0.6,0.2l0,0l0,0l-0.1-0.3L73.1,70l0,0     l0,0L73,69.8v-0.1L72.8,69.5L72.8,69.5L72.8,69.5z M72.5,69.5l-0.1,0.2l0,0v0.1v0.1V70v0.1v0.1l0,0c0.1,0,0.3,0,0.4,0     c0,0,0,0,0.1,0V70v-0.1v-0.3l0,0l0,0v-0.1v-0.1l0,0C72.6,69.5,72.6,69.5,72.5,69.5C72.6,69.5,72.5,69.5,72.5,69.5z M72.3,69.4     L72.3,69.4L72.3,69.4L72.3,69.4L72,69.7l-0.1,0.1l-0.1,0.1l-0.1,0.2l-0.2,0.2h0.1c0.2,0,0.4-0.1,0.6-0.1l0,0l0,0l0.1-0.2v-0.1     l0.1-0.2l0,0v-0.1l0.1-0.2l0,0C72.4,69.4,72.4,69.4,72.3,69.4L72.3,69.4L72.3,69.4L72.3,69.4z M72.1,69.2L72.1,69.2l-0.2,0.1l0,0     l-0.3,0.1l-0.2,0.1L71,69.7l-1.2,0.5l-0.5,0.2l0,0c0,0.1,0.1,0.2,0.1,0.3c0,0.1,0.1,0.1,0.1,0.2l0,0l0,0c0,0,0,0.1,0.1,0.1     c0,0.1,0.1,0.1,0.1,0.2c0,0,0,0,0.1,0.1h0.1c0-0.1,0.1-0.1,0.1-0.1c0.1-0.1,0.1-0.1,0.2-0.2l0.1-0.1c0.1-0.1,0.3-0.2,0.5-0.3     l0.4-0.4l0.1-0.1l0.5-0.4l0,0h0.1l0.1-0.1l0.1-0.1l0,0l0,0l0.1-0.1C72.2,69.3,72.2,69.3,72.1,69.2L72.1,69.2z M71.9,68.7     L71.9,68.7L71.9,68.7L71.9,68.7z M71.9,69h-0.2h-0.4h-0.1l0,0h-0.6h-0.9h-0.5c0,0.2,0,0.3,0,0.5l0,0c0,0.2,0,0.3,0,0.5l0.5-0.2     l1-0.4l0.6-0.2h0.1l0.2-0.1l0,0L71.9,69C72,69.1,71.9,69,71.9,69z M69.4,68.1c-0.1,0.2-0.1,0.3-0.1,0.5h0.5l1,0.1l0,0h0.5l0,0     h0.5l0,0l-0.2-0.1l-0.3-0.2L71,68.2l-0.9-0.5l-0.5-0.3c0,0.1-0.1,0.2-0.2,0.4v0.1C69.5,68,69.5,68.1,69.4,68.1z M68.6,69.6     c0,0.1,0,0.3,0,0.4s0,0.1,0,0.2s0,0.3,0.1,0.4c0,0.1,0.1,0.2,0.1,0.4c0,0.1,0,0.1,0.1,0.2c0.1,0,0.1,0,0.2,0h0.1h0.1     c0-0.1-0.1-0.1-0.1-0.2l0,0c0,0,0-0.1-0.1-0.1c0-0.1-0.1-0.1-0.1-0.2c-0.1-0.2-0.1-0.3-0.1-0.5c0-0.1,0-0.3,0-0.4s0-0.1,0-0.2     c0-0.5,0.1-1,0.2-1.4c0.1-0.2,0.1-0.4,0.2-0.5c0.1-0.3,0.2-0.5,0.2-0.5l0,0h0.1c-0.1-0.1-0.2-0.1-0.2-0.1s-0.1,0.2-0.2,0.4     c-0.1,0.2-0.2,0.5-0.3,0.8C68.8,68.6,68.7,69,68.6,69.6C68.6,69.5,68.6,69.6,68.6,69.6z M65.5,71.5c0.2,0.2,0.5,0.3,0.8,0.4     c0.1,0,0.3,0.1,0.4,0.1s0.1,0,0.2,0c0.2-0.2,0.4-0.4,0.7-0.5c-0.1,0-0.1-0.1-0.2-0.1c-0.1-0.1-0.2-0.1-0.3-0.2L67,71.1     c-0.6-0.4-1.2-1-1.2-1s1,0.6,1.5,0.8c0.1,0,0.2,0,0.3,0.1c0.2,0,0.5,0.1,0.6,0.1s0.1,0,0.2,0s0.2,0,0.2,0l0,0l0,0     c0-0.1,0-0.2-0.1-0.3c0-0.1-0.1-0.2-0.2-0.4c-0.1-0.2-0.2-0.3-0.3-0.5c-0.1-0.2-0.3-0.3-0.5-0.5c-1.1-0.7-3.1-0.6-3.1-0.6     S64.8,70.9,65.5,71.5z M66.4,75.3c-0.1-0.3-0.2-0.6-0.3-0.9c-0.1,0-0.1,0-0.2,0s-0.1,0-0.2,0h-0.1c-0.8,0-1.8,0.1-1.8,0.1     s1.1-0.2,1.8-0.5c0.1,0,0.2-0.1,0.2-0.1l0.1-0.1c0.1,0,0.1-0.1,0.2-0.1c0-0.4,0.2-0.8,0.3-1.1c-0.1,0-0.1,0-0.2-0.1     c-0.1,0-0.2-0.1-0.4-0.1c-0.3-0.1-0.7-0.1-1.2-0.1c-1.6,0.2-3.3,1.9-3.3,1.9s2.2,1.6,3.3,1.6l0,0c0.4,0,0.8-0.1,1.1-0.3     c0.1-0.1,0.2-0.1,0.3-0.2C66.3,75.4,66.4,75.3,66.4,75.3z M70.9,75.7c-0.1,0-0.1-0.1-0.2-0.1c-0.1-0.1-0.2-0.1-0.3-0.2     c-0.7-0.5-1.2-1.4-1.2-2.3c0-0.2,0-0.4,0.1-0.5c0-0.1,0.1-0.3,0.1-0.4v-0.1V72c0,0,0-0.1,0.1-0.1c0,0,0-0.1,0.1-0.1     c0,0,0-0.1,0.1-0.1c0,0,0,0,0-0.1h-0.1c0,0,0,0-0.1,0s-0.1,0-0.2,0s-0.1,0-0.2,0l0,0c0,0,0,0-0.1,0h-0.1l0,0c-0.1,0-0.2,0-0.4,0     c-0.2,0-0.3,0.1-0.5,0.2s-0.3,0.2-0.5,0.3l0,0l-0.1,0.1c-0.1,0.1-0.2,0.1-0.2,0.2c-0.1,0.1-0.1,0.1-0.2,0.2s-0.1,0.1-0.1,0.2     c-0.1,0.2-0.2,0.5-0.3,0.7c0,0.2-0.1,0.3-0.1,0.5c0,0.1,0,0.2,0,0.3c0,0.3,0.1,0.5,0.2,0.7s0.2,0.3,0.3,0.5c0.5,0.6,1.2,1,2.1,1     c0.6,0,1.1-0.2,1.5-0.5C70.7,75.9,70.8,75.8,70.9,75.7C70.9,75.8,70.9,75.7,70.9,75.7z M73.4,75.3c0.1-0.1,0.2-0.1,0.3-0.2     c0.1-0.1,0.2-0.1,0.2-0.2c0.3-0.3,0.5-0.6,0.6-0.9s0.2-0.5,0.2-0.8c0,0,0,0,0-0.1s0-0.2,0-0.3c0-0.1,0-0.2,0-0.2v-0.1     c0-0.1,0-0.2-0.1-0.2c0-0.1,0-0.1-0.1-0.2l0,0l0,0c0-0.1-0.1-0.2-0.1-0.2l0,0c0,0,0,0,0-0.1l0,0c0,0,0-0.1-0.1-0.1     c-0.1-0.1-0.1-0.2-0.2-0.3c0,0,0,0-0.1-0.1c0,0-0.1,0-0.1-0.1c0,0,0,0-0.1-0.1s-0.2-0.1-0.2-0.2c0,0,0,0-0.1,0     c-0.2-0.1-0.4-0.2-0.6-0.3l0,0h-0.1c0,0,0,0-0.1,0c-0.2,0-0.3-0.1-0.5-0.1c0,0,0,0-0.1,0l0,0H72h-0.1c-0.2,0-0.3,0-0.5,0.1     c-0.2,0-0.3,0.1-0.5,0.2c-0.1,0.1-0.2,0.1-0.3,0.2c0,0,0,0-0.1,0l-0.1,0.1l0,0l-0.1,0.1l-0.1,0.1l-0.1,0.1l0,0c0,0,0,0.1-0.1,0.1     l0,0c0,0,0,0.1-0.1,0.1l0,0c0,0.1-0.1,0.1-0.1,0.2v0.1l0,0c0,0.1,0,0.1-0.1,0.2c0,0.1-0.1,0.3-0.1,0.4s0,0.2,0,0.3     c0,0.9,0.4,1.6,1.1,2.1c0.1,0.1,0.2,0.1,0.3,0.2c0.1,0,0.1,0.1,0.2,0.1s0.2,0.1,0.3,0.1c0.1,0,0.1,0,0.2,0.1c0.1,0,0.3,0,0.4,0     h0.1c0.1,0,0.1,0,0.2,0s0.3,0,0.4,0s0.1,0,0.2-0.1c0.1,0,0.2-0.1,0.3-0.1C73.3,75.4,73.4,75.3,73.4,75.3z M77.5,75.3     c0.2-0.3,0.3-0.6,0.4-0.9c0-0.2,0.1-0.3,0.1-0.5c0,0,0,0,0-0.1c0-0.2-0.1-0.5-0.1-0.7l0,0c-0.1-0.2-0.1-0.3-0.2-0.5     c0,0,0-0.1-0.1-0.1c-0.1-0.1-0.2-0.2-0.3-0.3l-0.1-0.1c-0.2-0.2-0.5-0.4-0.8-0.5c-0.1,0-0.2-0.1-0.3-0.1l0,0     c-0.2-0.1-0.4-0.1-0.6-0.1l0,0h-0.1c-0.1,0-0.1,0-0.2,0s-0.2,0-0.2,0l0,0h-0.1l0,0c0,0,0,0-0.1,0c0,0,0,0-0.1,0l0,0l0,0     c0,0,0,0.1,0.1,0.1l0.1,0.1c0,0,0,0.1,0.1,0.1l0,0v0.1c0,0.1,0.1,0.2,0.1,0.3c0,0,0,0,0,0.1s0,0.1,0,0.2s0,0.1,0,0.2s0,0.2,0,0.3     c0,0.9-0.5,1.7-1.1,2.3c-0.1,0.1-0.2,0.1-0.3,0.2c-0.1,0-0.1,0.1-0.2,0.1l0.1,0.1c0.1,0.1,0.2,0.2,0.3,0.2     c0.4,0.3,0.9,0.4,1.4,0.4c0.7,0,1.3-0.3,1.8-0.7C77.2,75.6,77.4,75.4,77.5,75.3z M82.4,74.4c0,0-1.7-1.7-3.3-2     c-0.3,0-0.5,0-0.7,0c-0.1,0-0.3,0-0.4,0.1c-0.1,0-0.1,0-0.2,0c0.1,0.2,0.2,0.3,0.2,0.5c0,0.1,0.1,0.3,0.1,0.4     c0,0.2,0.1,0.3,0.1,0.5V74c0.1,0,0.1,0.1,0.2,0.1s0.2,0.1,0.4,0.1c0.6,0.2,1.4,0.3,1.4,0.3s-0.7,0-1.4-0.1c-0.1,0-0.2,0-0.4,0     c-0.1,0-0.1,0-0.2,0c0,0.2-0.1,0.3-0.2,0.5c0,0,0,0,0,0.1c-0.1,0.2-0.2,0.3-0.3,0.5c0,0,0.1,0.1,0.2,0.1c0.1,0.1,0.2,0.1,0.3,0.2     c0.3,0.1,0.6,0.2,0.9,0.2l0,0C80.2,75.9,82.4,74.4,82.4,74.4z"></path>
		</g>
		<circle class="st0" cx="0" cy="36" r="1.2"></circle>
		<g>
			<path class="st1" d="M11,74.4c0,0.2-0.1,0.3-0.2,0.4c-0.2,0.2-2.4,1.6-3.6,1.6l0,0c-0.5,0-0.9-0.1-1.2-0.3     c-0.6,0.7-1.5,1.1-2.6,1.1c-0.9,0-1.7-0.3-2.3-0.9c-0.3,0.1-0.5,0.1-0.8,0.1c-0.2,0-0.5,0-0.7-0.1c-0.6,0.6-1.5,1-2.5,1     c-1.1,0-2.1-0.6-2.8-1.4c-0.4,0.2-0.9,0.4-1.4,0.4l0,0c-1.3,0-3.4-1.5-3.6-1.7c-0.1-0.1-0.2-0.2-0.2-0.4c0-0.2,0-0.3,0.2-0.4     c0.1-0.1,1.9-1.8,3.6-2.1c0.2,0,0.3,0,0.4,0C-7.5,71-7.9,69-8,68.6c0-0.2,0-0.3,0.1-0.4S-7.7,68-7.5,68c0,0,0.1,0,0.3,0     c0.8,0,2.2,0.1,3.2,0.7C-4.1,69-4,69-3.9,69.1c0.1-1.3,0.7-2.3,0.7-2.4c0.1-0.1,0.2-0.2,0.4-0.3c0.2,0,0.3,0,0.4,0.1     c0,0,0,0,0.1,0.1l0.3,0.1c0.1,0,0.2,0.1,0.3,0.3L0,68.1h0.1c0.3,0,0.6,0.2,0.8,0.3c0.4,0.2,0.6,0.3,0.7,0.4l0.7,0.4     c0.4,0.2,0.7,0.3,1,0.4c0.2-0.3,0.5-0.6,0.8-0.8c1-0.6,2.4-0.7,3.2-0.7c0.2,0,0.3,0,0.3,0c0.2,0,0.3,0.1,0.4,0.2     c0.1,0.1,0.1,0.3,0.1,0.4C8,69.1,7.6,71,6.8,71.8c0.1,0,0.3,0,0.4,0c1.7,0.3,3.5,2,3.6,2.1C10.9,74.1,11,74.3,11,74.4z M2.1,69.8     L3,70.3l0.1,0.1l0.2,0.1l0.2,0.1l0.1,0.1l0,0l0,0l0,0l0,0l0.2,0.2h0.1l0,0c0,0,0,0-0.1,0.1c0.1,0,0.1,0,0.2,0c0.1,0,0.1,0,0.2,0     h0.1h0.1c0.1,0,0.2,0,0.3-0.1h0.1c0.6-0.2,1.4-0.7,1.4-0.7S5.7,70.6,5.1,71L5,71.1l-0.1,0.1c-0.1,0-0.1,0.1-0.2,0.1     C5,71.5,5.3,71.7,5.5,72c0.1,0,0.1,0,0.2-0.1c0.1,0,0.2-0.1,0.3-0.1c0.1-0.1,0.2-0.1,0.4-0.2c0.7-0.6,1.2-2.8,1.2-2.8     s-2-0.1-3.1,0.6c-0.2,0.2-0.4,0.3-0.6,0.5c-0.1,0.1-0.1,0.2-0.2,0.2l0,0c0,0.1-0.1,0.1-0.1,0.2c-0.1,0-0.2-0.1-0.3-0.1     s-0.1,0-0.2-0.1C2.8,70.1,2.4,69.9,2.1,69.8z M1,69.4L1,69.4l0.2,0.4l0,0L1.4,70v0.1l0.1,0.1l0.2,0.2l0.2,0.3c0,0,0,0,0.1,0.1     c0,0.1,0.1,0.1,0.2,0.2l0,0l0.1,0.1c0.1,0,0.1,0,0.2-0.1c0.1,0,0.1,0,0.2-0.1c0,0,0,0,0.1,0h0.1l0,0C3,71,3,71,3,71h0.1     c0.1-0.1,0.1-0.1,0.2-0.2l0,0c0,0,0,0,0.1-0.1l0,0L3,70.5l0,0l0,0l-1.1-0.7l-0.2-0.1l-0.3-0.2H1.3c0,0-0.1,0-0.1-0.1l0,0l0,0     C1.1,69.3,1,69.4,1,69.4z M0.8,69.5v0.2v0.1l0,0v0.1v0.2v0.1v0.1v0.1c0.2,0,0.4,0.1,0.6,0.2l0,0l0,0l-0.1-0.3L1.1,70l0,0l0,0     L1,69.8v-0.1L0.8,69.5L0.8,69.5L0.8,69.5z M0.5,69.5l-0.1,0.2l0,0v0.1v0.1V70v0.1v0.1l0,0c0.1,0,0.3,0,0.4,0c0,0,0,0,0.1,0V70     v-0.1v-0.3l0,0l0,0v-0.1v-0.1l0,0C0.6,69.5,0.6,69.5,0.5,69.5C0.6,69.5,0.5,69.5,0.5,69.5z M0.3,69.4L0.3,69.4L0.3,69.4L0.3,69.4     L0,69.7l-0.1,0.1l-0.1,0.1l-0.1,0.2l-0.2,0.2h0.1c0.2,0,0.4-0.1,0.6-0.1l0,0l0,0L0.3,70v-0.1l0.1-0.2l0,0v-0.1l0.1-0.2l0,0     C0.4,69.4,0.4,69.4,0.3,69.4L0.3,69.4L0.3,69.4L0.3,69.4z M0.1,69.2L0.1,69.2l-0.2,0.1l0,0l-0.3,0.1l-0.2,0.1L-1,69.7l-1.2,0.5     l-0.5,0.2l0,0c0,0.1,0.1,0.2,0.1,0.3c0,0.1,0.1,0.1,0.1,0.2l0,0l0,0c0,0,0,0.1,0.1,0.1c0,0.1,0.1,0.1,0.1,0.2c0,0,0,0,0.1,0.1     h0.1c0-0.1,0.1-0.1,0.1-0.1c0.1-0.1,0.1-0.1,0.2-0.2l0.1-0.1c0.1-0.1,0.3-0.2,0.5-0.3l0.4-0.4l0.1-0.1l0.5-0.4l0,0h0.1L0,69.5     l0.1-0.1l0,0l0,0l0.1-0.1C0.2,69.3,0.2,69.3,0.1,69.2L0.1,69.2z M-0.1,68.7L-0.1,68.7L-0.1,68.7L-0.1,68.7z M-0.1,69h-0.2h-0.4     h-0.1l0,0h-0.6h-0.9h-0.5c0,0.2,0,0.3,0,0.5l0,0c0,0.2,0,0.3,0,0.5l0.5-0.2l1-0.4l0.6-0.2h0.1l0.2-0.1l0,0H0L-0.1,69z M-2.6,68.1     c-0.1,0.2-0.1,0.3-0.1,0.5h0.5l1,0.1l0,0h0.5l0,0h0.5l0,0l-0.2-0.1l-0.3-0.2L-1,68.2l-0.9-0.5l-0.5-0.3c0,0.1-0.1,0.2-0.2,0.4     v0.1C-2.5,68-2.5,68.1-2.6,68.1z M-3.4,69.6c0,0.1,0,0.3,0,0.4s0,0.1,0,0.2s0,0.3,0.1,0.4c0,0.1,0.1,0.2,0.1,0.4     c0,0.1,0,0.1,0.1,0.2c0.1,0,0.1,0,0.2,0h0.1h0.1c0-0.1-0.1-0.1-0.1-0.2l0,0c0,0,0-0.1-0.1-0.1c0-0.1-0.1-0.1-0.1-0.2     c-0.1-0.2-0.1-0.3-0.1-0.5c0-0.1,0-0.3,0-0.4s0-0.1,0-0.2c0-0.5,0.1-1,0.2-1.4c0.1-0.2,0.1-0.4,0.2-0.5c0.1-0.3,0.2-0.5,0.2-0.5     l0,0h0.1c-0.1-0.1-0.2-0.1-0.2-0.1s-0.1,0.2-0.2,0.4C-2.9,67.7-3,68-3.1,68.3S-3.3,69-3.4,69.6C-3.4,69.5-3.4,69.6-3.4,69.6z      M-6.5,71.5c0.2,0.2,0.5,0.3,0.8,0.4c0.1,0,0.3,0.1,0.4,0.1s0.1,0,0.2,0c0.2-0.2,0.4-0.4,0.7-0.5c-0.1,0-0.1-0.1-0.2-0.1     c-0.1-0.1-0.2-0.1-0.3-0.2L-5,71.1c-0.6-0.4-1.2-1-1.2-1s1,0.6,1.5,0.8c0.1,0,0.2,0,0.3,0.1c0.2,0,0.5,0.1,0.6,0.1s0.1,0,0.2,0     c0.1,0,0.2,0,0.2,0l0,0l0,0c0-0.1,0-0.2-0.1-0.3c0-0.1-0.1-0.2-0.2-0.4c0-0.3-0.1-0.4-0.3-0.6c-0.1-0.2-0.3-0.3-0.5-0.5     c-1.1-0.7-3.1-0.6-3.1-0.6S-7.2,70.9-6.5,71.5z M-5.6,75.3c-0.1-0.3-0.2-0.6-0.3-0.9c-0.1,0-0.1,0-0.2,0s-0.1,0-0.2,0h-0.1     c-0.8,0-1.8,0.1-1.8,0.1s1.1-0.2,1.8-0.5c0.1,0,0.2-0.1,0.2-0.1l0.1-0.1c0.1,0,0.1-0.1,0.2-0.1c0-0.4,0.2-0.8,0.3-1.1     c-0.1,0-0.1,0-0.2-0.1c-0.1,0-0.2-0.1-0.4-0.1c-0.3-0.1-0.7-0.1-1.2-0.1c-1.6,0.2-3.3,1.9-3.3,1.9s2.2,1.6,3.3,1.6l0,0     c0.4,0,0.8-0.1,1.1-0.3c0.1-0.1,0.2-0.1,0.3-0.2C-5.7,75.4-5.6,75.3-5.6,75.3z M-1.1,75.7c-0.1,0-0.1-0.1-0.2-0.1     c-0.1-0.1-0.2-0.1-0.3-0.2c-0.7-0.5-1.2-1.4-1.2-2.3c0-0.2,0-0.4,0.1-0.5c0-0.1,0.1-0.3,0.1-0.4v-0.1V72c0,0,0-0.1,0.1-0.1     c0,0,0-0.1,0.1-0.1c0,0,0-0.1,0.1-0.1c0,0,0,0,0-0.1h-0.1c0,0,0,0-0.1,0s-0.1,0-0.2,0c-0.1,0-0.1,0-0.2,0l0,0c0,0,0,0-0.1,0h-0.1     l0,0c-0.1,0-0.2,0-0.4,0s-0.3,0.1-0.5,0.2c-0.2,0.1-0.3,0.2-0.5,0.3l0,0l-0.1,0.1c-0.1,0.1-0.2,0.1-0.2,0.2     c-0.2,0-0.2,0.1-0.3,0.2s-0.1,0.1-0.1,0.2c-0.1,0.2-0.2,0.5-0.3,0.7c0,0.2-0.1,0.3-0.1,0.5c0,0.1,0,0.2,0,0.3     c0,0.3,0.1,0.5,0.2,0.7s0.2,0.3,0.3,0.5c0.5,0.6,1.2,1,2.1,1c0.6,0,1.1-0.2,1.5-0.5c0.1-0.1,0.2-0.2,0.3-0.2     C-1.1,75.8-1.1,75.7-1.1,75.7z M1.4,75.3c0.1-0.1,0.2-0.1,0.3-0.2C1.8,75,1.9,75,2,74.9c0.3-0.3,0.5-0.6,0.6-0.9s0.2-0.5,0.2-0.8     c0,0,0,0,0-0.1s0-0.2,0-0.3c0-0.1,0-0.2,0-0.2v-0.1c0-0.1,0-0.2-0.1-0.2c0-0.1,0-0.1-0.1-0.2l0,0l0,0c0-0.1-0.1-0.2-0.1-0.2l0,0     c0,0,0,0,0-0.1l0,0c0,0,0-0.1-0.1-0.1c-0.1-0.1-0.1-0.2-0.2-0.3c0,0,0,0-0.1-0.1c0,0-0.1,0-0.1-0.1c0,0,0,0-0.1-0.1     c-0.2,0-0.2-0.1-0.3-0.1c0,0,0,0-0.1,0c-0.2-0.1-0.4-0.2-0.6-0.3l0,0H0.8c0,0,0,0-0.1,0c-0.2,0-0.3-0.1-0.5-0.1c0,0,0,0-0.1,0     l0,0H0h-0.1c-0.2,0-0.3,0-0.5,0.1c-0.2,0-0.3,0.1-0.5,0.2c0,0-0.1,0.1-0.2,0.1c0,0,0,0-0.1,0l-0.1,0.1l0,0l-0.1,0.1l-0.1,0.1     l-0.1,0.1l0,0c0,0,0,0.1-0.1,0.1l0,0c0,0,0,0.1-0.1,0.1l0,0c0,0.1-0.1,0.1-0.1,0.2v0.1l0,0c0,0.1,0,0.1-0.1,0.2     c0,0.1-0.1,0.3-0.1,0.4s0,0.2,0,0.3c0,0.9,0.4,1.6,1.1,2.1C-1.1,75-1,75-0.9,75.1c0.1,0,0.1,0.1,0.2,0.1s0.2,0.1,0.3,0.1     s0.1,0,0.2,0.1c0.1,0,0.3,0,0.4,0h0.1c0.1,0,0.1,0,0.2,0s0.3,0,0.4,0s0.1,0,0.2-0.1c0.1,0,0.2-0.1,0.3-0.1     C1.3,75.4,1.4,75.3,1.4,75.3z M5.5,75.3c0.2-0.3,0.3-0.6,0.4-0.9c0-0.2,0.1-0.3,0.1-0.5c0,0,0,0,0-0.1c0-0.2-0.1-0.5-0.1-0.7l0,0     c-0.1-0.2-0.1-0.3-0.2-0.5c0,0,0-0.1-0.1-0.1c-0.1-0.1-0.2-0.2-0.3-0.3l-0.1-0.1c-0.2-0.2-0.5-0.4-0.8-0.5     c-0.1,0-0.2-0.1-0.3-0.1l0,0c-0.2-0.1-0.4-0.1-0.6-0.1l0,0H3.4c-0.1,0-0.1,0-0.2,0c-0.1,0-0.2,0-0.2,0l0,0H2.9l0,0c0,0,0,0-0.1,0     c0,0,0,0-0.1,0l0,0l0,0c0,0,0,0.1,0.1,0.1l0.1,0.1c0,0,0,0.1,0.1,0.1l0,0v0.1c0,0.1,0.1,0.2,0.1,0.3c0,0,0,0,0,0.1s0,0.1,0,0.2     s0,0.1,0,0.2s0,0.2,0,0.3c0,0.9-0.5,1.7-1.1,2.3c-0.1,0.1-0.2,0.1-0.3,0.2c-0.1,0-0.1,0.1-0.2,0.1l0.1,0.1     C1.7,75.9,1.8,76,1.9,76c0.4,0.3,0.9,0.4,1.4,0.4c0.7,0,1.3-0.3,1.8-0.7C5.2,75.6,5.4,75.4,5.5,75.3z M10.4,74.4     c0,0-1.7-1.7-3.3-2c-0.3,0-0.5,0-0.7,0c-0.1,0-0.3,0-0.4,0.1c-0.1,0-0.1,0-0.2,0C5.9,72.7,6,72.8,6.1,73c0,0.1,0.1,0.3,0.1,0.4     c0,0.2,0.1,0.3,0.1,0.5V74c0.1,0,0.1,0.1,0.2,0.1s0.2,0.1,0.4,0.1c0.6,0.2,1.4,0.3,1.4,0.3s-0.7,0-1.4-0.1c-0.1,0-0.2,0-0.4,0     c-0.1,0-0.1,0-0.2,0c0,0.2-0.1,0.3-0.2,0.5c0,0,0,0,0,0.1c-0.1,0.2-0.2,0.3-0.3,0.5c0,0,0.1,0.1,0.2,0.1c0.1,0.1,0.2,0.1,0.3,0.2     C6.6,75.9,6.9,76,7.2,76l0,0C8.2,75.9,10.4,74.4,10.4,74.4z"></path>
		</g>
		<circle class="st0" cx="36" cy="0" r="1.2"></circle>
		<g>
			<path class="st1" d="M68.1,0.4c-0.1,0-0.2,0-0.4,0.1l0,0l0,0l0,0c-0.1,0-0.1,0.1-0.1,0.1c-0.4,0.4-0.5,0.9-0.4,1.5v0.1     c0,0,0,0.1,0.1,0.1c0.1,0.2,0.3,0.3,0.4,0.2s0.1-0.3,0.1-0.5s0-0.3,0-0.4c0-0.3,0.1-0.5,0.4-0.7c0.1-0.1,0.3-0.3,0.2-0.4     C68.3,0.4,68.2,0.4,68.1,0.4z"></path>
			<path class="st1" d="M71.4-0.5c0-0.1-0.1-0.1-0.2-0.1c0,0,0,0-0.1,0l0,0H71l0,0l0,0c0,0,0,0-0.1,0.1l0,0l-0.1,0.1     c0,0.1-0.1,0.1-0.1,0.2l-0.1,0.1l0,0c0,0,0,0.1-0.1,0.1l0,0l0,0c0,0.1-0.1,0.2-0.1,0.3l0,0c0,0.1,0,0.1,0,0.2s0,0.3,0,0.4     s0,0.1,0,0.2c0.1,0.3,0.3,0.4,0.5,0.3C71,1.4,71,1.3,71,1.2V1.1V1c0-0.1,0-0.1,0-0.2s0-0.1,0-0.2s0-0.1,0-0.1l0,0     c0-0.1,0-0.1,0-0.2l0,0c0,0,0-0.1,0.1-0.1c0-0.1,0.1-0.1,0.1-0.2l0,0l0.1-0.1l0,0C71.4-0.2,71.5-0.3,71.4-0.5     C71.5-0.4,71.4-0.4,71.4-0.5C71.5-0.4,71.5-0.4,71.4-0.5z"></path>
			<path class="st1" d="M83,2.4c0,0.2-0.1,0.3-0.2,0.4c-0.2,0.2-2.4,1.6-3.6,1.6l0,0c-0.5,0-0.9-0.1-1.2-0.3     c-0.6,0.7-1.5,1.1-2.6,1.1c-0.9,0-1.7-0.3-2.3-0.9c-0.3,0.1-0.5,0.1-0.8,0.1c-0.2,0-0.5,0-0.7-0.1c-0.6,0.6-1.5,1-2.5,1     c-1.1,0-2.1-0.6-2.8-1.4c-0.4,0.2-0.9,0.4-1.4,0.4l0,0c-1.3,0-3.4-1.5-3.6-1.7C61,2.7,61,2.6,61,2.4c0-0.2,0-0.3,0.2-0.4     c0.1-0.1,1.9-1.8,3.6-2.1c0.2,0,0.3,0,0.4,0c-0.8-0.7-1.2-2.7-1.3-3.1c0-0.2,0-0.3,0.1-0.4c0.1-0.1,0.2-0.2,0.4-0.2     c0,0,0.1,0,0.3,0c0.8,0,2.2,0.1,3.2,0.7C67.9-3,68-3,68.1-2.9c0.1-1.3,0.7-2.3,0.7-2.4c0.1-0.1,0.2-0.2,0.4-0.3     c0.2,0,0.3,0,0.4,0.1c0,0,0,0,0.1,0.1L70-5.3c0.1,0,0.2,0.1,0.3,0.3L72-3.9h0.1c0.3,0,0.6,0.2,0.8,0.3c0.4,0.2,0.6,0.3,0.7,0.4     l0.7,0.4c0.4,0.2,0.7,0.3,1,0.4c0.2-0.3,0.5-0.6,0.8-0.8c1-0.6,2.4-0.7,3.2-0.7c0.2,0,0.3,0,0.3,0c0.2,0,0.3,0.1,0.4,0.2     c0.1,0.1,0.1,0.3,0.1,0.4C80-2.9,79.6-1,78.8-0.2c0.1,0,0.3,0,0.4,0c1.7,0.3,3.5,2,3.6,2.1C82.9,2.1,83,2.3,83,2.4z M74.1-2.2     L75-1.7l0.1,0.1l0.2,0.1l0.2,0.1l0.1,0.1l0,0l0,0l0,0l0,0l0.2,0.2h0.1l0,0c0,0,0,0-0.1,0.1c0.1,0,0.1,0,0.2,0s0.1,0,0.2,0h0.1     h0.1c0.1,0,0.2,0,0.3-0.1h0.1c0.6-0.2,1.4-0.7,1.4-0.7S77.7-1.4,77.1-1L77-0.9l-0.1,0.1c-0.1,0-0.1,0.1-0.2,0.1     C77-0.5,77.3-0.3,77.5,0c0.1,0,0.1,0,0.2-0.1c0.1,0,0.2-0.1,0.3-0.1c0.1-0.1,0.2-0.1,0.4-0.2c0.7-0.6,1.2-2.8,1.2-2.8     s-2-0.1-3.1,0.6c-0.2,0.2-0.4,0.3-0.6,0.5c-0.1,0.1-0.1,0.2-0.2,0.2l0,0c0,0.1-0.1,0.1-0.1,0.2c-0.1,0-0.2-0.1-0.3-0.1     c-0.1,0-0.1,0-0.2-0.1C74.8-1.9,74.4-2.1,74.1-2.2z M73-2.6L73-2.6l0.2,0.4l0,0L73.4-2v0.1l0.1,0.1l0.2,0.2l0.2,0.3     c0,0,0,0,0.1,0.1c0,0.1,0.1,0.1,0.2,0.2l0,0l0.1,0.1c0.1,0,0.1,0,0.2-0.1c0.1,0,0.1,0,0.2-0.1c0,0,0,0,0.1,0h0.1l0,0     C75-1,75-1,75-1h0.1c0.1-0.1,0.1-0.1,0.2-0.2l0,0c0,0,0,0,0.1-0.1l0,0L75-1.5l0,0l0,0l-1.1-0.7l-0.2-0.1l-0.3-0.2h-0.1     c0,0-0.1,0-0.1-0.1l0,0l0,0C73.1-2.7,73-2.6,73-2.6z M72.8-2.5v0.2v0.1l0,0v0.1v0.2v0.1v0.1v0.1c0.2,0,0.4,0.1,0.6,0.2l0,0l0,0     l-0.1-0.3L73.1-2l0,0l0,0L73-2.2v-0.1L72.8-2.5L72.8-2.5L72.8-2.5z M72.5-2.5l-0.1,0.2l0,0v0.1v0.1V-2v0.1v0.1l0,0     c0.1,0,0.3,0,0.4,0c0,0,0,0,0.1,0V-2v-0.1v-0.3l0,0l0,0v-0.1v-0.1l0,0C72.6-2.5,72.6-2.5,72.5-2.5C72.6-2.5,72.5-2.5,72.5-2.5z      M72.3-2.6L72.3-2.6L72.3-2.6L72.3-2.6L72-2.3l-0.1,0.1l-0.1,0.1l-0.1,0.2l-0.2,0.2h0.1c0.2,0,0.4-0.1,0.6-0.1l0,0l0,0L72.3-2     v-0.1l0.1-0.2l0,0v-0.1l0.1-0.2l0,0C72.4-2.6,72.4-2.6,72.3-2.6L72.3-2.6L72.3-2.6L72.3-2.6z M72.1-2.8L72.1-2.8l-0.2,0.1l0,0     l-0.3,0.1l-0.2,0.1L71-2.3l-1.2,0.5l-0.5,0.2l0,0c0,0.1,0.1,0.2,0.1,0.3c0,0.1,0.1,0.1,0.1,0.2l0,0l0,0c0,0,0,0.1,0.1,0.1     c0,0.1,0.1,0.1,0.1,0.2c0,0,0,0,0.1,0.1h0.1c0-0.1,0.1-0.1,0.1-0.1C70.1-0.9,70.2-1,70.2-1l0.1-0.1c0.1-0.1,0.3-0.2,0.5-0.3     l0.4-0.4h0.1l0.5-0.4l0,0h0.1L72-2.5l0.1-0.1l0,0l0,0l0.1-0.1C72.2-2.7,72.2-2.7,72.1-2.8L72.1-2.8z M71.9-3.3L71.9-3.3L71.9-3.3     L71.9-3.3z M71.9-3h-0.2h-0.4h-0.1l0,0h-0.6h-0.9h-0.5c0,0.2,0,0.3,0,0.5l0,0c0,0.2,0,0.3,0,0.5l0.5-0.2l1-0.4l0.6-0.2h0.1     l0.2-0.1l0,0L71.9-3L71.9-3z M69.4-3.9c-0.1,0.2-0.1,0.3-0.1,0.5h0.5l1,0.1l0,0h0.5l0,0h0.5l0,0l-0.2-0.1l-0.3-0.2L71-3.8     l-0.9-0.5l-0.5-0.3c0,0.1-0.1,0.2-0.2,0.4v0.1C69.5-4,69.5-3.9,69.4-3.9z M68.6-2.4c0,0.1,0,0.3,0,0.4c0,0.1,0,0.1,0,0.2     s0,0.3,0.1,0.4c0,0.1,0.1,0.2,0.1,0.4c0,0.1,0,0.1,0.1,0.2c0.1,0,0.1,0,0.2,0h0.1h0.1c0-0.1-0.1-0.1-0.1-0.2l0,0     c0,0,0-0.1-0.1-0.1C69-1.2,69-1.3,69-1.4c-0.1-0.2-0.1-0.3-0.1-0.5c0-0.1,0-0.3,0-0.4s0-0.1,0-0.2c0-0.5,0.1-1,0.2-1.4     c0.1-0.2,0.1-0.4,0.2-0.5c0.1-0.3,0.2-0.5,0.2-0.5l0,0h0.1C69.5-5,69.4-5,69.4-5s-0.1,0.2-0.2,0.4c-0.1,0.2-0.2,0.5-0.3,0.8     c-0.1,0.3-0.2,0.7-0.2,1.2C68.6-2.5,68.6-2.4,68.6-2.4z M65.5-0.5c0.2,0.2,0.5,0.3,0.8,0.4C66.4,0,66.6,0,66.7,0s0.1,0,0.2,0     c0.2-0.2,0.4-0.4,0.7-0.5c-0.1,0-0.1-0.1-0.2-0.1c-0.1-0.1-0.2-0.1-0.3-0.2L67-0.9c-0.6-0.4-1.2-1-1.2-1s1,0.6,1.5,0.8     c0.1,0,0.2,0,0.3,0.1c0.2,0,0.5,0,0.6,0s0.1,0,0.2,0s0.2,0,0.2,0l0,0l0,0c0-0.1,0-0.2-0.1-0.3c0-0.1-0.1-0.2-0.2-0.4     c0-0.2-0.1-0.3-0.3-0.5c-0.1-0.2-0.3-0.3-0.5-0.5c-1.1-0.7-3.1-0.6-3.1-0.6S64.8-1.1,65.5-0.5z M66.4,3.3     c-0.1-0.3-0.2-0.6-0.3-0.9c-0.1,0-0.1,0-0.2,0s-0.1,0-0.2,0h-0.1c-0.8,0-1.8,0.1-1.8,0.1s1.1-0.2,1.8-0.5c0.1,0,0.2-0.1,0.2-0.1     l0.1-0.1c0.1,0,0.1-0.1,0.2-0.1c0-0.4,0.2-0.8,0.3-1.1c-0.1,0-0.1,0-0.2-0.1c-0.1,0-0.2-0.1-0.4-0.1c-0.3-0.1-0.7-0.1-1.2-0.1     c-1.6,0.2-3.3,1.9-3.3,1.9s2.2,1.6,3.3,1.6l0,0c0.4,0,0.8-0.1,1.1-0.3c0.1-0.1,0.2-0.1,0.3-0.2C66.3,3.4,66.4,3.3,66.4,3.3z      M70.9,3.7c-0.1,0-0.1-0.1-0.2-0.1c-0.1-0.1-0.2-0.1-0.3-0.2c-0.7-0.5-1.2-1.4-1.2-2.3c0-0.2,0-0.4,0.1-0.5     c0-0.1,0.1-0.3,0.1-0.4V0.1V0c0,0,0-0.1,0.1-0.1c0,0,0-0.1,0.1-0.1c0,0,0-0.1,0.1-0.1c0,0,0,0,0-0.1h-0.1c0,0,0,0-0.1,0     s-0.1,0-0.2,0s-0.1,0-0.2,0l0,0c0,0,0,0-0.1,0h-0.1l0,0c-0.1,0-0.2,0-0.4,0c-0.2,0-0.3,0.1-0.5,0.2S67.7,0,67.5,0.1l0,0l-0.1,0.1     c-0.1,0.1-0.2,0.1-0.2,0.2c-0.2,0-0.2,0.1-0.3,0.2s-0.1,0.1-0.1,0.2c-0.1,0.2-0.2,0.5-0.3,0.7c0,0.2-0.1,0.3-0.1,0.5     c0,0.1,0,0.2,0,0.3c0,0.3,0.1,0.5,0.2,0.7s0.2,0.3,0.3,0.5c0.5,0.6,1.2,1,2.1,1c0.6,0,1.1-0.2,1.5-0.5     C70.6,3.9,70.7,3.8,70.9,3.7C70.9,3.8,70.9,3.7,70.9,3.7z M73.4,3.3c0.1-0.1,0.2-0.1,0.3-0.2C73.8,3,73.9,3,74,2.9     c0.3-0.3,0.5-0.6,0.6-0.9s0.2-0.5,0.2-0.8c0,0,0,0,0-0.1s0-0.2,0-0.3s0-0.2,0-0.2V0.5c0-0.1,0-0.2-0.1-0.2c0-0.1,0-0.1-0.1-0.2     l0,0l0,0c0-0.1-0.1-0.2-0.1-0.2l0,0c0,0,0,0,0-0.1l0,0c0,0,0-0.1-0.1-0.1c-0.1-0.1-0.1-0.2-0.2-0.3c0,0,0,0-0.1-0.1     c0,0-0.1,0-0.1-0.1c0,0,0,0-0.1-0.1c-0.2,0-0.2-0.1-0.3-0.1c0,0,0,0-0.1,0c-0.2-0.1-0.4-0.2-0.6-0.3l0,0h-0.1c0,0,0,0-0.1,0     c-0.2,0-0.3-0.1-0.5-0.1c0,0,0,0-0.1,0l0,0H72h-0.1c-0.2,0-0.3,0-0.5,0.1c-0.2,0-0.3,0.1-0.5,0.2c0,0-0.1,0.1-0.2,0.1     c0,0,0,0-0.1,0l-0.1,0.1l0,0l-0.1,0.1l-0.1,0.1l-0.1,0.1l0,0c0,0,0,0.1-0.1,0.1l0,0c0,0,0,0.1-0.1,0.1l0,0c0,0.1-0.1,0.1-0.1,0.2     v0.1l0,0c0,0.1,0,0.1-0.1,0.2c0,0.1-0.1,0.3-0.1,0.4s0,0.2,0,0.3c0,0.9,0.4,1.6,1.1,2.1C70.9,3,71,3,71.1,3.1     c0.1,0,0.1,0.1,0.2,0.1s0.2,0.1,0.3,0.1c0.1,0,0.1,0,0.2,0.1c0.1,0,0.3,0,0.4,0h0.1c0.1,0,0.1,0,0.2,0s0.3,0,0.4,0s0.1,0,0.2-0.1     C73.2,3.3,73.3,3.2,73.4,3.3C73.3,3.4,73.4,3.3,73.4,3.3z M77.5,3.3c0.2-0.3,0.3-0.6,0.4-0.9c0-0.2,0.1-0.3,0.1-0.5     c0,0,0,0,0-0.1c0-0.2-0.1-0.5-0.1-0.7l0,0c-0.1-0.2-0.1-0.3-0.2-0.5c0,0,0-0.1-0.1-0.1c-0.1-0.1-0.2-0.2-0.3-0.3l-0.1-0.1     c-0.2-0.2-0.5-0.4-0.8-0.5c-0.1,0-0.2-0.1-0.3-0.1l0,0c-0.2-0.1-0.4-0.1-0.6-0.1l0,0h-0.1c-0.1,0-0.1,0-0.2,0s-0.2,0-0.2,0l0,0     h-0.1l0,0c0,0,0,0-0.1,0c0,0,0,0-0.1,0l0,0l0,0c0,0,0,0.1,0.1,0.1l0.1,0.1c0,0,0,0.1,0.1,0.1l0,0v0.1c0,0.1,0.1,0.2,0.1,0.3     c0,0,0,0,0,0.1s0,0.1,0,0.2s0,0.1,0,0.2s0,0.2,0,0.3c0,0.9-0.5,1.7-1.1,2.3c-0.1,0.1-0.2,0.1-0.3,0.2c-0.1,0-0.1,0.1-0.2,0.1     l0.1,0.1C73.7,3.9,73.8,4,73.9,4c0.4,0.3,0.9,0.4,1.4,0.4c0.7,0,1.3-0.3,1.8-0.7C77.2,3.6,77.4,3.4,77.5,3.3z M82.4,2.4     c0,0-1.7-1.7-3.3-2c-0.3,0-0.5,0-0.7,0c-0.1,0-0.3,0-0.4,0.1c-0.1,0-0.1,0-0.2,0C77.9,0.7,78,0.8,78.1,1c0,0.1,0.1,0.3,0.1,0.4     c0,0.2,0.1,0.3,0.1,0.5V2c0.1,0,0.1,0.1,0.2,0.1s0.2,0.1,0.4,0.1c0.6,0.2,1.4,0.3,1.4,0.3s-0.7,0-1.4-0.1c-0.1,0-0.2,0-0.4,0     c-0.1,0-0.1,0-0.2,0c0,0.2-0.1,0.3-0.2,0.5c0,0,0,0,0,0.1c-0.1,0.2-0.2,0.3-0.3,0.5c0,0,0.1,0.1,0.2,0.1c0.1,0.1,0.2,0.1,0.3,0.2     C78.6,3.9,78.9,4,79.2,4l0,0C80.2,3.9,82.4,2.4,82.4,2.4z"></path>
		</g>
		<g>
			<path class="st1" d="M11,2.4c0,0.2-0.1,0.3-0.2,0.4C10.5,3,8.4,4.5,7.1,4.5l0,0c-0.5,0-0.9-0.1-1.2-0.3C5.2,4.9,4.3,5.3,3.3,5.3     C2.4,5.3,1.6,5,1,4.4C0.7,4.5,0.4,4.5,0.2,4.5s-0.5,0-0.7-0.1C-1.1,5-2,5.4-3,5.4c-1.1,0-2.1-0.6-2.8-1.4     c-0.4,0.2-0.9,0.4-1.4,0.4l0,0c-1.3,0-3.4-1.5-3.6-1.7C-11,2.7-11,2.6-11,2.4c0-0.2,0-0.3,0.2-0.4c0.1-0.1,1.9-1.8,3.6-2.1     c0.2,0,0.3,0,0.4,0C-7.6-0.8-8-2.8-8.1-3.2c0-0.2,0-0.3,0.1-0.4c0-0.1,0.2-0.2,0.3-0.2c0,0,0.1,0,0.3,0c0.8,0,2.2,0.1,3.2,0.7     C-4.1-3-4-3-3.9-2.9c0.1-1.3,0.7-2.3,0.7-2.4C-3.1-5.4-3-5.5-2.8-5.6c0.2,0,0.3,0,0.4,0.1c0,0,0,0,0.1,0.1L-2-5.3     c0.1,0,0.2,0.1,0.3,0.3L0-3.9h0.1c0.3,0,0.6,0.2,0.8,0.3c0.4,0.2,0.6,0.3,0.7,0.4l0.7,0.4c0.4,0.2,0.7,0.3,1,0.4     C3.5-2.7,3.8-3,4.1-3.2c1-0.6,2.4-0.7,3.2-0.7c0.2,0,0.3,0,0.3,0c0.2,0,0.3,0.1,0.4,0.2c0.1,0.1,0.1,0.3,0.1,0.4     C8-2.8,7.6-0.8,6.8-0.1c0.1,0,0.3,0,0.4,0c1.7,0.3,3.5,2,3.6,2.1C10.9,2.1,11,2.3,11,2.4z M2.1-2.2L3-1.7l0.1,0.1l0.2,0.1     l0.2,0.1l0.1,0.1l0,0l0,0l0,0l0,0l0.2,0.2h0.1l0,0c0,0,0,0-0.1,0.1c0,0,0.1,0,0.2,0c0.1,0,0.1,0,0.2,0h0.1h0.1     c0.1,0,0.2,0,0.3-0.1h0.1c0.6-0.2,1.4-0.7,1.4-0.7S5.7-1.4,5.1-1L5-0.9L4.9-0.8c-0.1,0-0.1,0.1-0.2,0.1C5-0.5,5.3-0.3,5.5,0     c0.1,0,0.1,0,0.2-0.1c0.1,0,0.2-0.1,0.3-0.1c0.1-0.1,0.2-0.1,0.4-0.2C7.1-1,7.6-3.2,7.6-3.2s-2-0.1-3.1,0.6     C4.2-2.5,4-2.3,3.9-2.1C3.8-2,3.7-1.9,3.7-1.9l0,0c0,0.1-0.1,0.1-0.1,0.2c-0.1,0-0.2-0.1-0.3-0.1s-0.1,0-0.2-0.1     C2.8-1.9,2.4-2.1,2.1-2.2z M1-2.6L1-2.6l0.2,0.4l0,0L1.4-2v0.1l0.1,0.1l0.2,0.2l0.2,0.3c0,0,0,0,0.1,0.1C2-1.1,2.1-1.1,2.2-1l0,0     l0.1,0.1c0.1,0,0.1,0,0.2-0.1c0.1,0,0.1,0,0.2-0.1c0,0,0,0,0.1,0h0.1l0,0C3-1,3-1,3-1h0.1c0.1,0,0.2-0.1,0.2-0.1l0,0     c0,0,0,0,0.1-0.1l0,0L3-1.5l0,0l0,0L1.8-2.2L1.7-2.3L1.4-2.5H1.3c0,0-0.1,0-0.1-0.1l0,0l0,0C1.1-2.7,1-2.6,1-2.6z M0.8-2.5v0.2     v0.1l0,0v0.1v0.2v0.1v0.1v0.1c0.2,0,0.4,0.1,0.6,0.2l0,0l0,0L1.3-1.8L1.1-2.1l0,0l0,0L1-2.2v-0.1L0.8-2.5L0.8-2.5L0.8-2.5z      M0.5-2.5L0.5-2.5L0.5-2.5v0.2v0.1L0.4-2v0.1v0.1l0,0c0.1,0,0.3,0,0.4,0c0,0,0,0,0.1,0V-2v-0.1v-0.3l0,0l0,0v-0.1v-0.1l0,0     C0.6-2.5,0.6-2.5,0.5-2.5C0.6-2.5,0.5-2.5,0.5-2.5z M0.3-2.6L0.3-2.6L0.2-2.5l0,0L0-2.3l-0.1,0.1l-0.1,0.1l-0.1,0.2l-0.2,0.2h0.1     c0.2,0,0.4-0.1,0.6-0.1l0,0l0,0L0.3-2v-0.1l0.1-0.2l0,0v-0.1l0.1-0.2l0,0C0.4-2.6,0.4-2.6,0.3-2.6L0.3-2.6L0.3-2.6L0.3-2.6z      M0.1-2.8L0.1-2.8l-0.2,0.1l0,0l-0.3,0.1l-0.2,0.1L-1-2.3l-1.2,0.5l-0.5,0.2l0,0c0,0.1,0.1,0.2,0.1,0.3c0,0.1,0.1,0.1,0.1,0.2     l0,0l0,0c0,0,0,0.1,0.1,0.1c0,0.1,0.1,0.1,0.1,0.2c0,0,0,0,0.1,0.1h0.1C-2.1-0.8-2-0.8-2-0.9C-1.9-0.9-1.8-1-1.8-1l0.1-0.1     c0.1-0.1,0.3-0.2,0.5-0.3l0.4-0.4h0.1l0.5-0.4l0,0h0.1L0-2.5l0.1-0.1l0,0l0,0l0.1-0.1C0.2-2.7,0.2-2.7,0.1-2.8L0.1-2.8z      M-0.1-3.3L-0.1-3.3L-0.1-3.3L-0.1-3.3z M-0.1-3h-0.2h-0.4h-0.1l0,0h-0.6h-0.9h-0.5c0,0.2,0,0.3,0,0.5l0,0c0,0.2,0,0.3,0,0.5     l0.5-0.2l1-0.4l0.6-0.2h0.1l0.2-0.1l0,0H0L-0.1-3z M-2.6-3.9c-0.1,0.2-0.1,0.3-0.1,0.5h0.5l1,0.1l0,0h0.5l0,0h0.5l0,0l-0.2-0.1     l-0.3-0.2L-1-3.8l-0.9-0.5l-0.5-0.3c0,0.1-0.1,0.2-0.2,0.4v0.1C-2.5-4-2.5-3.9-2.6-3.9z M-3.4-2.4c0,0.1,0,0.3,0,0.4     c0,0.1,0,0.1,0,0.2s0,0.3,0.1,0.4c0,0.1,0.1,0.2,0.1,0.4c0,0.1,0,0.1,0.1,0.2c0.1,0,0.1,0,0.2,0h0.1h0.1c0-0.1-0.1-0.1-0.1-0.2     l0,0c0,0,0-0.1-0.1-0.1C-3-1.2-3-1.3-3-1.4c-0.1-0.2-0.1-0.3-0.1-0.5c0-0.1,0-0.3,0-0.4s0-0.1,0-0.2c0-0.5,0.1-1,0.2-1.4     c-0.1-0.2,0-0.4,0-0.5c0.1-0.3,0.2-0.5,0.2-0.5l0,0h0.1C-2.7-5-2.7-5.1-2.7-5.1s-0.1,0.2-0.2,0.4C-3-4.4-3.1-4.1-3.2-3.8     c-0.1,0.3-0.2,0.7-0.2,1.2C-3.4-2.5-3.4-2.4-3.4-2.4z M-6.5-0.5C-6.2-0.3-6-0.1-5.7-0.1C-5.6,0-5.4,0-5.3,0s0.1,0,0.2,0     c0.2-0.2,0.4-0.4,0.7-0.5c-0.1,0-0.1-0.1-0.2-0.1c-0.1-0.1-0.2-0.1-0.3-0.2L-5-0.9c-0.6-0.4-1.2-1-1.2-1s1,0.6,1.5,0.8     c0.1,0,0.2,0,0.3,0.1c0.2,0,0.5,0,0.6,0s0.1,0,0.2,0c0.1,0,0.2,0,0.2,0l0,0l0,0c0-0.1,0-0.2-0.1-0.3c0-0.1-0.1-0.2-0.2-0.4     C-3.7-1.9-3.8-2-4-2.2c-0.1-0.2-0.3-0.3-0.5-0.5c-1.1-0.7-3.1-0.6-3.1-0.6S-7.2-1.1-6.5-0.5z M-5.6,3.3C-5.7,3-5.8,2.7-5.9,2.4     c-0.1,0-0.1,0-0.2,0s-0.1,0-0.2,0h-0.1c-0.8,0-1.8,0.1-1.8,0.1S-7.1,2.3-6.4,2c0.1,0,0.1,0,0.2-0.1l0.1-0.1C-6,1.8-6,1.7-5.9,1.7     c0-0.4,0.2-0.8,0.3-1.1c-0.1,0-0.1,0-0.2-0.1c-0.1,0-0.2-0.1-0.4-0.1c-0.3-0.1-0.7-0.1-1.2-0.1c-1.6,0.2-3.3,1.9-3.3,1.9     s2.2,1.6,3.3,1.6l0,0c0.4,0,0.8-0.1,1.1-0.3C-6.2,3.4-6.1,3.4-6,3.3C-5.7,3.4-5.6,3.3-5.6,3.3z M-1.1,3.7c-0.1,0-0.1-0.1-0.2-0.1     c-0.1-0.1-0.2-0.1-0.3-0.2C-2.3,2.9-2.8,2-2.8,1.1c0-0.2,0-0.4,0.1-0.5c0-0.1,0.1-0.3,0.1-0.4V0.1V0c0,0,0-0.1,0.1-0.1     c0,0,0-0.1,0.1-0.1c0,0,0-0.1,0.1-0.1c0,0,0,0,0-0.1h-0.1c0,0,0,0-0.1,0s-0.1,0-0.2,0c-0.1,0-0.1,0-0.2,0l0,0c0,0,0,0-0.1,0h-0.1     l0,0c-0.1,0-0.2,0-0.4,0S-3.8-0.3-4-0.2c-0.2,0-0.4,0.1-0.5,0.2l0,0l-0.1,0.1c-0.1,0.1-0.2,0.1-0.2,0.2C-5,0.4-5,0.5-5.1,0.6     s-0.1,0.1-0.1,0.2C-5.3,1-5.4,1.2-5.5,1.5c0,0.2-0.1,0.3-0.1,0.5c0,0.1,0,0.2,0,0.3c0,0.3,0.1,0.5,0.2,0.7     C-5.2,3.2-5.2,3.4-5,3.5c0.5,0.6,1.2,1,2.1,1c0.6,0,1.1-0.2,1.5-0.5c0,0,0.1-0.1,0.2-0.2C-1.1,3.8-1.1,3.7-1.1,3.7z M1.4,3.3     c0.1-0.1,0.2-0.1,0.3-0.2C1.8,3,1.9,3,2,2.9C2.2,2.7,2.4,2.3,2.6,2c0.1-0.3,0.2-0.5,0.2-0.8c0,0,0,0,0-0.1s0-0.2,0-0.3     s0-0.2,0-0.2V0.5c0-0.1,0-0.2-0.1-0.2c0-0.1,0-0.1-0.1-0.2l0,0l0,0c0-0.1-0.1-0.2-0.1-0.2l0,0c0,0,0,0,0-0.1l0,0     c0,0,0-0.1-0.1-0.1C2.2-0.5,2.1-0.6,2-0.7c0,0,0,0-0.1-0.1c0,0-0.1,0-0.1-0.1c0,0,0,0-0.1-0.1c0,0.1,0,0-0.1,0c0,0,0,0-0.1,0     C1.3-1.2,1.1-1.3,0.9-1.3l0,0H0.8c0,0,0,0-0.1,0c-0.2,0-0.3-0.1-0.5-0.1c0,0,0,0-0.1,0l0,0H0h-0.1c-0.2,0-0.3,0-0.5,0.1     c-0.2,0-0.3,0.1-0.5,0.2c0,0-0.1,0.1-0.2,0.1c0,0,0,0-0.1,0l-0.1,0.1l0,0l-0.1,0.1l-0.1,0.1l-0.1,0.1l0,0c0,0,0,0.1-0.1,0.1l0,0     c0,0,0,0.1-0.1,0.1l0,0c0,0.1-0.1,0.1-0.1,0.2v0.1l0,0c0,0.1,0,0.1-0.1,0.2c0,0.1-0.1,0.3-0.1,0.4s0,0.2,0,0.3     c0,0.9,0.4,1.6,1.1,2.1c0,0.3,0.1,0.4,0.2,0.4s0.1,0.1,0.2,0.1s0.2,0.1,0.3,0.1s0.1,0,0.2,0.1c0.1,0,0.3,0,0.4,0h0.1     c0.1,0,0.1,0,0.2,0s0.3,0,0.4,0s0.1,0,0.2-0.1c0.1,0,0.2-0.1,0.3-0.1C1.3,3.4,1.4,3.3,1.4,3.3z M5.5,3.3C5.6,3,5.8,2.7,5.8,2.4     c0-0.2,0.1-0.3,0.1-0.5c0,0,0,0,0-0.1c0-0.2-0.1-0.5-0.1-0.7l0,0C5.7,0.9,5.6,0.8,5.5,0.6c0,0,0-0.1-0.1-0.1     c0-0.1-0.1-0.2-0.2-0.3L5.1,0.1C4.9-0.2,4.6-0.3,4.3-0.4C4.2-0.4,4.1-0.5,4-0.5l0,0C3.8-0.6,3.7-0.6,3.5-0.6l0,0H3.4     c-0.1,0-0.1,0-0.2,0c-0.1,0-0.2,0-0.2,0l0,0H2.9l0,0c0,0,0,0-0.1,0c0,0,0,0-0.1,0l0,0l0,0c0,0,0,0.1,0.1,0.1l0.1,0.1     c0,0,0,0.1,0.1,0.1l0,0v0.1C3-0.1,3.1,0,3.1,0.1c0,0,0,0,0,0.1s0,0.1,0,0.2s0,0.1,0,0.2s0,0.2,0,0.3c0,0.9-0.5,1.7-1.1,2.3     C1.8,3.4,1.7,3.5,1.6,3.6c-0.1,0-0.1,0.1-0.2,0.1l0.1,0.1C1.7,3.9,1.8,4,1.9,4c0.4,0.3,0.9,0.4,1.4,0.4c0.7,0,1.3-0.3,1.8-0.7     C5.2,3.6,5.4,3.4,5.5,3.3z M10.4,2.4c0,0-1.7-1.7-3.3-2c-0.3,0-0.5,0-0.7,0c-0.1,0-0.3,0-0.4,0.1c-0.1,0-0.1,0-0.2,0     C5.9,0.7,6,0.8,6.1,1c0,0.1,0.1,0.3,0.1,0.4c0,0.2,0.1,0.3,0.1,0.5V2c0.1,0,0.1,0.1,0.2,0.1s0.2,0.1,0.4,0.1     c0.6,0.2,1.4,0.3,1.4,0.3s-0.7,0-1.4-0.1c-0.1,0-0.2,0-0.4,0c-0.1,0-0.1,0-0.2,0C6.1,2.6,6.1,2.8,6,3l0,0     C5.9,3.2,5.8,3.4,5.7,3.5c0,0,0.1,0.1,0.2,0.1C6,3.7,6.1,3.7,6.2,3.8C6.5,3.9,6.8,4,7.1,4l0,0C8.2,3.9,10.4,2.4,10.4,2.4z"></path>
		</g>
	</g>
</g>
</svg>