<svg xmlns="http://www.w3.org/2000/svg" id="Layer_1" data-name="Layer 1" viewBox="0 0 81.24 86.51"><defs><style>.cls-1{fill:#39b54a;}.cls-1,.cls-2{stroke:#39b54a;stroke-miterlimit:10;stroke-width:2px;}.cls-2{fill:#fff;}.cls-3{fill:#006837;}</style></defs><title>Diznatys</title><path class="cls-1" d="M80.24,45.89A39.62,39.62,0,0,1,40.62,85.51H1V45.89a39.62,39.62,0,1,1,79.24,0Z"></path><path class="cls-2" d="M79.75,40.37A39.38,39.38,0,0,1,40.37,79.75H1V40.37a39.38,39.38,0,0,1,78.75,0Z"></path><path class="cls-3" d="M14.45,35.09v.22a1.65,1.65,0,0,0-.57.08.44.44,0,0,0-.26.26,2.2,2.2,0,0,0-.06.6v5.46a1.28,1.28,0,0,0,.15.77c.1.12.33.17.67.17h.33c0,.29-.05.57-.06.83s0,.47,0,.6a4.67,4.67,0,0,0,0,.72h-.26a3.33,3.33,0,0,0-.35-1.15,1.43,1.43,0,0,0-.62-.6,2.06,2.06,0,0,0-.9-.18H9.88a2,2,0,0,0-.89.18,1.45,1.45,0,0,0-.63.6A3.33,3.33,0,0,0,8,44.8H7.76a6.83,6.83,0,0,0,0-.72c0-.13,0-.34,0-.6s0-.54-.07-.83h3.21a1,1,0,0,0,.72-.17,1.18,1.18,0,0,0,.17-.77V36.25a1.18,1.18,0,0,0-.17-.77.8.8,0,0,0-.59-.17H10.9a.82.82,0,0,0-.37.07.45.45,0,0,0-.21.27,2.39,2.39,0,0,0-.11.6c0,.5-.09,1-.12,1.64s-.1,1.18-.18,1.77a10.24,10.24,0,0,1-.34,1.6A3.11,3.11,0,0,1,9,42.42a1.32,1.32,0,0,1-1,.44v-.21a1.1,1.1,0,0,0,.85-.37,2.87,2.87,0,0,0,.55-1,10.47,10.47,0,0,0,.34-1.48c.08-.56.14-1.13.19-1.74L10,36.25c0-.39,0-.64-.13-.75a1.21,1.21,0,0,0-.76-.19v-.22l.55,0h.58l.49,0h1.24l.81,0h1.71Z"></path><path class="cls-3" d="M18.64,35.09v.22a1.46,1.46,0,0,0-.54.08.37.37,0,0,0-.23.26,2.2,2.2,0,0,0-.06.6v5.46a2.17,2.17,0,0,0,.06.59.4.4,0,0,0,.25.27,2,2,0,0,0,.52.08v.22l-.75,0H16l-.75,0v-.22a2,2,0,0,0,.53-.08A.42.42,0,0,0,16,42.3a2.17,2.17,0,0,0,.06-.59V36.25a2.2,2.2,0,0,0-.06-.6.41.41,0,0,0-.24-.26,1.38,1.38,0,0,0-.52-.08v-.22l.75,0h1.9Z"></path><path class="cls-3" d="M22.38,34.93a3.39,3.39,0,0,1,1.81.44,1.38,1.38,0,0,1,.69,1.22,1.41,1.41,0,0,1-.24.82A2.47,2.47,0,0,1,24,38a4.44,4.44,0,0,1-.83.45,6.52,6.52,0,0,1-.87.26,5.48,5.48,0,0,1,1.06.13,3.38,3.38,0,0,1,1,.38,2.13,2.13,0,0,1,.7.63,1.55,1.55,0,0,1,.26.89,1.63,1.63,0,0,1-.29,1,2.31,2.31,0,0,1-.78.7,4.07,4.07,0,0,1-1.11.43,5.3,5.3,0,0,1-1.26.15,4.77,4.77,0,0,1-1.08-.12,2.31,2.31,0,0,1-.9-.4,1.91,1.91,0,0,1-.42-.43,1,1,0,0,1-.18-.58.84.84,0,0,1,.27-.66,1,1,0,0,1,.66-.24.88.88,0,0,1,.63.22.83.83,0,0,1,.24.66.82.82,0,0,1-.23.58,1.17,1.17,0,0,1-.62.34,1.91,1.91,0,0,0,.59.28,3.1,3.1,0,0,0,.86.11,1.94,1.94,0,0,0,1.43-.51,2,2,0,0,0,.51-1.47,2.91,2.91,0,0,0-.15-1,1.65,1.65,0,0,0-.49-.71,1.29,1.29,0,0,0-.83-.3l-.23.1a.69.69,0,0,1-.25,0,.32.32,0,0,1-.16,0,.18.18,0,0,1-.07-.15c0-.11.09-.17.26-.17l.23,0,.23,0a1.5,1.5,0,0,0,.63-.45,1.79,1.79,0,0,0,.31-.67,3.33,3.33,0,0,0,.09-.78,1.76,1.76,0,0,0-.31-1.17,1.11,1.11,0,0,0-.91-.37,1.57,1.57,0,0,0-1,.33,2.11,2.11,0,0,0-.63.85,4,4,0,0,0-.25,1.18H19.8V36.44c0-.32,0-.58,0-.8s0-.42,0-.59H20a2.33,2.33,0,0,0,.09.45.2.2,0,0,0,.19.15.55.55,0,0,0,.26-.12l.46-.29a1.77,1.77,0,0,1,.56-.22A3.07,3.07,0,0,1,22.38,34.93Z"></path><path class="cls-3" d="M26,42.87v-.22a1.88,1.88,0,0,0,.52-.08.41.41,0,0,0,.24-.27,2.17,2.17,0,0,0,.06-.59V36.25a2.2,2.2,0,0,0-.06-.6.41.41,0,0,0-.24-.26,1.42,1.42,0,0,0-.52-.08v-.22l.74,0h1.91l.75,0v.22a1.46,1.46,0,0,0-.54.08.41.41,0,0,0-.24.26,2.83,2.83,0,0,0-.05.6v5.46a2.17,2.17,0,0,0,.06.59.41.41,0,0,0,.24.27,2,2,0,0,0,.53.08v.22l-.75,0H26.74Zm1.86-3.8v-.22H32.2v.22Zm2.8,3.8v-.22a2,2,0,0,0,.53-.08.43.43,0,0,0,.24-.27,2.67,2.67,0,0,0,.06-.59V36.25a2.7,2.7,0,0,0-.06-.6.46.46,0,0,0-.25-.26,1.38,1.38,0,0,0-.52-.08v-.22l.78,0h1.9l.72,0v.22a1.4,1.4,0,0,0-.53.08.41.41,0,0,0-.24.26,2.2,2.2,0,0,0-.06.6v5.46a2.17,2.17,0,0,0,.06.59.45.45,0,0,0,.25.27,2,2,0,0,0,.52.08v.22l-.72,0h-1.9Z"></path><path class="cls-3" d="M38.47,35.06,41.14,42a1.37,1.37,0,0,0,.35.55.65.65,0,0,0,.35.15v.22l-.78,0H39.21l-.72,0v-.22c.38,0,.61-.07.71-.19s.08-.36-.07-.73l-1.87-5.11.2-.29-1.67,4.36a3.73,3.73,0,0,0-.31,1.23.6.6,0,0,0,.27.56,1.55,1.55,0,0,0,.71.17v.22l-.7,0H34.64l-.38,0v-.22a.84.84,0,0,0,.47-.29,2.65,2.65,0,0,0,.47-.86l2.51-6.44.38,0Zm.77,4.65v.22H36l.11-.22Z"></path><path class="cls-3" d="M48.3,35.09c0,.37,0,.73-.06,1.07s0,.61,0,.8,0,.31,0,.46,0,.27,0,.37H48a5.9,5.9,0,0,0-.45-1.46,1.77,1.77,0,0,0-.64-.76,1.58,1.58,0,0,0-.88-.23h-.25v6.28a1.86,1.86,0,0,0,.09.66.5.5,0,0,0,.34.29,2.76,2.76,0,0,0,.74.08v.22l-.91,0H43.73l-.87,0v-.22a2.79,2.79,0,0,0,.75-.08.48.48,0,0,0,.34-.29,1.86,1.86,0,0,0,.09-.66V35.34h-.25a1.61,1.61,0,0,0-.88.23,1.78,1.78,0,0,0-.63.75,6.7,6.7,0,0,0-.47,1.47h-.25a3.25,3.25,0,0,0,0-.37V37c0-.19,0-.45,0-.8s0-.7-.06-1.07l1.1,0h4.59Z"></path><path class="cls-3" d="M52.36,35.09v.22a1.42,1.42,0,0,0-.52.08.41.41,0,0,0-.24.26,2.2,2.2,0,0,0-.06.6v5.46a2.17,2.17,0,0,0,.06.59.41.41,0,0,0,.24.27,2,2,0,0,0,.52.08v.22l-.74,0H49.71l-.75,0v-.22a1.9,1.9,0,0,0,.53-.08.41.41,0,0,0,.24-.27,2.17,2.17,0,0,0,.06-.59V36.25a2.2,2.2,0,0,0-.06-.6.41.41,0,0,0-.24-.26,1.44,1.44,0,0,0-.53-.08v-.22l.75,0h1.91Zm2.53.6c0,.16,0,.31,0,.47l-3.67,6.22-.1-.31Zm2.36-.6v.22a1.48,1.48,0,0,0-.53.08.41.41,0,0,0-.24.26,2.2,2.2,0,0,0-.06.6v5.46a2.17,2.17,0,0,0,.06.59.41.41,0,0,0,.24.27,2.12,2.12,0,0,0,.53.08v.22l-.75,0H54.59l-.74,0v-.22a2,2,0,0,0,.52-.08.41.41,0,0,0,.24-.27,2.17,2.17,0,0,0,.06-.59V36.25a2.2,2.2,0,0,0-.06-.6.41.41,0,0,0-.24-.26,1.38,1.38,0,0,0-.52-.08v-.22l.74,0H56.5Z"></path><path class="cls-3" d="M61.89,34.93a2.75,2.75,0,0,1,1.19.22,4,4,0,0,1,.83.5c.15.11.26.12.34,0a1.18,1.18,0,0,0,.16-.6h.25c0,.28,0,.63,0,1s0,.94,0,1.62h-.26a5.32,5.32,0,0,0-.14-.86,2.84,2.84,0,0,0-.24-.64,1.56,1.56,0,0,0-.44-.49,1.67,1.67,0,0,0-.64-.41,2.13,2.13,0,0,0-.76-.13,1.64,1.64,0,0,0-1,.31,2.41,2.41,0,0,0-.68.85,5.29,5.29,0,0,0-.38,1.22A8,8,0,0,0,60,39a8.15,8.15,0,0,0,.13,1.42,4.23,4.23,0,0,0,.4,1.2,2.4,2.4,0,0,0,.69.84,1.75,1.75,0,0,0,1,.3,2.12,2.12,0,0,0,.73-.13,1.79,1.79,0,0,0,.63-.4,1.62,1.62,0,0,0,.58-.82,6,6,0,0,0,.23-1.31h.26c0,.7,0,1.26,0,1.69s0,.79,0,1.08h-.25a1.23,1.23,0,0,0-.15-.59c-.07-.08-.19-.07-.35,0a5.67,5.67,0,0,1-.86.5,2.63,2.63,0,0,1-1.17.22,4.27,4.27,0,0,1-2-.47,3.27,3.27,0,0,1-1.36-1.37,5,5,0,0,1,0-4.3,3.59,3.59,0,0,1,1.37-1.44A3.94,3.94,0,0,1,61.89,34.93Z"></path><path class="cls-3" d="M70.41,39l0,.19H69.2a.72.72,0,0,0-.53.2,1.38,1.38,0,0,0-.3.55,4.85,4.85,0,0,0-.19.81l-.2,1.1a1.35,1.35,0,0,1-.5.94,1.81,1.81,0,0,1-1,.25,2,2,0,0,1-.81-.15,1.69,1.69,0,0,1-.63-.49l.15-.13a.84.84,0,0,0,.21.18.52.52,0,0,0,.23.07.36.36,0,0,0,.32-.17,2.23,2.23,0,0,0,.2-.62l.23-1.13a1.44,1.44,0,0,1,.65-1,3.67,3.67,0,0,1,1.45-.43c.14,0,.28,0,.42-.06l.55-.05Zm2.17-3.9v.22a1.44,1.44,0,0,0-.53.08.42.42,0,0,0-.23.26,2.2,2.2,0,0,0-.06.6v5.46a2.17,2.17,0,0,0,.06.59.42.42,0,0,0,.23.27,2,2,0,0,0,.53.08v.22l-.74,0H69.93l-.75,0v-.22a2.12,2.12,0,0,0,.53-.08A.41.41,0,0,0,70,42.3a2.17,2.17,0,0,0,.06-.59V36.25a1.58,1.58,0,0,0-.13-.76c-.08-.12-.27-.18-.55-.18a1.15,1.15,0,0,0-1.06.47A2.37,2.37,0,0,0,68,37.1a3.45,3.45,0,0,0,.12.94,1.23,1.23,0,0,0,.46.67,1.65,1.65,0,0,0,1,.25h1v.22H69.42a5.38,5.38,0,0,1-2-.3,1.93,1.93,0,0,1-1-.78,2,2,0,0,1-.29-1,1.67,1.67,0,0,1,.76-1.46,4,4,0,0,1,2.29-.52h2.66Z"></path><path class="cls-3" d="M14.37,48.29q0,.48-.06.93c0,.3,0,.53,0,.69s0,.29,0,.42,0,.25,0,.33h-.26a4.15,4.15,0,0,0-.39-1.27,1.5,1.5,0,0,0-.6-.66,1.62,1.62,0,0,0-.81-.19H12a1.5,1.5,0,0,0-.49.06.28.28,0,0,0-.21.21,1.6,1.6,0,0,0-.06.51v5.59a1.59,1.59,0,0,0,.12.75c.07.13.24.19.51.19a1.34,1.34,0,0,0,.85-.24,1.38,1.38,0,0,0,.41-.71,4.37,4.37,0,0,0,.12-1.09,4.23,4.23,0,0,0-.13-1.13,1.39,1.39,0,0,0-.48-.76,1.53,1.53,0,0,0-1-.27H10.48v-.22h1.36a5.07,5.07,0,0,1,1.51.2,2.74,2.74,0,0,1,1,.52,1.94,1.94,0,0,1,.54.75,2.27,2.27,0,0,1,.16.86,2.16,2.16,0,0,1-.32,1.15,2.22,2.22,0,0,1-1,.84,4.43,4.43,0,0,1-1.81.31H9.36a7.12,7.12,0,0,0-.74,0v-.23a2,2,0,0,0,.52-.08.39.39,0,0,0,.24-.27,2.17,2.17,0,0,0,.06-.59V49.45a2.2,2.2,0,0,0-.06-.6.42.42,0,0,0-.23-.26,1.44,1.44,0,0,0-.53-.08v-.22l1.29,0h3.37Z"></path><path class="cls-3" d="M19.14,48.29v.22a1.44,1.44,0,0,0-.53.08.41.41,0,0,0-.24.26,2.83,2.83,0,0,0-.05.6v5.46a2.17,2.17,0,0,0,.06.59.39.39,0,0,0,.24.27,2,2,0,0,0,.52.08v.23a7.39,7.39,0,0,0-.74,0H16.49a7.39,7.39,0,0,0-.74,0v-.23a1.88,1.88,0,0,0,.52-.08.39.39,0,0,0,.24-.27,2.17,2.17,0,0,0,.06-.59V49.45a2.2,2.2,0,0,0-.06-.6.41.41,0,0,0-.24-.26,1.42,1.42,0,0,0-.52-.08v-.22l.74,0H18.4Z"></path><path class="cls-3" d="M27.1,48.29v.22a1.65,1.65,0,0,0-.57.08.44.44,0,0,0-.26.26,2.2,2.2,0,0,0-.06.6v5.46a2.17,2.17,0,0,0,.06.59.41.41,0,0,0,.26.27,2.34,2.34,0,0,0,.57.08v.23q-.3,0-.78,0h-2q-.49,0-.81,0v-.23a2.75,2.75,0,0,0,.62-.08.44.44,0,0,0,.29-.27,2.1,2.1,0,0,0,.07-.59V49.45a1.18,1.18,0,0,0-.17-.77.8.8,0,0,0-.59-.17h-.08a1,1,0,0,0-.42.07.42.42,0,0,0-.23.27,2.39,2.39,0,0,0-.11.6c0,.52-.09,1.08-.13,1.69s-.1,1.22-.18,1.82a9.71,9.71,0,0,1-.33,1.64,3.13,3.13,0,0,1-.62,1.18,1.43,1.43,0,0,1-1.89.17.9.9,0,0,1-.36-.74.86.86,0,0,1,.3-.69,1.07,1.07,0,0,1,.7-.25.9.9,0,0,1,.59.18.61.61,0,0,1,.23.5.9.9,0,0,1-.25.65,1.41,1.41,0,0,1-.63.37l.13,0h.14a1.11,1.11,0,0,0,.85-.38A3,3,0,0,0,22,54.58a9.21,9.21,0,0,0,.33-1.51c.08-.56.14-1.15.19-1.77l.12-1.85c0-.39,0-.64-.13-.75a1.21,1.21,0,0,0-.76-.19v-.22l.55,0h.58l.49,0h1.24l.81,0H27.1Z"></path><path class="cls-3" d="M31.29,48.29v.22a1.67,1.67,0,0,0-.58.08.44.44,0,0,0-.27.26,2.2,2.2,0,0,0-.06.6v5.46a1.62,1.62,0,0,0,.11.75c.08.13.25.19.52.19a1.26,1.26,0,0,0,.84-.25,1.33,1.33,0,0,0,.42-.71,4.72,4.72,0,0,0,0-2.2,1.48,1.48,0,0,0-.47-.76,1.38,1.38,0,0,0-.93-.28H29.66v-.22H31a4.7,4.7,0,0,1,1.9.31,2.06,2.06,0,0,1,1,.8,2.15,2.15,0,0,1,.29,1.12,2.41,2.41,0,0,1-.17.91,2,2,0,0,1-.56.77,2.57,2.57,0,0,1-1,.53,4.63,4.63,0,0,1-1.43.19H28.54a7.12,7.12,0,0,0-.74,0v-.23a2,2,0,0,0,.52-.08.4.4,0,0,0,.25-.27,2.17,2.17,0,0,0,.06-.59V49.45a2.2,2.2,0,0,0-.06-.6.43.43,0,0,0-.25-.26,1.38,1.38,0,0,0-.52-.08v-.22l.74,0h2Z"></path><path class="cls-3" d="M46.34,48.29v.22a1.4,1.4,0,0,0-.53.08.41.41,0,0,0-.24.26,2.2,2.2,0,0,0-.06.6v5.46a2.17,2.17,0,0,0,.06.59.39.39,0,0,0,.24.27,2,2,0,0,0,.53.08v.23a6.75,6.75,0,0,0-.71,0h-1l-1.08,0-1,0-.61,0h-1.4l-1.06,0-1,0-1,0-1.08,0h-1a6.75,6.75,0,0,0-.71,0v-.23a2,2,0,0,0,.53-.08.39.39,0,0,0,.24-.27,2.17,2.17,0,0,0,.06-.59V49.45a2.2,2.2,0,0,0-.06-.6.41.41,0,0,0-.24-.26,1.44,1.44,0,0,0-.53-.08v-.22l.75,0h1.84l.7,0v.22a1,1,0,0,0-.45.08.43.43,0,0,0-.21.26,2.83,2.83,0,0,0-.05.6v5.46a1.2,1.2,0,0,0,.16.77c.11.12.35.17.73.17h.56a1,1,0,0,0,.73-.17,1.2,1.2,0,0,0,.16-.77V49.45a2.83,2.83,0,0,0-.05-.6.38.38,0,0,0-.2-.26,1.12,1.12,0,0,0-.46-.08v-.22l.71,0h1.77l.69,0v.22a1.07,1.07,0,0,0-.45.08.37.37,0,0,0-.21.26,2.83,2.83,0,0,0,0,.6v5.46a1.11,1.11,0,0,0,.18.77,1.09,1.09,0,0,0,.71.17h.56c.38,0,.62-.05.73-.17a1.2,1.2,0,0,0,.16-.77V49.45a2.29,2.29,0,0,0,0-.6.38.38,0,0,0-.2-.26,1.08,1.08,0,0,0-.46-.08v-.22l.71,0h1.83Z"></path><path class="cls-3" d="M53,48.29q0,.48-.06.93c0,.3,0,.53,0,.69s0,.29,0,.42,0,.25,0,.33h-.25a4,4,0,0,0-.34-1.27,1.39,1.39,0,0,0-.6-.66,1.79,1.79,0,0,0-.86-.19h-.45a1.46,1.46,0,0,0-.49.06.31.31,0,0,0-.22.21,2.05,2.05,0,0,0-.05.51V55a2.05,2.05,0,0,0,.05.51.34.34,0,0,0,.22.22,1.87,1.87,0,0,0,.49,0H51a1.75,1.75,0,0,0,.87-.21,1.81,1.81,0,0,0,.65-.73,4.59,4.59,0,0,0,.41-1.4h.26a7.64,7.64,0,0,0,0,.92c0,.17,0,.41,0,.72s0,.62.07,1c-.37,0-.8,0-1.27,0H48.37c-.46,0-.89,0-1.28,0v-.23a1.88,1.88,0,0,0,.52-.08.39.39,0,0,0,.24-.27,2.17,2.17,0,0,0,.06-.59V49.45a2.2,2.2,0,0,0-.06-.6.41.41,0,0,0-.24-.26,1.42,1.42,0,0,0-.52-.08v-.22l1.28,0h3.45Zm-1.72,3.76v.22H49.33v-.22Zm.32-1.45c0,.41,0,.73,0,.95s0,.43,0,.61,0,.38,0,.6,0,.54.06,1h-.26a2.33,2.33,0,0,0-.2-.71,1.41,1.41,0,0,0-.42-.54,1.25,1.25,0,0,0-.72-.2v-.22a1,1,0,0,0,.7-.24,1.58,1.58,0,0,0,.41-.58,2.85,2.85,0,0,0,.2-.63Z"></path></svg>