<?xml version="1.0" encoding="utf-8"?>
<!-- Generator: Adobe Illustrator 24.0.1, SVG Export Plug-In . SVG Version: 6.00 Build 0)  -->
<svg version="1.1" id="Layer_1" xmlns="http://www.w3.org/2000/svg" xmlns:xlink="http://www.w3.org/1999/xlink" x="0px" y="0px"
	 viewBox="0 0 80.8 85.9" style="enable-background:new 0 0 80.8 85.9;" xml:space="preserve">
<style type="text/css">
	.Drop_x0020_Shadow{fill:none;}
	.Outer_x0020_Glow_x0020_5_x0020_pt{fill:none;}
	.Blue_x0020_Neon{fill:none;stroke:#8AACDA;stroke-width:7;stroke-linecap:round;stroke-linejoin:round;}
	.Chrome_x0020_Highlight{fill:url(#SVGID_1_);stroke:#FFFFFF;stroke-width:0.3629;stroke-miterlimit:1;}
	.Jive_GS{fill:#FFDD00;}
	.Alyssa_GS{fill:#A6D0E4;}
	.st0{fill:#39B54A;}
	.st1{fill:#FFFFFF;}
	.st2{fill:#006837;}
</style>
<linearGradient id="SVGID_1_" gradientUnits="userSpaceOnUse" x1="-971.9863" y1="-436.5796" x2="-971.9863" y2="-437.5796">
	<stop  offset="0" style="stop-color:#656565"/>
	<stop  offset="0.618" style="stop-color:#1B1B1B"/>
	<stop  offset="0.6292" style="stop-color:#545454"/>
	<stop  offset="0.9831" style="stop-color:#3E3E3E"/>
</linearGradient>
<g>
	<path class="st0" d="M1.1,45.6c0,21.7,17.6,39.3,39.3,39.3c11.9,0,39.3,0,39.3,0s0-29.5,0-39.3c0-21.7-17.6-39.3-39.3-39.3
		S1.1,23.9,1.1,45.6z"/>
	<path class="st0" d="M80.8,85.9H40.4c-22.2,0-40.3-18.1-40.3-40.3c0-22.2,18.1-40.3,40.3-40.3s40.3,18.1,40.3,40.3V85.9z M40.4,7.3
		C19.3,7.3,2.1,24.5,2.1,45.6S19.3,84,40.4,84h38.3V45.6C78.8,24.5,61.6,7.3,40.4,7.3z"/>
</g>
<g>
	<path class="st1" d="M1,40.4c0,21.7,17.6,39.4,39.4,39.4c11.9,0,39.4,0,39.4,0s0-29.5,0-39.4C79.7,18.6,62.1,1,40.4,1
		S1,18.6,1,40.4z"/>
	<path class="st0" d="M80.8,80.8H40.4C18.1,80.8,0,62.6,0,40.4S18.1,0,40.4,0s40.4,18.1,40.4,40.4V80.8z M40.4,2
		C19.2,2,2,19.2,2,40.4s17.2,38.4,38.4,38.4h38.4V40.4C78.8,19.2,61.5,2,40.4,2z"/>
</g>
<g>
	<path class="st2" d="M13,35.1v0.2c-0.2,0-0.4,0-0.6,0.1c-0.1,0-0.2,0.1-0.3,0.3c0,0.1-0.1,0.3-0.1,0.6v5.5c0,0.4,0.1,0.7,0.2,0.8
		c0.1,0.1,0.3,0.2,0.7,0.2h0.3c0,0.3,0,0.6-0.1,0.8c0,0.3,0,0.5,0,0.6c0,0.3,0,0.5,0,0.7h-0.3c-0.1-0.5-0.2-0.9-0.4-1.1
		c-0.2-0.3-0.4-0.5-0.6-0.6c-0.3-0.1-0.6-0.2-0.9-0.2H8.4c-0.3,0-0.6,0.1-0.9,0.2c-0.3,0.1-0.5,0.3-0.6,0.6
		c-0.2,0.3-0.3,0.7-0.4,1.1H6.3c0-0.2,0-0.4,0-0.7c0-0.1,0-0.3,0-0.6c0-0.3,0-0.5-0.1-0.8h3.2c0.4,0,0.6-0.1,0.7-0.2
		c0.1-0.1,0.2-0.4,0.2-0.8v-5.5c0-0.4-0.1-0.7-0.2-0.8c-0.1-0.1-0.3-0.2-0.6-0.2H9.4c-0.2,0-0.3,0-0.4,0.1c-0.1,0-0.2,0.1-0.2,0.3
		c0,0.1-0.1,0.3-0.1,0.6c0,0.5-0.1,1-0.1,1.6c0,0.6-0.1,1.2-0.2,1.8s-0.2,1.1-0.3,1.6c-0.2,0.5-0.4,0.9-0.6,1.2
		c-0.3,0.3-0.6,0.4-1,0.4v-0.2c0.3,0,0.6-0.1,0.8-0.4c0.2-0.3,0.4-0.6,0.6-1c0.1-0.4,0.2-0.9,0.3-1.5c0.1-0.6,0.1-1.1,0.2-1.7
		c0-0.6,0.1-1.2,0.1-1.8c0-0.4,0-0.6-0.1-0.8c-0.1-0.1-0.4-0.2-0.8-0.2v-0.2c0.2,0,0.3,0,0.5,0c0.2,0,0.4,0,0.6,0c0.2,0,0.3,0,0.5,0
		c0.2,0,0.3,0,0.5,0c0.3,0,0.5,0,0.8,0c0.2,0,0.5,0,0.8,0c0.2,0,0.4,0,0.6,0c0.2,0,0.4,0,0.6,0C12.7,35.1,12.8,35.1,13,35.1z"/>
	<path class="st2" d="M17.2,35.1v0.2c-0.2,0-0.4,0-0.5,0.1c-0.1,0-0.2,0.1-0.2,0.3c0,0.1-0.1,0.3-0.1,0.6v5.5c0,0.3,0,0.5,0.1,0.6
		c0,0.1,0.1,0.2,0.2,0.3s0.3,0.1,0.5,0.1v0.2c-0.2,0-0.4,0-0.7,0c-0.3,0-0.6,0-0.9,0c-0.4,0-0.7,0-1,0c-0.3,0-0.6,0-0.7,0v-0.2
		c0.2,0,0.4,0,0.5-0.1s0.2-0.1,0.2-0.3c0-0.1,0.1-0.3,0.1-0.6v-5.5c0-0.3,0-0.5-0.1-0.6c0-0.1-0.1-0.2-0.2-0.3s-0.3-0.1-0.5-0.1
		v-0.2c0.2,0,0.4,0,0.7,0c0.3,0,0.6,0,1,0c0.3,0,0.6,0,0.9,0S17,35.1,17.2,35.1z"/>
	<path class="st2" d="M20.9,34.9c0.7,0,1.3,0.1,1.8,0.4c0.5,0.3,0.7,0.7,0.7,1.2c0,0.3-0.1,0.6-0.2,0.8s-0.4,0.4-0.6,0.6
		s-0.5,0.3-0.8,0.4c-0.3,0.1-0.6,0.2-0.9,0.3c0.4,0,0.7,0.1,1.1,0.1c0.4,0.1,0.7,0.2,1,0.4c0.3,0.2,0.5,0.4,0.7,0.6s0.3,0.6,0.3,0.9
		c0,0.4-0.1,0.7-0.3,1s-0.5,0.5-0.8,0.7s-0.7,0.3-1.1,0.4C21.2,43,20.8,43,20.4,43c-0.4,0-0.7,0-1.1-0.1c-0.3-0.1-0.6-0.2-0.9-0.4
		c-0.2-0.1-0.3-0.3-0.4-0.4s-0.2-0.4-0.2-0.6c0-0.3,0.1-0.5,0.3-0.7c0.2-0.2,0.4-0.2,0.7-0.2c0.3,0,0.5,0.1,0.6,0.2
		c0.2,0.1,0.2,0.4,0.2,0.7c0,0.2-0.1,0.4-0.2,0.6s-0.4,0.3-0.6,0.3c0.1,0.1,0.3,0.2,0.6,0.3c0.2,0.1,0.5,0.1,0.9,0.1
		c0.6,0,1.1-0.2,1.4-0.5c0.3-0.3,0.5-0.8,0.5-1.5c0-0.3-0.1-0.7-0.2-0.9c-0.1-0.3-0.3-0.5-0.5-0.7c-0.2-0.2-0.5-0.3-0.8-0.3
		c-0.1,0-0.1,0.1-0.2,0.1s-0.2,0-0.2,0c-0.1,0-0.1,0-0.2,0c0,0-0.1-0.1-0.1-0.1c0-0.1,0.1-0.2,0.3-0.2c0.1,0,0.2,0,0.2,0
		c0.1,0,0.2,0,0.2,0c0.3-0.1,0.5-0.3,0.6-0.5c0.2-0.2,0.3-0.4,0.3-0.7c0.1-0.2,0.1-0.5,0.1-0.8c0-0.5-0.1-0.9-0.3-1.2
		c-0.2-0.2-0.5-0.4-0.9-0.4c-0.4,0-0.8,0.1-1,0.3c-0.3,0.2-0.5,0.5-0.6,0.9c-0.1,0.4-0.2,0.7-0.3,1.2h-0.3c0-0.5,0-0.9,0-1.2
		c0-0.3,0-0.6,0-0.8c0-0.2,0-0.4,0-0.6h0.3c0,0.2,0.1,0.3,0.1,0.4c0,0.1,0.1,0.1,0.2,0.1c0.1,0,0.1,0,0.3-0.1
		c0.2-0.1,0.3-0.2,0.5-0.3c0.2-0.1,0.3-0.2,0.6-0.2C20.3,35,20.6,34.9,20.9,34.9z"/>
	<path class="st2" d="M24.5,42.9v-0.2c0.2,0,0.4,0,0.5-0.1s0.2-0.1,0.2-0.3c0-0.1,0.1-0.3,0.1-0.6v-5.5c0-0.3,0-0.5-0.1-0.6
		c0-0.1-0.1-0.2-0.2-0.3s-0.3-0.1-0.5-0.1v-0.2c0.2,0,0.4,0,0.7,0c0.3,0,0.6,0,1,0c0.3,0,0.6,0,0.9,0s0.5,0,0.7,0v0.2
		c-0.2,0-0.4,0-0.5,0.1c-0.1,0-0.2,0.1-0.2,0.3c0,0.1-0.1,0.3-0.1,0.6v5.5c0,0.3,0,0.5,0.1,0.6c0,0.1,0.1,0.2,0.2,0.3
		s0.3,0.1,0.5,0.1v0.2c-0.2,0-0.4,0-0.7,0c-0.3,0-0.6,0-0.9,0c-0.4,0-0.7,0-1,0C25,42.9,24.7,42.9,24.5,42.9z M26.4,39.1v-0.2h4.3
		v0.2H26.4z M29.2,42.9v-0.2c0.2,0,0.4,0,0.5-0.1s0.2-0.1,0.2-0.3c0-0.1,0.1-0.3,0.1-0.6v-5.5c0-0.3,0-0.5-0.1-0.6
		c0-0.1-0.1-0.2-0.2-0.3s-0.3-0.1-0.5-0.1v-0.2c0.2,0,0.5,0,0.8,0c0.3,0,0.6,0,1,0c0.3,0,0.7,0,1,0c0.3,0,0.5,0,0.7,0v0.2
		c-0.2,0-0.4,0-0.5,0.1c-0.1,0-0.2,0.1-0.2,0.3c0,0.1-0.1,0.3-0.1,0.6v5.5c0,0.3,0,0.5,0.1,0.6c0,0.1,0.1,0.2,0.2,0.3
		s0.3,0.1,0.5,0.1v0.2c-0.2,0-0.4,0-0.7,0c-0.3,0-0.6,0-1,0c-0.3,0-0.6,0-1,0C29.6,42.9,29.4,42.9,29.2,42.9z"/>
	<path class="st2" d="M37,35.1l2.7,6.9c0.1,0.3,0.2,0.4,0.3,0.5c0.1,0.1,0.2,0.2,0.3,0.2v0.2c-0.2,0-0.5,0-0.8,0c-0.3,0-0.6,0-0.9,0
		c-0.3,0-0.7,0-1,0c-0.3,0-0.5,0-0.7,0v-0.2c0.4,0,0.6-0.1,0.7-0.2c0.1-0.1,0.1-0.4-0.1-0.7l-1.9-5.1l0.2-0.3l-1.7,4.4
		c-0.2,0.5-0.3,1-0.3,1.2c0,0.3,0.1,0.5,0.3,0.6c0.2,0.1,0.4,0.2,0.7,0.2v0.2c-0.2,0-0.5,0-0.7,0c-0.2,0-0.4,0-0.7,0
		c-0.2,0-0.3,0-0.5,0c-0.1,0-0.3,0-0.4,0v-0.2c0.2,0,0.3-0.1,0.5-0.3c0.2-0.2,0.3-0.5,0.5-0.9l2.5-6.4c0.1,0,0.2,0,0.4,0
		S36.9,35.1,37,35.1z M37.8,39.7v0.2h-3.3l0.1-0.2H37.8z"/>
	<path class="st2" d="M46.8,35.1c0,0.4,0,0.7-0.1,1.1c0,0.3,0,0.6,0,0.8c0,0.2,0,0.3,0,0.5c0,0.1,0,0.3,0,0.4h-0.3
		c-0.1-0.6-0.3-1.1-0.4-1.5s-0.4-0.6-0.6-0.8c-0.2-0.2-0.5-0.2-0.9-0.2h-0.3v6.3c0,0.3,0,0.5,0.1,0.7c0.1,0.1,0.2,0.2,0.3,0.3
		c0.2,0,0.4,0.1,0.7,0.1v0.2c-0.2,0-0.5,0-0.9,0c-0.4,0-0.8,0-1.2,0c-0.4,0-0.8,0-1.1,0s-0.6,0-0.9,0v-0.2c0.3,0,0.6,0,0.7-0.1
		c0.2,0,0.3-0.1,0.3-0.3c0.1-0.1,0.1-0.4,0.1-0.7v-6.3h-0.2c-0.3,0-0.6,0.1-0.9,0.2c-0.2,0.2-0.5,0.4-0.6,0.8
		c-0.2,0.4-0.3,0.8-0.5,1.5h-0.3c0-0.1,0-0.2,0-0.4c0-0.1,0-0.3,0-0.5c0-0.2,0-0.4,0-0.8c0-0.3,0-0.7-0.1-1.1c0.3,0,0.7,0,1.1,0
		c0.4,0,0.8,0,1.2,0s0.8,0,1.1,0c0.3,0,0.7,0,1.1,0s0.8,0,1.2,0C46.1,35.1,46.5,35.1,46.8,35.1z"/>
	<path class="st2" d="M50.9,35.1v0.2c-0.2,0-0.4,0-0.5,0.1s-0.2,0.1-0.2,0.3c0,0.1-0.1,0.3-0.1,0.6v5.5c0,0.3,0,0.5,0.1,0.6
		c0,0.1,0.1,0.2,0.2,0.3s0.3,0.1,0.5,0.1v0.2c-0.2,0-0.4,0-0.7,0c-0.3,0-0.6,0-0.9,0c-0.4,0-0.7,0-1,0c-0.3,0-0.6,0-0.7,0v-0.2
		c0.2,0,0.4,0,0.5-0.1s0.2-0.1,0.2-0.3c0-0.1,0.1-0.3,0.1-0.6v-5.5c0-0.3,0-0.5-0.1-0.6c0-0.1-0.1-0.2-0.2-0.3s-0.3-0.1-0.5-0.1
		v-0.2c0.2,0,0.4,0,0.7,0c0.3,0,0.6,0,1,0c0.3,0,0.6,0,0.9,0S50.7,35.1,50.9,35.1z M53.4,35.7c0,0.2,0,0.3,0,0.5l-3.7,6.2l-0.1-0.3
		L53.4,35.7z M55.8,35.1v0.2c-0.2,0-0.4,0-0.5,0.1S55,35.5,55,35.7c0,0.1-0.1,0.3-0.1,0.6v5.5c0,0.3,0,0.5,0.1,0.6
		c0,0.1,0.1,0.2,0.2,0.3s0.3,0.1,0.5,0.1v0.2c-0.2,0-0.4,0-0.7,0c-0.3,0-0.6,0-1,0c-0.3,0-0.6,0-0.9,0c-0.3,0-0.6,0-0.7,0v-0.2
		c0.2,0,0.4,0,0.5-0.1s0.2-0.1,0.2-0.3c0-0.1,0.1-0.3,0.1-0.6v-5.5c0-0.3,0-0.5-0.1-0.6c0-0.1-0.1-0.2-0.2-0.3s-0.3-0.1-0.5-0.1
		v-0.2c0.2,0,0.4,0,0.7,0s0.6,0,0.9,0c0.4,0,0.7,0,1,0C55.3,35.1,55.6,35.1,55.8,35.1z"/>
	<path class="st2" d="M60.4,34.9c0.5,0,0.9,0.1,1.2,0.2s0.6,0.3,0.8,0.5c0.1,0.1,0.3,0.1,0.3,0s0.1-0.3,0.2-0.6h0.3c0,0.3,0,0.6,0,1
		c0,0.4,0,0.9,0,1.6h-0.3c0-0.3-0.1-0.6-0.1-0.9c-0.1-0.2-0.1-0.4-0.2-0.6c-0.1-0.2-0.2-0.3-0.4-0.5c-0.2-0.2-0.4-0.3-0.6-0.4
		c-0.2-0.1-0.5-0.1-0.8-0.1c-0.4,0-0.7,0.1-1,0.3c-0.3,0.2-0.5,0.5-0.7,0.9c-0.2,0.4-0.3,0.8-0.4,1.2c-0.1,0.5-0.1,0.9-0.1,1.4
		c0,0.5,0,1,0.1,1.4s0.2,0.9,0.4,1.2s0.4,0.6,0.7,0.8c0.3,0.2,0.6,0.3,1,0.3c0.2,0,0.5,0,0.7-0.1c0.2-0.1,0.5-0.2,0.6-0.4
		c0.3-0.2,0.5-0.5,0.6-0.8c0.1-0.3,0.2-0.8,0.2-1.3h0.3c0,0.7,0,1.3,0,1.7c0,0.4,0,0.8,0,1.1h-0.3c0-0.3-0.1-0.5-0.1-0.6
		c-0.1-0.1-0.2-0.1-0.3,0c-0.3,0.2-0.6,0.4-0.9,0.5S60.9,43,60.4,43c-0.8,0-1.5-0.2-2-0.5s-1-0.8-1.4-1.4c-0.3-0.6-0.5-1.3-0.5-2.1
		c0-0.8,0.2-1.5,0.5-2.2c0.3-0.6,0.8-1.1,1.4-1.4S59.6,34.9,60.4,34.9z"/>
	<path class="st2" d="M68.9,39l0,0.2h-1.2c-0.2,0-0.4,0.1-0.5,0.2c-0.1,0.1-0.2,0.3-0.3,0.6s-0.1,0.5-0.2,0.8l-0.2,1.1
		c-0.1,0.5-0.2,0.8-0.5,0.9c-0.3,0.2-0.6,0.3-1,0.3c-0.3,0-0.6,0-0.8-0.1c-0.2-0.1-0.4-0.3-0.6-0.5l0.2-0.1c0.1,0.1,0.1,0.1,0.2,0.2
		c0.1,0,0.1,0.1,0.2,0.1c0.1,0,0.2-0.1,0.3-0.2c0.1-0.1,0.1-0.3,0.2-0.6l0.2-1.1c0.1-0.5,0.3-0.8,0.6-1c0.3-0.2,0.8-0.3,1.5-0.4
		c0.1,0,0.3,0,0.4-0.1c0.1,0,0.3,0,0.6,0C68.2,39,68.5,39,68.9,39z M71.1,35.1v0.2c-0.2,0-0.4,0-0.5,0.1s-0.2,0.1-0.2,0.3
		c0,0.1-0.1,0.3-0.1,0.6v5.5c0,0.3,0,0.5,0.1,0.6c0,0.1,0.1,0.2,0.2,0.3s0.3,0.1,0.5,0.1v0.2c-0.2,0-0.4,0-0.7,0c-0.3,0-0.6,0-1,0
		c-0.3,0-0.6,0-0.9,0c-0.3,0-0.6,0-0.7,0v-0.2c0.2,0,0.4,0,0.5-0.1s0.2-0.1,0.2-0.3c0-0.1,0.1-0.3,0.1-0.6v-5.5c0-0.4,0-0.6-0.1-0.8
		s-0.3-0.2-0.6-0.2c-0.5,0-0.9,0.2-1.1,0.5c-0.2,0.3-0.3,0.8-0.3,1.3c0,0.3,0,0.7,0.1,0.9c0.1,0.3,0.2,0.5,0.5,0.7
		c0.2,0.2,0.6,0.2,1,0.2H69v0.2h-1.1c-0.9,0-1.5-0.1-2-0.3c-0.5-0.2-0.8-0.5-1-0.8s-0.3-0.7-0.3-1c0-0.6,0.3-1.1,0.8-1.5
		s1.3-0.5,2.3-0.5c0.1,0,0.4,0,0.7,0s0.7,0,1,0c0.3,0,0.6,0,0.9,0S70.9,35.1,71.1,35.1z"/>
	<path class="st2" d="M22.2,48.3c0,0.3,0,0.6-0.1,0.9c0,0.3,0,0.5,0,0.7c0,0.1,0,0.3,0,0.4c0,0.1,0,0.2,0,0.3h-0.3
		c-0.1-0.5-0.2-1-0.4-1.3c-0.2-0.3-0.4-0.5-0.6-0.7c-0.2-0.1-0.5-0.2-0.8-0.2h-0.3c-0.2,0-0.4,0-0.5,0.1s-0.2,0.1-0.2,0.2
		c0,0.1-0.1,0.3-0.1,0.5v5.6c0,0.4,0,0.6,0.1,0.8c0.1,0.1,0.2,0.2,0.5,0.2c0.4,0,0.6-0.1,0.8-0.2c0.2-0.2,0.3-0.4,0.4-0.7
		c0.1-0.3,0.1-0.7,0.1-1.1c0-0.4,0-0.8-0.1-1.1s-0.3-0.6-0.5-0.8c-0.2-0.2-0.6-0.3-1-0.3c-0.1,0-0.2,0-0.4,0c-0.1,0-0.3,0-0.4,0
		c-0.1,0-0.3,0-0.4,0v-0.2c0.2,0,0.5,0,0.7,0c0.2,0,0.5,0,0.6,0c0.6,0,1.1,0.1,1.5,0.2c0.4,0.1,0.7,0.3,1,0.5s0.4,0.5,0.5,0.7
		c0.1,0.3,0.2,0.6,0.2,0.9c0,0.4-0.1,0.8-0.3,1.1c-0.2,0.3-0.5,0.6-1,0.8s-1.1,0.3-1.8,0.3c-0.2,0-0.4,0-0.7,0s-0.6,0-1,0
		c-0.3,0-0.6,0-0.9,0c-0.3,0-0.6,0-0.7,0v-0.2c0.2,0,0.4,0,0.5-0.1s0.2-0.1,0.2-0.3c0-0.1,0.1-0.3,0.1-0.6v-5.5c0-0.3,0-0.5-0.1-0.6
		c0-0.1-0.1-0.2-0.2-0.3s-0.3-0.1-0.5-0.1v-0.2c0.4,0,0.8,0,1.3,0c0.5,0,0.9,0,1.3,0c0.4,0,0.7,0,1,0c0.3,0,0.7,0,1.1,0
		C21.5,48.3,21.9,48.3,22.2,48.3z"/>
	<path class="st2" d="M27,48.3v0.2c-0.2,0-0.4,0-0.5,0.1c-0.1,0-0.2,0.1-0.2,0.3c0,0.1-0.1,0.3-0.1,0.6v5.5c0,0.3,0,0.5,0.1,0.6
		c0,0.1,0.1,0.2,0.2,0.3s0.3,0.1,0.5,0.1v0.2c-0.2,0-0.4,0-0.7,0c-0.3,0-0.6,0-0.9,0c-0.4,0-0.7,0-1,0c-0.3,0-0.6,0-0.7,0v-0.2
		c0.2,0,0.4,0,0.5-0.1s0.2-0.1,0.2-0.3c0-0.1,0.1-0.3,0.1-0.6v-5.5c0-0.3,0-0.5-0.1-0.6c0-0.1-0.1-0.2-0.2-0.3s-0.3-0.1-0.5-0.1
		v-0.2c0.2,0,0.4,0,0.7,0c0.3,0,0.6,0,1,0c0.3,0,0.6,0,0.9,0S26.8,48.3,27,48.3z"/>
	<path class="st2" d="M34.9,48.3v0.2c-0.2,0-0.4,0-0.6,0.1c-0.1,0-0.2,0.1-0.3,0.3c0,0.1-0.1,0.3-0.1,0.6v5.5c0,0.3,0,0.5,0.1,0.6
		c0,0.1,0.1,0.2,0.3,0.3c0.1,0,0.3,0.1,0.6,0.1v0.2c-0.2,0-0.5,0-0.8,0c-0.3,0-0.7,0-1,0c-0.3,0-0.7,0-1,0c-0.3,0-0.6,0-0.8,0v-0.2
		c0.3,0,0.5,0,0.6-0.1c0.1,0,0.2-0.1,0.3-0.3c0-0.1,0.1-0.3,0.1-0.6v-5.5c0-0.4-0.1-0.7-0.2-0.8c-0.1-0.1-0.3-0.2-0.6-0.2h-0.1
		c-0.2,0-0.3,0-0.4,0.1c-0.1,0-0.2,0.1-0.2,0.3c0,0.1-0.1,0.3-0.1,0.6c0,0.5-0.1,1.1-0.1,1.7s-0.1,1.2-0.2,1.8
		c-0.1,0.6-0.2,1.1-0.3,1.6s-0.4,0.9-0.6,1.2c-0.3,0.3-0.6,0.4-1,0.4c-0.3,0-0.6-0.1-0.9-0.3s-0.4-0.4-0.4-0.7
		c0-0.3,0.1-0.5,0.3-0.7c0.2-0.2,0.4-0.3,0.7-0.3c0.2,0,0.4,0.1,0.6,0.2S29,54.7,29,55c0,0.3-0.1,0.5-0.2,0.6s-0.4,0.3-0.6,0.4
		c0,0,0.1,0,0.1,0c0,0,0.1,0,0.1,0c0.3,0,0.6-0.1,0.8-0.4s0.4-0.6,0.6-1.1c0.1-0.4,0.3-0.9,0.3-1.5c0.1-0.6,0.1-1.2,0.2-1.8
		s0.1-1.2,0.1-1.8c0-0.4,0-0.6-0.1-0.8c-0.1-0.1-0.4-0.2-0.8-0.2v-0.2c0.2,0,0.3,0,0.6,0s0.4,0,0.6,0c0.2,0,0.3,0,0.5,0
		c0.2,0,0.3,0,0.5,0c0.3,0,0.5,0,0.8,0c0.2,0,0.5,0,0.8,0c0.2,0,0.4,0,0.6,0c0.2,0,0.4,0,0.6,0C34.6,48.3,34.8,48.3,34.9,48.3z"/>
	<path class="st2" d="M39.1,48.3v0.2c-0.3,0-0.5,0-0.6,0.1s-0.2,0.1-0.3,0.3c0,0.1-0.1,0.3-0.1,0.6v5.5c0,0.4,0,0.6,0.1,0.8
		c0.1,0.1,0.2,0.2,0.5,0.2c0.4,0,0.6-0.1,0.8-0.3c0.2-0.2,0.3-0.4,0.4-0.7c0.1-0.3,0.1-0.7,0.1-1.1s0-0.8-0.1-1.1s-0.2-0.6-0.5-0.8
		c-0.2-0.2-0.5-0.3-0.9-0.3c-0.2,0-0.4,0-0.6,0c-0.2,0-0.4,0-0.6,0v-0.2c0.2,0,0.5,0,0.7,0c0.2,0,0.5,0,0.6,0c0.8,0,1.4,0.1,1.9,0.3
		s0.8,0.5,1,0.8c0.2,0.3,0.3,0.7,0.3,1.1c0,0.3-0.1,0.6-0.2,0.9s-0.3,0.6-0.6,0.8c-0.3,0.2-0.6,0.4-1,0.5c-0.4,0.1-0.9,0.2-1.4,0.2
		c-0.2,0-0.4,0-0.7,0c-0.3,0-0.6,0-1,0c-0.3,0-0.6,0-0.9,0c-0.3,0-0.6,0-0.7,0v-0.2c0.2,0,0.4,0,0.5-0.1s0.2-0.1,0.2-0.3
		c0-0.1,0.1-0.3,0.1-0.6v-5.5c0-0.3,0-0.5-0.1-0.6c0-0.1-0.1-0.2-0.2-0.3s-0.3-0.1-0.5-0.1v-0.2c0.2,0,0.4,0,0.7,0c0.3,0,0.6,0,1,0
		c0.3,0,0.6,0,1,0S38.9,48.3,39.1,48.3z"/>
	<path class="st2" d="M54.2,48.3v0.2c-0.2,0-0.4,0-0.5,0.1c-0.1,0-0.2,0.1-0.2,0.3c0,0.1-0.1,0.3-0.1,0.6v5.5c0,0.3,0,0.5,0.1,0.6
		c0,0.1,0.1,0.2,0.2,0.3s0.3,0.1,0.5,0.1v0.2c-0.2,0-0.4,0-0.7,0c-0.3,0-0.6,0-1,0c-0.4,0-0.7,0-1.1,0c-0.4,0-0.7,0-1,0
		c-0.2,0-0.4,0-0.6,0c-0.2,0-0.5,0-0.7,0c-0.2,0-0.5,0-0.7,0c-0.3,0-0.7,0-1.1,0c-0.4,0-0.7,0-1,0c-0.3,0-0.6,0-1,0
		c-0.4,0-0.7,0-1.1,0c-0.3,0-0.7,0-1,0c-0.3,0-0.5,0-0.7,0v-0.2c0.2,0,0.4,0,0.5-0.1s0.2-0.1,0.2-0.3c0-0.1,0.1-0.3,0.1-0.6v-5.5
		c0-0.3,0-0.5-0.1-0.6c0-0.1-0.1-0.2-0.2-0.3s-0.3-0.1-0.5-0.1v-0.2c0.2,0,0.4,0,0.7,0c0.3,0,0.6,0,1,0c0.3,0,0.6,0,0.8,0
		c0.3,0,0.5,0,0.7,0v0.2c-0.2,0-0.3,0-0.5,0.1c-0.1,0-0.2,0.1-0.2,0.3c0,0.1-0.1,0.3-0.1,0.6v5.5c0,0.4,0.1,0.7,0.2,0.8
		c0.1,0.1,0.4,0.2,0.7,0.2h0.6c0.4,0,0.6-0.1,0.7-0.2c0.1-0.1,0.2-0.4,0.2-0.8v-5.5c0-0.3,0-0.5,0-0.6c0-0.1-0.1-0.2-0.2-0.3
		c-0.1,0-0.3-0.1-0.5-0.1v-0.2c0.2,0,0.4,0,0.7,0c0.3,0,0.6,0,0.8,0c0.3,0,0.6,0,0.9,0c0.3,0,0.5,0,0.7,0v0.2c-0.2,0-0.3,0-0.5,0.1
		s-0.2,0.1-0.2,0.3c0,0.1,0,0.3,0,0.6v5.5c0,0.4,0.1,0.7,0.2,0.8s0.4,0.2,0.7,0.2h0.6c0.4,0,0.6-0.1,0.7-0.2
		c0.1-0.1,0.2-0.4,0.2-0.8v-5.5c0-0.3,0-0.5,0-0.6c0-0.1-0.1-0.2-0.2-0.3c-0.1,0-0.3-0.1-0.5-0.1v-0.2c0.2,0,0.4,0,0.7,0
		s0.6,0,0.8,0c0.4,0,0.7,0,1,0S54,48.3,54.2,48.3z"/>
	<path class="st2" d="M60.8,48.3c0,0.3,0,0.6-0.1,0.9c0,0.3,0,0.5,0,0.7c0,0.1,0,0.3,0,0.4c0,0.1,0,0.2,0,0.3h-0.3
		c-0.1-0.5-0.2-1-0.3-1.3c-0.2-0.3-0.4-0.5-0.6-0.7c-0.2-0.1-0.5-0.2-0.9-0.2h-0.5c-0.2,0-0.4,0-0.5,0.1s-0.2,0.1-0.2,0.2
		c0,0.1-0.1,0.3-0.1,0.5V55c0,0.2,0,0.4,0.1,0.5c0,0.1,0.1,0.2,0.2,0.2c0.1,0,0.3,0.1,0.5,0.1h0.5c0.3,0,0.6-0.1,0.9-0.2
		c0.3-0.1,0.5-0.4,0.6-0.7c0.2-0.3,0.3-0.8,0.4-1.4H61c0,0.2,0,0.5,0,0.9c0,0.2,0,0.4,0,0.7c0,0.3,0,0.6,0.1,1c-0.4,0-0.8,0-1.3,0
		c-0.5,0-0.9,0-1.3,0c-0.2,0-0.6,0-1,0c-0.4,0-0.8,0-1.3,0c-0.5,0-0.9,0-1.3,0v-0.2c0.2,0,0.4,0,0.5-0.1s0.2-0.1,0.2-0.3
		c0-0.1,0.1-0.3,0.1-0.6v-5.5c0-0.3,0-0.5-0.1-0.6c0-0.1-0.1-0.2-0.2-0.3s-0.3-0.1-0.5-0.1v-0.2c0.4,0,0.8,0,1.3,0
		c0.5,0,0.9,0,1.3,0c0.4,0,0.7,0,1,0c0.3,0,0.7,0,1.1,0C60.1,48.3,60.5,48.3,60.8,48.3z M59.1,52v0.2h-1.9V52H59.1z M59.4,50.6
		c0,0.4,0,0.7,0,1s0,0.4,0,0.6c0,0.2,0,0.4,0,0.6c0,0.2,0,0.5,0.1,1h-0.3c0-0.3-0.1-0.5-0.2-0.7c-0.1-0.2-0.2-0.4-0.4-0.5
		s-0.4-0.2-0.7-0.2V52c0.3,0,0.5-0.1,0.7-0.2c0.2-0.2,0.3-0.4,0.4-0.6c0.1-0.2,0.2-0.4,0.2-0.6H59.4z"/>
</g>
</svg>
