<svg xmlns="http://www.w3.org/2000/svg" id="Layer_1" data-name="Layer 1" viewBox="0 0 81.24 86.51"><defs><style>.cls-1{fill:#39b54a;}.cls-1,.cls-2{stroke:#39b54a;stroke-miterlimit:10;stroke-width:2px;}.cls-2{fill:#fff;}.cls-3{fill:#006837;}</style></defs><title>Diznatys_ru</title><path class="cls-1" d="M80.24,45.89A39.62,39.62,0,0,1,40.62,85.51H1V45.89a39.62,39.62,0,1,1,79.24,0Z"></path><path class="cls-2" d="M79.75,40.37A39.38,39.38,0,0,1,40.37,79.75H1V40.37a39.38,39.38,0,0,1,78.75,0Z"></path><path class="cls-3" d="M17.15,35v.22a1.15,1.15,0,0,0-.48.38,5.88,5.88,0,0,0-.57.88l-2.39,4.82-.26,0-3.11-5.46a2.22,2.22,0,0,0-.38-.51.73.73,0,0,0-.35-.16V35h3.22v.22a.75.75,0,0,0-.49.19c-.13.12-.11.35.05.69l2,3.55-.46.72,1.51-3.07a3.34,3.34,0,0,0,.43-1.25.69.69,0,0,0-.23-.64,1.19,1.19,0,0,0-.7-.19V35l.7,0h1.13Zm-3.42,5.75.21.09-.52,1c-.1.19-.18.34-.25.45a2.45,2.45,0,0,1-.23.29,1,1,0,0,1-.43.25A2.08,2.08,0,0,1,12,43a1.43,1.43,0,0,1-.89-.26.82.82,0,0,1-.33-.65.79.79,0,0,1,.29-.64,1.08,1.08,0,0,1,.69-.23,1.16,1.16,0,0,1,.68.18.58.58,0,0,1,.27.52.71.71,0,0,1-.22.52,1.36,1.36,0,0,1-.52.31.48.48,0,0,0,.22,0,.76.76,0,0,0,.55-.23,2.11,2.11,0,0,0,.44-.63Z"></path><path class="cls-3" d="M20.58,34.88a3.39,3.39,0,0,1,1.81.44,1.37,1.37,0,0,1,.7,1.22,1.41,1.41,0,0,1-.24.82,2.51,2.51,0,0,1-.63.63,4.15,4.15,0,0,1-.83.45,6.87,6.87,0,0,1-.86.26,5.38,5.38,0,0,1,1,.13,3.38,3.38,0,0,1,1,.38,2,2,0,0,1,.7.63,1.5,1.5,0,0,1,.27.9,1.63,1.63,0,0,1-.3,1,2.31,2.31,0,0,1-.78.7,4,4,0,0,1-1.1.43,5.32,5.32,0,0,1-1.27.15A4.83,4.83,0,0,1,19,42.86a2.31,2.31,0,0,1-.9-.4,1.72,1.72,0,0,1-.42-.43,1,1,0,0,1-.18-.58.84.84,0,0,1,.27-.66,1,1,0,0,1,.66-.24.88.88,0,0,1,.63.22.83.83,0,0,1,.24.66.81.81,0,0,1-.22.58,1.21,1.21,0,0,1-.62.34,1.74,1.74,0,0,0,.58.28,3.23,3.23,0,0,0,.87.11,1.91,1.91,0,0,0,1.42-.51,2,2,0,0,0,.51-1.47,2.91,2.91,0,0,0-.15-.95,1.55,1.55,0,0,0-.48-.71,1.32,1.32,0,0,0-.84-.3l-.23.1a.64.64,0,0,1-.24,0,.27.27,0,0,1-.16,0,.15.15,0,0,1-.07-.14c0-.12.08-.18.25-.18l.23,0,.23,0a1.5,1.5,0,0,0,.63-.45,1.81,1.81,0,0,0,.32-.67,4,4,0,0,0,.08-.78,1.76,1.76,0,0,0-.31-1.17,1.11,1.11,0,0,0-.91-.37,1.57,1.57,0,0,0-1,.33,2,2,0,0,0-.62.85,4,4,0,0,0-.26,1.18H18c0-.47,0-.85,0-1.17s0-.58,0-.8A5.15,5.15,0,0,0,18,35h.25a3.49,3.49,0,0,0,.09.45.2.2,0,0,0,.19.15.52.52,0,0,0,.26-.12c.16-.11.31-.2.47-.29a1.71,1.71,0,0,1,.55-.22A3.12,3.12,0,0,1,20.58,34.88Z"></path><path class="cls-3" d="M24.42,42.83V42.6a2,2,0,0,0,.53-.08.4.4,0,0,0,.23-.27,2.17,2.17,0,0,0,.06-.59V36.2a2.2,2.2,0,0,0-.06-.6.41.41,0,0,0-.24-.26,1.38,1.38,0,0,0-.52-.08V35l.75,0h1.9l.75,0v.22a1.5,1.5,0,0,0-.54.08.37.37,0,0,0-.23.26,2.2,2.2,0,0,0-.06.6v5.46a2.17,2.17,0,0,0,.06.59.38.38,0,0,0,.25.27,2,2,0,0,0,.52.08v.23q-.3,0-.75,0h-1.9A7.48,7.48,0,0,0,24.42,42.83ZM26.28,39V38.8h4.34V39Zm2.8,3.81V42.6a2,2,0,0,0,.53-.08.39.39,0,0,0,.24-.27,2.17,2.17,0,0,0,.06-.59V36.2a2.2,2.2,0,0,0-.06-.6.41.41,0,0,0-.24-.26,1.48,1.48,0,0,0-.53-.08V35l.78,0h1.9l.72,0v.22a1.44,1.44,0,0,0-.53.08.41.41,0,0,0-.24.26,2.29,2.29,0,0,0-.05.6v5.46a2.17,2.17,0,0,0,.06.59.39.39,0,0,0,.24.27,2,2,0,0,0,.52.08v.23a6.83,6.83,0,0,0-.72,0h-1.9Q29.38,42.8,29.08,42.83Z"></path><path class="cls-3" d="M37.11,35l2.68,6.89a1.27,1.27,0,0,0,.34.55.68.68,0,0,0,.35.15v.23q-.33,0-.78,0H37.85a6.49,6.49,0,0,0-.71,0V42.6c.37,0,.61-.07.7-.19s.08-.36-.07-.73L35.9,36.57l.2-.29-1.67,4.36a3.43,3.43,0,0,0-.3,1.23.57.57,0,0,0,.27.56,1.5,1.5,0,0,0,.7.17v.23l-.69,0H33.28a2.17,2.17,0,0,0-.38,0V42.6a.84.84,0,0,0,.47-.29,2.84,2.84,0,0,0,.48-.86L36.35,35l.38,0Zm.77,4.65v.22H34.61l.11-.22Z"></path><path class="cls-3" d="M47.17,35q0,.55-.06,1.08c0,.34,0,.6,0,.79s0,.31,0,.46,0,.27,0,.37h-.25a5.9,5.9,0,0,0-.45-1.46,1.7,1.7,0,0,0-.64-.76,1.67,1.67,0,0,0-.88-.23h-.25v6.28a1.86,1.86,0,0,0,.09.66.49.49,0,0,0,.35.29,2.71,2.71,0,0,0,.74.08v.23l-.91,0H42.59l-.87,0V42.6a2.79,2.79,0,0,0,.75-.08.48.48,0,0,0,.34-.29,1.86,1.86,0,0,0,.09-.66V35.29h-.24a1.67,1.67,0,0,0-.88.23,1.79,1.79,0,0,0-.64.75,6.25,6.25,0,0,0-.46,1.47h-.26a1.9,1.9,0,0,0,0-.37c0-.15,0-.3,0-.46s0-.45,0-.79,0-.71-.06-1.08l1.11,0h4.59Z"></path><path class="cls-3" d="M51.53,35v.22a1.71,1.71,0,0,0-.58.08.42.42,0,0,0-.26.26,1.81,1.81,0,0,0-.07.6v5.46a1.59,1.59,0,0,0,.12.75c.07.13.25.19.52.19a1.21,1.21,0,0,0,.83-.25,1.33,1.33,0,0,0,.42-.71,4.9,4.9,0,0,0,0-2.2,1.54,1.54,0,0,0-.47-.76,1.39,1.39,0,0,0-.94-.28H49.91v-.22h1.36a4.73,4.73,0,0,1,1.9.31,2.08,2.08,0,0,1,1,.8,2.16,2.16,0,0,1,.3,1.12,2.42,2.42,0,0,1-.18.91,2,2,0,0,1-.55.77,2.62,2.62,0,0,1-1,.53,4.56,4.56,0,0,1-1.42.19H48.79a7.12,7.12,0,0,0-.74,0V42.6a2,2,0,0,0,.52-.08.39.39,0,0,0,.24-.27,2.17,2.17,0,0,0,.06-.59V36.2a2.2,2.2,0,0,0-.06-.6.41.41,0,0,0-.24-.26,1.42,1.42,0,0,0-.52-.08V35l.74,0h2Z"></path><path class="cls-3" d="M15.85,48.24q0,.48-.06.93c0,.3,0,.53,0,.7s0,.28,0,.41,0,.25,0,.33h-.26a4.15,4.15,0,0,0-.39-1.27,1.5,1.5,0,0,0-.6-.66,1.62,1.62,0,0,0-.81-.19h-.32a1.5,1.5,0,0,0-.49.06.28.28,0,0,0-.21.21,1.6,1.6,0,0,0-.06.51v5.59a1.59,1.59,0,0,0,.12.75c.07.13.24.19.51.19a1.32,1.32,0,0,0,.85-.24,1.38,1.38,0,0,0,.41-.71,4.37,4.37,0,0,0,.12-1.09,4.23,4.23,0,0,0-.13-1.13,1.39,1.39,0,0,0-.48-.76,1.53,1.53,0,0,0-1-.27H12v-.22h1.36a5,5,0,0,1,1.51.2,2.74,2.74,0,0,1,1,.52,1.94,1.94,0,0,1,.54.75,2.28,2.28,0,0,1,.16.87,2.16,2.16,0,0,1-.32,1.14,2.22,2.22,0,0,1-1,.84,4.43,4.43,0,0,1-1.81.31H10.84a7.12,7.12,0,0,0-.74,0V55.8a2,2,0,0,0,.52-.08.39.39,0,0,0,.24-.27,2.17,2.17,0,0,0,.06-.59V49.4a2.2,2.2,0,0,0-.06-.6.42.42,0,0,0-.23-.26,1.44,1.44,0,0,0-.53-.08v-.22l1.28,0h3.38Z"></path><path class="cls-3" d="M21.44,48.08a4.16,4.16,0,0,1,2,.48,3.34,3.34,0,0,1,1.36,1.35,4.51,4.51,0,0,1,.48,2.16,4.46,4.46,0,0,1-.49,2.15,3.55,3.55,0,0,1-1.38,1.44,3.87,3.87,0,0,1-2,.52,4.27,4.27,0,0,1-2-.47A3.27,3.27,0,0,1,18,54.34a4.45,4.45,0,0,1-.49-2.14A4.53,4.53,0,0,1,18,50a3.82,3.82,0,0,1,1.38-1.44A3.94,3.94,0,0,1,21.44,48.08Zm-.05.2a1.43,1.43,0,0,0-1.07.5,3.29,3.29,0,0,0-.7,1.36,7.17,7.17,0,0,0-.25,2,6.47,6.47,0,0,0,.28,2,3.19,3.19,0,0,0,.76,1.33,1.45,1.45,0,0,0,1.06.47,1.4,1.4,0,0,0,1.07-.49,3.34,3.34,0,0,0,.71-1.37,7.67,7.67,0,0,0,.25-2,6.51,6.51,0,0,0-.29-2,3.21,3.21,0,0,0-.75-1.32A1.52,1.52,0,0,0,21.39,48.28Z"></path><path class="cls-3" d="M33.47,48.24v.22a1.54,1.54,0,0,0-.56.08.42.42,0,0,0-.26.26,1.81,1.81,0,0,0-.07.6v5.46a1.78,1.78,0,0,0,.07.59.39.39,0,0,0,.26.27,2.17,2.17,0,0,0,.56.08V56c-.2,0-.45,0-.77,0h-2c-.33,0-.6,0-.82,0V55.8a3,3,0,0,0,.63-.08.42.42,0,0,0,.28-.27,1.78,1.78,0,0,0,.07-.59V49.4c0-.4,0-.66-.17-.77a.79.79,0,0,0-.59-.17H30a1,1,0,0,0-.43.07.48.48,0,0,0-.23.27,2.46,2.46,0,0,0-.1.6c0,.52-.09,1.08-.13,1.69s-.11,1.22-.18,1.82a9.69,9.69,0,0,1-.34,1.64A3,3,0,0,1,28,55.73a1.42,1.42,0,0,1-1.88.17.9.9,0,0,1-.36-.74.88.88,0,0,1,.29-.69,1.08,1.08,0,0,1,.71-.25.92.92,0,0,1,.59.18.61.61,0,0,1,.22.5.93.93,0,0,1-.24.65,1.5,1.5,0,0,1-.64.37l.13,0h.15a1.11,1.11,0,0,0,.85-.38,3,3,0,0,0,.55-1.06A9.16,9.16,0,0,0,28.68,53q.12-.84.18-1.77c.05-.62.09-1.24.12-1.85q0-.59-.12-.75a1.24,1.24,0,0,0-.77-.19v-.22l.55,0h.59l.49,0H31l.82,0h1.7Z"></path><path class="cls-3" d="M37.88,48.24v.22a1.71,1.71,0,0,0-.58.08.42.42,0,0,0-.26.26,1.81,1.81,0,0,0-.07.6v5.46a1.59,1.59,0,0,0,.12.75c.07.13.25.19.52.19a1.21,1.21,0,0,0,.83-.25,1.33,1.33,0,0,0,.42-.71,4.9,4.9,0,0,0,0-2.2,1.54,1.54,0,0,0-.47-.76,1.44,1.44,0,0,0-.94-.28H36.26v-.22h1.36a4.73,4.73,0,0,1,1.9.31,2.08,2.08,0,0,1,1,.8,2.16,2.16,0,0,1,.3,1.12,2.42,2.42,0,0,1-.18.91,2,2,0,0,1-.55.77,2.62,2.62,0,0,1-1,.53,4.59,4.59,0,0,1-1.43.19H35.14a7.12,7.12,0,0,0-.74,0V55.8a2,2,0,0,0,.52-.08.39.39,0,0,0,.24-.27,2.17,2.17,0,0,0,.06-.59V49.4a2.2,2.2,0,0,0-.06-.6.41.41,0,0,0-.24-.26,1.42,1.42,0,0,0-.52-.08v-.22l.74,0h2Z"></path><path class="cls-3" d="M53.15,48.24v.22a1.44,1.44,0,0,0-.53.08.42.42,0,0,0-.23.26,2.2,2.2,0,0,0-.06.6v5.46a2.17,2.17,0,0,0,.06.59.39.39,0,0,0,.24.27,2,2,0,0,0,.52.08V56a6.49,6.49,0,0,0-.71,0h-1l-1.07,0-1,0-.61,0H47.4l-1.06,0-1,0-1,0-1.08,0h-1a6.49,6.49,0,0,0-.71,0V55.8a2,2,0,0,0,.53-.08.4.4,0,0,0,.23-.27,2.17,2.17,0,0,0,.06-.59V49.4a2.2,2.2,0,0,0-.06-.6.41.41,0,0,0-.24-.26,1.38,1.38,0,0,0-.52-.08v-.22l.75,0h1.83l.71,0v.22a1,1,0,0,0-.45.08.37.37,0,0,0-.21.26,2.2,2.2,0,0,0-.06.6v5.46a1.18,1.18,0,0,0,.17.77,1,1,0,0,0,.72.17h.56c.38,0,.62,0,.73-.17a1.18,1.18,0,0,0,.17-.77V49.4a2.83,2.83,0,0,0-.05-.6.43.43,0,0,0-.21-.26,1.05,1.05,0,0,0-.46-.08v-.22l.71,0h1.77l.7,0v.22a1.12,1.12,0,0,0-.46.08.43.43,0,0,0-.21.26,2.83,2.83,0,0,0-.05.6v5.46c0,.4.06.66.19.77a1.06,1.06,0,0,0,.7.17h.57a1,1,0,0,0,.72-.17,1.18,1.18,0,0,0,.17-.77V49.4a2.83,2.83,0,0,0,0-.6.37.37,0,0,0-.21-.26,1.05,1.05,0,0,0-.46-.08v-.22l.71,0h1.84Z"></path><path class="cls-3" d="M60,48.24c0,.32,0,.63-.06.93s0,.53,0,.7,0,.28,0,.41,0,.25,0,.33h-.25a4.59,4.59,0,0,0-.34-1.27,1.5,1.5,0,0,0-.6-.66,1.86,1.86,0,0,0-.87-.19h-.45a1.5,1.5,0,0,0-.49.06.32.32,0,0,0-.21.21,1.6,1.6,0,0,0-.06.51V55a1.6,1.6,0,0,0,.06.51.35.35,0,0,0,.21.22,1.93,1.93,0,0,0,.49.05H58a1.82,1.82,0,0,0,.88-.21,1.79,1.79,0,0,0,.64-.73,4.86,4.86,0,0,0,.42-1.4h.25c0,.23,0,.54,0,.92,0,.17,0,.41,0,.72s0,.63.06,1q-.55,0-1.26,0H55.41q-.7,0-1.29,0V55.8a2,2,0,0,0,.53-.08.4.4,0,0,0,.23-.27,2.17,2.17,0,0,0,.06-.59V49.4a2.2,2.2,0,0,0-.06-.6.41.41,0,0,0-.24-.26,1.38,1.38,0,0,0-.52-.08v-.22l1.29,0h3.44ZM58.29,52v.22H56.36V52Zm.32-1.45a9.32,9.32,0,0,0,0,1v.61c0,.18,0,.38,0,.6s0,.54.06,1h-.25a2.66,2.66,0,0,0-.21-.71,1.41,1.41,0,0,0-.42-.54,1.2,1.2,0,0,0-.72-.2V52a1,1,0,0,0,.71-.24,1.85,1.85,0,0,0,.41-.58,2.8,2.8,0,0,0,.19-.63Z"></path></svg>