<svg xmlns="http://www.w3.org/2000/svg" xmlns:xlink="http://www.w3.org/1999/xlink" id="Layer_1" x="0px" y="0px" viewBox="0 0 1280 180" style="enable-background:new 0 0 1280 180;" xml:space="preserve">
<style type="text/css">
	.st0{opacity:0.6;}
	.st1{opacity:0;}
	.st2{opacity:0;fill:#FFFFFF;}
	.st3{opacity:3.030303e-02;}
	.st4{opacity:3.030303e-02;fill:#FAFAFA;}
	.st5{opacity:6.060606e-02;}
	.st6{opacity:6.060606e-02;fill:#F4F4F4;}
	.st7{opacity:9.090909e-02;}
	.st8{opacity:9.090909e-02;fill:#EFEFEF;}
	.st9{opacity:0.1212;}
	.st10{opacity:0.1212;fill:#EAEAEA;}
	.st11{opacity:0.1515;}
	.st12{opacity:0.1515;fill:#E4E4E4;}
	.st13{opacity:0.1818;}
	.st14{opacity:0.1818;fill:#DFDFDF;}
	.st15{opacity:0.2121;}
	.st16{opacity:0.2121;fill:#DADADA;}
	.st17{opacity:0.2424;}
	.st18{opacity:0.2424;fill:#D5D5D5;}
	.st19{opacity:0.2727;}
	.st20{opacity:0.2727;fill:#CFCFCF;}
	.st21{opacity:0.303;}
	.st22{opacity:0.303;fill:#CACACA;}
	.st23{opacity:0.3333;}
	.st24{opacity:0.3333;fill:#C5C5C5;}
	.st25{opacity:0.3636;}
	.st26{opacity:0.3636;fill:#BFBFBF;}
	.st27{opacity:0.3939;}
	.st28{opacity:0.3939;fill:#BABABA;}
	.st29{opacity:0.4242;}
	.st30{opacity:0.4242;fill:#B5B5B5;}
	.st31{opacity:0.4545;}
	.st32{opacity:0.4545;fill:#AFAFAF;}
	.st33{opacity:0.4848;}
	.st34{opacity:0.4848;fill:#AAAAAA;}
	.st35{opacity:0.5152;}
	.st36{opacity:0.5152;fill:#A5A5A5;}
	.st37{opacity:0.5455;}
	.st38{opacity:0.5455;fill:#A0A0A0;}
	.st39{opacity:0.5758;}
	.st40{opacity:0.5758;fill:#9A9A9A;}
	.st41{opacity:0.6061;}
	.st42{opacity:0.6061;fill:#959595;}
	.st43{opacity:0.6364;}
	.st44{opacity:0.6364;fill:#909090;}
	.st45{opacity:0.6667;}
	.st46{opacity:0.6667;fill:#8A8A8A;}
	.st47{opacity:0.697;}
	.st48{opacity:0.697;fill:#858585;}
	.st49{opacity:0.7273;}
	.st50{opacity:0.7273;fill:#808080;}
	.st51{opacity:0.7576;}
	.st52{opacity:0.7576;fill:#7A7A7A;}
	.st53{opacity:0.7879;}
	.st54{opacity:0.7879;fill:#757575;}
	.st55{opacity:0.8182;}
	.st56{opacity:0.8182;fill:#707070;}
	.st57{opacity:0.8485;}
	.st58{opacity:0.8485;fill:#6B6B6B;}
	.st59{opacity:0.8788;}
	.st60{opacity:0.8788;fill:#656565;}
	.st61{opacity:0.9091;}
	.st62{opacity:0.9091;fill:#606060;}
	.st63{opacity:0.9394;}
	.st64{opacity:0.9394;fill:#5B5B5B;}
	.st65{opacity:0.9697;}
	.st66{opacity:0.9697;fill:#555555;}
	.st67{fill:#505050;}
	.st68{fill:#FFFFFF;}
</style>
<g class="st0">
	<g class="st1">
		<g>
			<g>
				<path class="st2" d="M109.9,52.1v84.1c0,27.1,26.3,46.4,52.2,38.3c135.4-42.7,278.4-66.5,430.1-70.4      c184.9-4.7,360.3,17.1,525.6,68.8c25.8,8.1,52.1-11.2,52.1-38.3V52.1c0-22.2-18-40.1-40.1-40.1H150.1      C127.9,12,109.9,30,109.9,52.1z"></path>
			</g>
		</g>
	</g>
	<g class="st3">
		<g>
			<path class="st4" d="M113.8,52.9v81.9c0,26.9,26.1,46.1,51.8,38.1c134.4-42,276.4-65.4,427-69.3c183.6-4.6,357.7,16.8,521.8,67.7     c25.7,8,51.7-11.3,51.7-38.1V52.9c0-22-17.9-39.9-39.9-39.9H153.7C131.7,13,113.8,30.9,113.8,52.9z"></path>
		</g>
	</g>
	<g class="st5">
		<g>
			<path class="st6" d="M117.7,53.8v79.7c0,26.8,25.9,45.8,51.5,37.9c133.4-41.3,274.3-64.4,423.8-68.2c182.2-4.6,355,16.6,518,66.7     c25.5,7.8,51.3-11.3,51.3-38V53.8c0-21.9-17.8-39.7-39.7-39.7H157.4C135.4,14,117.7,31.8,117.7,53.8z"></path>
		</g>
	</g>
	<g class="st7">
		<g>
			<path class="st8" d="M121.5,54.6v77.6c0,26.6,25.7,45.6,51.1,37.8c132.4-40.7,272.3-63.4,420.7-67.1     c180.9-4.5,352.4,16.3,514.1,65.6c25.4,7.7,51-11.3,51-37.8v-76c0-21.8-17.7-39.5-39.5-39.5H161     C139.2,15.1,121.5,32.8,121.5,54.6z"></path>
		</g>
	</g>
	<g class="st9">
		<g>
			<path class="st10" d="M125.4,55.4v75.4c0,26.4,25.5,45.3,50.7,37.6c131.4-40,270.3-62.3,417.5-66c179.5-4.4,349.8,16,510.3,64.5     c25.2,7.6,50.6-11.3,50.6-37.6V55.4c0-21.7-17.6-39.3-39.3-39.3H164.7C143,16.1,125.4,33.7,125.4,55.4z"></path>
		</g>
	</g>
	<g class="st11">
		<g>
			<path class="st12" d="M129.2,56.2v73.2c0,26.2,25.3,45,50.4,37.5C310,127.5,447.8,105.6,594,102c178.2-4.3,347.1,15.8,506.4,63.4     c25.1,7.5,50.3-11.3,50.3-37.5V56.2c0-21.6-17.5-39.1-39.1-39.1H168.4C146.8,17.1,129.2,34.6,129.2,56.2z"></path>
		</g>
	</g>
	<g class="st13">
		<g>
			<path class="st14" d="M133.1,57.1v71c0,26,25.1,44.7,50,37.3c129.4-38.7,266.2-60.2,411.2-63.8c176.8-4.3,344.5,15.5,502.6,62.3     c24.9,7.4,49.9-11.3,49.9-37.3V57.1c0-21.5-17.4-38.9-38.9-38.9H172C150.5,18.1,133.1,35.6,133.1,57.1z"></path>
		</g>
	</g>
	<g class="st15">
		<g>
			<path class="st16" d="M137,57.9v68.8c0,25.9,24.9,44.4,49.6,37.1c128.4-38,264.2-59.2,408.1-62.7     c175.5-4.2,341.8,15.2,498.7,61.3c24.8,7.2,49.5-11.3,49.5-37.2V57.9c0-21.4-17.3-38.7-38.7-38.7H175.7     C154.3,19.1,137,36.5,137,57.9z"></path>
		</g>
	</g>
	<g class="st17">
		<g>
			<path class="st18" d="M140.8,58.7v66.6c0,25.7,24.6,44.2,49.3,37C317.5,125,452.2,104.2,595,100.8c174.1-4.1,339.2,15,494.9,60.2     c24.6,7.1,49.2-11.4,49.2-37V58.7c0-21.3-17.3-38.5-38.5-38.5H179.4C158.1,20.2,140.8,37.4,140.8,58.7z"></path>
		</g>
	</g>
	<g class="st19">
		<g>
			<path class="st20" d="M144.7,59.5V124c0,25.5,24.4,43.9,48.9,36.8c126.4-36.7,260.1-57.1,401.8-60.5c172.7-4,336.6,14.7,491,59.1     c24.5,7,48.8-11.4,48.8-36.8V59.5c0-21.2-17.2-38.3-38.3-38.3H183C161.8,21.2,144.7,38.4,144.7,59.5z"></path>
		</g>
	</g>
	<g class="st21">
		<g>
			<path class="st22" d="M148.5,60.4v62.3c0,25.3,24.2,43.6,48.5,36.7c125.4-36,258-56.1,398.6-59.4c171.4-4,333.9,14.4,487.2,58     c24.3,6.9,48.5-11.4,48.5-36.7V60.4c0-21.1-17.1-38.1-38.1-38.1H186.7C165.6,22.2,148.5,39.3,148.5,60.4z"></path>
		</g>
	</g>
	<g class="st23">
		<g>
			<path class="st24" d="M152.4,61.2v60.1c0,25.1,24,43.3,48.2,36.5c124.5-35.3,256-55,395.5-58.2c170-3.9,331.3,14.1,483.3,56.9     c24.1,6.8,48.1-11.4,48.1-36.5V61.2c0-21-17-38-38-38H190.3C169.4,23.2,152.4,40.2,152.4,61.2z"></path>
		</g>
	</g>
	<g class="st25">
		<g>
			<path class="st26" d="M156.3,62v57.9c0,25,23.8,43,47.8,36.3c123.5-34.7,254-54,392.3-57.1c168.7-3.8,328.7,13.9,479.5,55.9     c24,6.6,47.7-11.4,47.7-36.4V62c0-20.9-16.9-37.8-37.8-37.8H194C173.2,24.2,156.3,41.2,156.3,62z"></path>
		</g>
	</g>
	<g class="st27">
		<g>
			<path class="st28" d="M160.1,62.8v55.7c0,24.8,23.6,42.8,47.4,36.2c122.5-34,251.9-52.9,389.2-56c167.3-3.7,326,13.6,475.6,54.8     c23.8,6.5,47.4-11.4,47.4-36.2V62.8c0-20.7-16.8-37.6-37.6-37.6H197.7C176.9,25.3,160.1,42.1,160.1,62.8z"></path>
		</g>
	</g>
	<g class="st29">
		<g>
			<path class="st30" d="M164,63.6v53.5c0,24.6,23.4,42.5,47.1,36c121.5-33.3,249.9-51.9,386-54.9c166-3.7,323.4,13.3,471.8,53.7     c23.7,6.4,47-11.5,47-36V63.6c0-20.6-16.7-37.4-37.4-37.4H201.3C180.7,26.3,164,43,164,63.6z"></path>
		</g>
	</g>
	<g class="st31">
		<g>
			<path class="st32" d="M167.8,64.5v51.3c0,24.4,23.2,42.2,46.7,35.8C335,119,462.4,100.8,597.4,97.8     c164.6-3.6,320.7,13.1,467.9,52.6c23.5,6.3,46.7-11.5,46.7-35.9V64.5c0-20.5-16.6-37.2-37.2-37.2H205     C184.5,27.3,167.8,43.9,167.8,64.5z"></path>
		</g>
	</g>
	<g class="st33">
		<g>
			<path class="st34" d="M171.7,65.3v49.2c0,24.2,23,41.9,46.4,35.7c119.5-32,245.8-49.8,379.8-52.7     c163.3-3.5,318.1,12.8,464.1,51.5c23.4,6.2,46.3-11.5,46.3-35.7v-48c0-20.4-16.5-37-37-37H208.7     C188.2,28.3,171.7,44.9,171.7,65.3z"></path>
		</g>
	</g>
	<g class="st35">
		<g>
			<path class="st36" d="M175.5,66.1v47c0,24.1,22.7,41.6,46,35.5C340.1,117.3,465.3,99.8,598.1,97c161.9-3.5,315.5,12.5,460.2,50.5     c23.2,6,45.9-11.5,45.9-35.5V66.1c0-20.3-16.5-36.8-36.8-36.8H212.3C192,29.4,175.5,45.8,175.5,66.1z"></path>
		</g>
	</g>
	<g class="st37">
		<g>
			<path class="st38" d="M179.4,66.9v44.8c0,23.9,22.5,41.3,45.6,35.4c117.5-30.6,241.7-47.7,373.5-50.5     c160.6-3.4,312.8,12.3,456.4,49.4c23.1,5.9,45.6-11.5,45.6-35.4V66.9c0-20.2-16.4-36.6-36.6-36.6H216     C195.8,30.4,179.4,46.7,179.4,66.9z"></path>
		</g>
	</g>
	<g class="st39">
		<g>
			<path class="st40" d="M183.3,67.8v42.6c0,23.7,22.3,41.1,45.3,35.2c116.5-30,239.7-46.7,370.3-49.4     c159.2-3.3,310.2,12,452.5,48.3c22.9,5.8,45.2-11.5,45.2-35.2V67.8c0-20.1-16.3-36.4-36.4-36.4H219.6     C199.6,31.4,183.3,47.7,183.3,67.8z"></path>
		</g>
	</g>
	<g class="st41">
		<g>
			<path class="st42" d="M187.1,68.6V109c0,23.5,22.1,40.8,44.9,35c115.5-29.3,237.7-45.6,367.2-48.3     c157.8-3.2,307.6,11.7,448.7,47.2c22.8,5.7,44.9-11.5,44.9-35.1V68.6c0-20-16.2-36.2-36.2-36.2H223.3     C203.3,32.4,187.1,48.6,187.1,68.6z"></path>
		</g>
	</g>
	<g class="st43">
		<g>
			<path class="st44" d="M191,69.4v38.2c0,23.3,21.9,40.5,44.5,34.9c114.6-28.6,235.6-44.6,364-47.2     c156.5-3.2,304.9,11.5,444.8,46.2c22.6,5.6,44.5-11.6,44.5-34.9V69.4c0-19.9-16.1-36-36-36H227C207.1,33.4,191,49.5,191,69.4z"></path>
		</g>
	</g>
	<g class="st45">
		<g>
			<path class="st46" d="M194.8,70.2v36.1c0,23.2,21.7,40.2,44.2,34.7c113.6-28,233.6-43.6,360.9-46.1     c155.1-3.1,302.3,11.2,441,45.1c22.5,5.5,44.1-11.6,44.1-34.7v-35c0-19.8-16-35.8-35.8-35.8H230.6     C210.9,34.5,194.8,50.5,194.8,70.2z"></path>
		</g>
	</g>
	<g class="st47">
		<g>
			<path class="st48" d="M198.7,71.1v33.9c0,23,21.5,39.9,43.8,34.6c112.6-27.3,231.6-42.5,357.7-45c153.8-3,299.6,10.9,437.2,44     c22.3,5.3,43.8-11.6,43.8-34.6V71.1c0-19.7-15.9-35.6-35.6-35.6H234.3C214.6,35.5,198.7,51.4,198.7,71.1z"></path>
		</g>
	</g>
	<g class="st49">
		<g>
			<path class="st50" d="M202.6,71.9v31.7c0,22.8,21.3,39.7,43.4,34.4c111.6-26.6,229.5-41.5,354.6-43.9     c152.4-2.9,297,10.7,433.3,42.9c22.2,5.2,43.4-11.6,43.4-34.4V71.9c0-19.5-15.8-35.4-35.4-35.4H238     C218.4,36.5,202.6,52.3,202.6,71.9z"></path>
		</g>
	</g>
	<g class="st51">
		<g>
			<path class="st52" d="M206.4,72.7v29.5c0,22.6,21.1,39.4,43.1,34.2C360.1,110.5,477,96,600.9,93.6     c151.1-2.9,294.4,10.4,429.5,41.8c22,5.1,43.1-11.6,43.1-34.2V72.7c0-19.4-15.8-35.2-35.2-35.2H241.6     C222.2,37.5,206.4,53.3,206.4,72.7z"></path>
		</g>
	</g>
	<g class="st53">
		<g>
			<path class="st54" d="M210.3,73.5v27.3c0,22.4,20.9,39.1,42.7,34.1c109.6-25.3,225.4-39.4,348.3-41.7     C751,90.4,893,103.3,1026.9,134c21.9,5,42.7-11.6,42.7-34.1V73.5c0-19.3-15.7-35-35-35H245.3C226,38.5,210.3,54.2,210.3,73.5z"></path>
		</g>
	</g>
	<g class="st55">
		<g>
			<path class="st56" d="M214.1,74.4v25.1c0,22.3,20.6,38.8,42.3,33.9c108.6-24.6,223.4-38.4,345.1-40.6     c148.4-2.7,289.1,9.9,421.8,39.7c21.7,4.9,42.4-11.7,42.4-33.9V74.4c0-19.2-15.6-34.8-34.8-34.8h-782     C229.7,39.6,214.1,55.1,214.1,74.4z"></path>
		</g>
	</g>
	<g class="st57">
		<g>
			<path class="st58" d="M218,75.2v23c0,22.1,20.4,38.5,42,33.8c107.6-24,221.4-37.3,342-39.5c147-2.6,286.5,9.6,417.9,38.6     c21.6,4.7,42-11.7,42-33.8V75.2c0-19.1-15.5-34.6-34.6-34.6H252.6C233.5,40.6,218,56.1,218,75.2z"></path>
		</g>
	</g>
	<g class="st59">
		<g>
			<path class="st60" d="M221.9,76v20.8c0,21.9,20.2,38.3,41.6,33.6C370.1,107.1,482.8,94.1,602.3,92     c145.7-2.6,283.8,9.3,414.1,37.5c21.4,4.6,41.6-11.7,41.6-33.6V76c0-19-15.4-34.4-34.4-34.4H256.3C237.3,41.6,221.9,57,221.9,76z     "></path>
		</g>
	</g>
	<g class="st61">
		<g>
			<path class="st62" d="M225.7,76.8v18.6c0,21.7,20,38,41.3,33.4c105.6-22.6,217.3-35.2,335.7-37.3c144.3-2.5,281.2,9.1,410.2,36.4     c21.3,4.5,41.3-11.7,41.3-33.4V76.8c0-18.9-15.3-34.2-34.2-34.2h-760C241,42.6,225.7,57.9,225.7,76.8z"></path>
		</g>
	</g>
	<g class="st63">
		<g>
			<path class="st64" d="M229.6,77.6V94c0,21.6,19.8,37.7,40.9,33.3C375.1,105.4,485.7,93.1,603,91.1c143-2.4,278.5,8.8,406.4,35.4     c21.1,4.4,40.9-11.7,40.9-33.3V77.6c0-18.8-15.2-34-34-34H263.6C244.8,43.6,229.6,58.9,229.6,77.6z"></path>
		</g>
	</g>
	<g class="st65">
		<g>
			<path class="st66" d="M233.4,78.5v14.2c0,21.4,19.6,37.4,40.5,33.1c103.7-21.3,213.2-33.1,329.4-35.1     c141.6-2.3,275.9,8.5,402.5,34.3c21,4.3,40.6-11.7,40.6-33.1V78.5c0-18.7-15.1-33.8-33.8-33.8H267.2     C248.6,44.7,233.4,59.8,233.4,78.5z"></path>
		</g>
	</g>
	<g>
		<g>
			<g>
				<path class="st67" d="M237.3,79.3v12c0,21.2,19.4,37.1,40.2,33c102.7-20.6,211.2-32.1,326.2-34c140.2-2.3,273.3,8.2,398.7,33.2      c20.8,4.1,40.2-11.7,40.2-33V79.3c0-18.6-15-33.6-33.6-33.6h-738C252.3,45.7,237.3,60.7,237.3,79.3z"></path>
			</g>
		</g>
	</g>
</g>
<g>
	<g>
		<g>
			<path class="st68" d="M0,0v180c181.9-53.7,375.5-83.5,582.4-87.9c246.9-5.2,479.7,22,697.6,86.2V0H0z"></path>
		</g>
	</g>
</g>
</svg>