<?xml version="1.0" encoding="utf-8"?>
<!-- Generator: Adobe Illustrator 21.0.0, SVG Export Plug-In . SVG Version: 6.00 Build 0)  -->
<svg version="1.1" id="Слой_1" xmlns="http://www.w3.org/2000/svg" xmlns:xlink="http://www.w3.org/1999/xlink" x="0px" y="0px"
	 viewBox="0 0 92.8 46.5" style="enable-background:new 0 0 92.8 46.5;" xml:space="preserve">
<style type="text/css">
	.st0{fill:url(#SVGID_1_);}
	.st1{fill:none;stroke:#9B9B9B;stroke-width:0.4354;stroke-miterlimit:10;}
	.st2{fill:#FFFFFF;}
</style>
<linearGradient id="SVGID_1_" gradientUnits="userSpaceOnUse" x1="-16.4777" y1="-51.0713" x2="76.3289" y2="-51.0713" gradientTransform="matrix(1 0 0 1 16.4777 74.3253)">
	<stop  offset="0" style="stop-color:#B16B34"/>
	<stop  offset="0.4" style="stop-color:#ECC89B"/>
	<stop  offset="0.5" style="stop-color:#F3CB9E"/>
	<stop  offset="0.6" style="stop-color:#ECC89B"/>
	<stop  offset="0.6908" style="stop-color:#E1B789"/>
	<stop  offset="0.8727" style="stop-color:#C68C59"/>
	<stop  offset="1" style="stop-color:#B16B34"/>
</linearGradient>
<path class="st0" d="M92.2,32.1c-0.3-0.3-7.9-7.8-15.1-8.9c-0.6-0.1-1.2-0.1-1.9-0.1c3.2-3.1,5.1-11.2,5.5-12.9
	c0.1-0.6,0-1.3-0.4-1.8c-0.4-0.5-1-0.8-1.7-0.9c0,0-0.4,0-1.1,0c-3.3,0-9.5,0.4-13.5,3.1c-1.5,1-2.5,2.1-3.4,3.3
	c-1.2-0.5-2.7-1-4.4-1.7l-3.1-1.9c-0.4-0.4-1.2-1-2.9-1.8c-0.7-0.5-1.9-1.3-3.2-1.3c-0.2,0-0.4,0.1-0.5,0.1l-7.1-4.8
	c-0.3-0.5-0.6-0.9-1.2-1.1l-1.4-0.5c-0.2-0.2-0.4-0.3-0.4-0.3C36,0.1,35.3-0.1,34.6,0c-0.7,0.1-1.2,0.5-1.5,1.1
	c-0.1,0.3-2.5,4.8-3.1,10.2c-0.4-0.3-0.7-0.6-1.1-0.9c-4-2.7-10.2-3.1-13.5-3.1c-0.7,0-1.1,0-1.1,0c-0.7,0-1.3,0.3-1.7,0.9
	c-0.4,0.5-0.6,1.2-0.4,1.8c0.4,1.6,2.2,9.8,5.5,12.9c-0.6,0-1.2,0-1.9,0.1C8.5,24.2,1,31.6,0.7,31.9C0.2,32.4,0,33,0,33.7
	c0.1,0.7,0.4,1.2,0.9,1.6c1,0.7,10,7,15.3,7c0,0,0.2,0,0.2,0c2.3-0.1,4.3-0.7,5.9-1.6c2.6,3.5,6.9,5.9,11.6,5.9
	c4,0,7.7-1.6,10.4-4.3c0.9,0.2,1.9,0.3,2.9,0.3c1.2,0,2.4-0.2,3.5-0.4c2.6,2.4,6,3.8,9.8,3.8c4.3,0,8.1-1.8,10.8-4.8
	c1.5,0.7,3.1,1.1,5,1.2c0,0,0.2,0,0.2,0c5.3,0,14.3-6.2,15.3-6.9c0.5-0.4,0.9-1,0.9-1.6C92.9,33.2,92.6,32.5,92.2,32.1z"/>
<g>
	<path class="st1" d="M76.7,25.4c-1.1-0.2-2.1-0.1-3.1-0.1c-0.5,0.1-1.1,0.1-1.6,0.2c-0.3,0.1-0.5,0.1-0.8,0.2
		c0.4,0.7,0.7,1.3,0.9,2.1c0.2,0.5,0.3,1.1,0.4,1.6c0.1,0.7,0.2,1.4,0.2,2.1c0,0.2,0,0.3-0.1,0.5c0.2,0.1,0.5,0.2,0.7,0.3
		c0.5,0.2,1,0.3,1.5,0.5c2.7,0.8,5.7,1.3,5.7,1.3s-2.9-0.1-5.9-0.2c-0.5,0-1-0.1-1.5-0.1c-0.3,0-0.5,0-0.8,0
		c-0.1,0.8-0.4,1.5-0.7,2.2c0,0.1-0.1,0.2-0.1,0.3c-0.3,0.7-0.7,1.3-1.1,2c0.2,0.1,0.4,0.3,0.7,0.4c0.4,0.2,0.9,0.5,1.3,0.7
		c1.1,0.4,2.3,0.7,3.7,0.8c0,0,0.1,0,0.1,0c4.7,0,14-6.5,14-6.5S83.3,26.4,76.7,25.4z M37.5,9.6l4.4,0.2l0.1,0l2,0.1l0.1,0l2.2,0.1
		c0-0.1,0-0.1,0.1-0.2l-0.7-0.4l-1.2-0.7l-1.8-1.1l-3.6-2.2L37,4.3c-0.2,0.4-0.5,1-0.7,1.7c0,0.1-0.1,0.3-0.1,0.4
		c-0.1,0.3-0.2,0.6-0.3,0.9c-0.2,0.7-0.4,1.4-0.6,2.2L37.5,9.6z M59.5,16.7l0.8,0.5l0.8,0.5l0.4,0.2l0,0l0.1,0l0.1,0l0,0l0.9,0.7
		l0.2,0.2l0.1,0.1c0,0-0.1,0.2-0.4,0.5c0.3,0,0.6-0.1,0.9-0.1c0.3,0,0.6-0.1,0.8-0.1c0.2,0,0.4-0.1,0.6-0.1l0.2,0
		c0.4-0.1,0.8-0.2,1.2-0.2c0.2,0,0.4-0.1,0.6-0.2c2.5-0.8,5.9-3,5.9-3s-2.3,2-4.5,3.8c-0.2,0.2-0.5,0.4-0.7,0.5
		c-0.2,0.2-0.4,0.3-0.6,0.4c-0.2,0.2-0.5,0.3-0.7,0.5c1.3,0.7,2.5,1.6,3.5,2.7c0.3-0.1,0.5-0.1,0.8-0.2c0.5-0.2,1-0.4,1.4-0.6
		c0.5-0.3,1-0.6,1.5-1c3-2.5,5-11.9,5-11.9s-8.6-0.4-13.2,2.7c-1,0.7-1.8,1.5-2.5,2.3c-0.3,0.3-0.5,0.7-0.7,1c0,0,0,0.1-0.1,0.1
		c-0.2,0.3-0.3,0.6-0.5,0.8c-0.4-0.1-0.9-0.3-1.4-0.5c-0.2-0.1-0.5-0.2-0.7-0.3c-1.2-0.5-2.7-1-4.2-1.7l3.9,2.3L59.5,16.7z
		 M46.3,9.8C46.3,9.8,46.3,9.8,46.3,9.8L46.3,9.8L46.3,9.8z M44,10.9l-0.3,0l0,0l-2.5,0L37.2,11l-2.3,0c-0.1,0.7-0.1,1.3-0.2,2
		c0,0.1,0,0.1,0,0.2c0,0.7,0.1,1.4,0.2,2.1l2.2-0.7l4.4-1.5l2.5-0.8l0.5-0.2l0.8-0.3l0.1,0l1.3-0.4c-0.1-0.2-0.3-0.4-0.3-0.6l-0.6,0
		L44,10.9z M46,12.2l-0.1,0l-1.1,0.5l-0.9,0.4l-1.6,0.7l-5,2.1l-2,0.8l-0.1-0.1c0.1,0.4,0.2,0.8,0.4,1.2c0.1,0.3,0.3,0.6,0.5,0.9
		c0,0.1,0.1,0.1,0.1,0.2c0,0.1,0.1,0.1,0.1,0.2c0.1,0.1,0.1,0.2,0.2,0.3c0.2,0.3,0.4,0.5,0.6,0.7c0.1,0.1,0.1,0.2,0.2,0.3
		c0.1,0,0.3,0.1,0.4,0.1c0.2-0.2,0.3-0.4,0.5-0.6c0.3-0.3,0.5-0.6,0.8-0.8c0.1-0.1,0.3-0.2,0.4-0.3c0.6-0.5,1.3-0.9,2-1.3l1.8-1.6
		l0.2-0.2l2.1-1.8l0.2-0.1l0.2-0.2l0.5-0.5l0.4-0.3l0,0l0.2-0.2l0.3-0.3c-0.1-0.1-0.2-0.1-0.3-0.2c-0.1,0-0.1-0.1-0.2-0.1L46.6,12
		L46,12.2z M47.4,13l-0.2,0.2l-0.5,0.5l-0.3,0.4l-0.5,0.6l-0.6,0.7l-0.9,1c0.2,0,0.4-0.1,0.5-0.2c0.8-0.2,1.6-0.2,2.4-0.2
		c0,0,0.1,0,0.1,0l0-0.1l0.3-0.6l0.1-0.4l0.4-0.9l0.1-0.2l0.1-0.3l0.3-0.7c0,0-0.1,0-0.1,0c-0.2-0.1-0.3-0.1-0.5-0.2
		c0,0-0.1,0-0.1-0.1c0,0,0,0,0,0l-0.1,0.2L47.4,13L47.4,13z M48.5,13.5l-0.1,0.2l-0.1,0.4l-0.2,0.8L48,15.2l-0.2,0.5L47.8,16
		c0.6,0,1.1,0.1,1.7,0.2c0.1,0,0.2,0,0.2,0l-0.1-0.8l0-0.2L49.5,14l0,0l0-0.1l0-0.3l-0.1-0.6c0,0-0.1,0-0.1,0c-0.1,0-0.2,0-0.2,0
		c-0.1,0-0.2,0-0.3-0.1L48.5,13.5L48.5,13.5z M51.9,14.5l0.1,0.1l0.4,0.6l0.1,0.2l0.2,0.4l0.7,1l0.9,1.4c0.1,0.1,0.2,0.2,0.3,0.2
		c0.4,0.3,0.9,0.7,1.3,1.1c0.1,0.1,0.1,0.1,0.2,0.2c0.1,0.1,0.2,0.3,0.4,0.4c0.3-0.1,0.5-0.2,0.8-0.2c0.2-0.1,0.5-0.2,0.7-0.2
		c0.1,0,0.2,0,0.3-0.1c0.2,0,0.3,0,0.5,0c0.1,0,0.1,0,0.2,0c0.2,0,0.3,0,0.5,0c0.2,0,0.4,0,0.5-0.1c0.3-0.3,0.5-0.5,0.7-0.7
		c0,0,0.1-0.1,0.1-0.1c0.1-0.1,0.2-0.2,0.3-0.3l-0.2-0.1l-1.6-1l-0.1-0.1L58.9,17l-4.6-2.9l-0.8-0.5l-1.2-0.8
		c-0.1-0.1-0.3-0.1-0.4-0.2c-0.2-0.1-0.4-0.2-0.6-0.3c-0.1,0-0.1,0-0.2,0c0,0,0,0-0.1,0c-0.1,0-0.2,0.1-0.5,0.2l0.4,0.5L51.9,14.5z
		 M49.9,13.9L49.9,13.9l0,0.3l0.1,0.9l0.1,0.4l0.1,0.3l0.1,0.5c0.8,0.2,1.6,0.5,2.4,0.9c0,0,0,0,0,0l0,0L52,16.1l-0.7-1.2l0,0
		l-0.1-0.1l-0.3-0.5l-0.2-0.3L50.3,13l-0.1-0.2c-0.1,0.1-0.3,0.1-0.4,0.1l0.1,0.6L49.9,13.9z M32.2,16.2c0.1,0.5,0.2,1.1,0.3,1.6
		c0.1,0.5,0.3,1,0.5,1.5c0.1,0.2,0.2,0.5,0.3,0.7c0.2,0,0.4-0.1,0.6-0.1c0.2,0,0.4,0,0.5,0.1c0.2,0,0.3,0,0.5,0
		c-0.1-0.2-0.3-0.4-0.4-0.7c0-0.1,0-0.1-0.1-0.2c-0.1-0.2-0.2-0.4-0.3-0.6c-0.1-0.3-0.3-0.6-0.4-0.9c-0.3-0.7-0.4-1.4-0.6-2.1
		c-0.1-0.6-0.2-1.2-0.2-1.8c0-0.2,0-0.4,0-0.7c0-2.1,0.3-4.2,0.7-5.9C34,6.4,34.3,5.6,34.5,5c0.5-1.3,0.8-2.1,0.8-2.1l0.2-0.2
		l0.3,0.1C35.3,2.4,35,2.2,35,2.2S34.7,2.9,34.2,4c-0.4,0.9-0.8,2.1-1.2,3.5c-0.4,1.5-0.8,3.1-0.9,4.9c0,0.4,0,0.8,0,1.2
		c0,0.6,0,1.2,0.1,1.8C32.2,15.6,32.2,15.9,32.2,16.2z M21.1,33.7c-0.3,0-0.6,0.1-0.9,0.1c-0.2,0-0.4,0-0.6,0
		C16.1,34,12,34.1,12,34.1s4.6-0.7,7.4-1.9c0.3-0.1,0.7-0.3,1-0.4c0.2-0.1,0.4-0.2,0.6-0.3c0.3-0.2,0.5-0.3,0.8-0.5
		c0.2-1.7,0.7-3.3,1.5-4.7c-0.2-0.1-0.5-0.2-0.7-0.3c-0.5-0.2-1-0.3-1.5-0.4c-1.5-0.4-3.2-0.5-5-0.3c-6.6,1-13.9,8.2-13.9,8.2
		s9.2,6.6,14,6.5c0,0,0.1,0,0.1,0c1.9,0,3.5-0.6,4.8-1.3c0.5-0.2,0.9-0.5,1.3-0.8c0.2-0.2,0.4-0.3,0.6-0.5c-0.6-1.2-1-2.5-1.2-3.9
		C21.6,33.6,21.4,33.6,21.1,33.7z M22.6,23.3c0.6,0.2,1.1,0.3,1.7,0.3c0.3,0,0.6,0.1,0.9,0.1c0.8-0.8,1.8-1.5,2.8-2.1
		c-0.3-0.1-0.5-0.3-0.8-0.4c-0.4-0.3-0.9-0.6-1.4-0.9c-0.2-0.1-0.4-0.3-0.6-0.4c-2.3-1.9-5.2-4.4-5.2-4.4s4.1,2.6,6.5,3.3
		c0.5,0.1,1,0.2,1.4,0.3c1,0.2,1.9,0.3,2.7,0.4c0.2,0,0.5,0,0.7,0.1c0.4,0,0.7,0.1,0.8,0.1c0.1,0,0.2,0,0.2,0s0-0.1,0-0.2
		c-0.1-0.3-0.2-0.8-0.5-1.5c-0.2-0.4-0.4-1-0.7-1.5c-0.4-0.7-0.8-1.3-1.4-2c-0.6-0.7-1.3-1.5-2.3-2.1C23,9.2,14.4,9.6,14.4,9.6
		s2,9.4,5,11.9C20.4,22.4,21.5,22.9,22.6,23.3z M40.2,38c-3.1-2.2-5.2-5.8-5.1-9.9c0-0.8,0.1-1.6,0.2-2.3c0.1-0.6,0.3-1.1,0.5-1.6
		c0-0.1,0.1-0.2,0.1-0.4c0-0.1,0.1-0.3,0.1-0.4c0.1-0.2,0.2-0.4,0.3-0.5c0.1-0.1,0.1-0.3,0.2-0.4c0.1-0.1,0.2-0.3,0.2-0.4
		c0-0.1,0.1-0.2,0.1-0.2c-0.2,0-0.4-0.1-0.5-0.2c-0.1,0-0.2,0-0.2,0c-0.2,0-0.5,0-0.8-0.1c-0.3,0-0.6-0.1-0.9-0.1
		c-0.1,0-0.1,0-0.2,0c-0.1,0-0.1,0-0.2,0c-0.2,0-0.4,0-0.5,0.1c-0.1,0-0.1,0-0.2,0c-0.5,0-1,0.1-1.6,0.2c-0.7,0.2-1.5,0.4-2.1,0.7
		c-0.7,0.3-1.4,0.7-2,1.2c-0.1,0.1-0.1,0.1-0.2,0.2c-0.2,0.1-0.3,0.3-0.5,0.4c-0.3,0.3-0.6,0.6-0.9,0.9c-0.3,0.3-0.5,0.6-0.7,0.9
		c-0.2,0.3-0.4,0.6-0.6,0.9c-0.5,0.9-1,2-1.2,3.1c-0.2,0.7-0.2,1.4-0.2,2.2c0,0.4,0.1,0.8,0.1,1.2c0.1,1.1,0.4,2.2,0.8,3.1
		c0.3,0.7,0.7,1.4,1.2,2c2,2.6,5.1,4.4,8.7,4.4c2.4,0,4.6-0.8,6.4-2.1c0.4-0.3,0.9-0.7,1.3-1c0.2-0.2,0.3-0.4,0.5-0.6
		c-0.2-0.1-0.5-0.2-0.7-0.4C41,38.5,40.6,38.3,40.2,38z M30.1,27.3c-1.1,1.1-1.5,2-1.6,3.1c-0.1,0.5-0.1,1.1,0,1.8
		c0.2,0.7,0.2,1.5-0.3,1.9c-0.4,0.3-1.2,0-1.7-0.7c-0.1-0.1-0.2-0.3-0.2-0.5c0-0.1,0-0.3-0.1-0.4c-0.4-2.5,0.1-4.4,1.7-6.2
		c0.2-0.2,0.4-0.4,0.6-0.6c0,0,0-0.1,0.1-0.1c0,0,0.1-0.1,0.1-0.1c0,0,0.1,0,0.1-0.1c0.5-0.3,1.1-0.4,1.5-0.3
		c0.3,0.1,0.5,0.2,0.6,0.5C31.2,26.2,30.7,26.9,30.1,27.3z M71.4,31.5c0-0.1,0-0.2,0-0.3c0-1-0.2-2-0.5-3c0,0,0,0,0-0.1
		c-0.2-0.7-0.5-1.4-0.9-2c-0.1-0.1-0.1-0.3-0.2-0.4c-0.3-0.5-0.7-1-1.1-1.4c-0.2-0.2-0.4-0.4-0.6-0.6c-0.9-0.9-2-1.6-3.2-2.1
		c-0.3-0.1-0.7-0.2-1.1-0.3c-0.1,0-0.1,0-0.2-0.1c-0.8-0.2-1.6-0.4-2.4-0.4c0,0,0,0-0.1,0c-0.2,0-0.3-0.1-0.5-0.1
		c-0.3,0-0.5,0.1-0.8,0.1c-0.3,0-0.6,0-0.9,0.1c0,0-0.1,0-0.1,0c-0.2,0-0.3,0.1-0.5,0.1c-0.1,0-0.1,0-0.2,0.1
		c-0.1,0-0.2,0.1-0.3,0.1c-0.1,0-0.2,0.1-0.3,0.1c0,0,0,0,0,0.1c0,0.1,0.1,0.1,0.1,0.2c0.1,0.1,0.1,0.3,0.2,0.4
		c0.1,0.2,0.2,0.4,0.3,0.6c0.1,0.2,0.2,0.3,0.3,0.5c0,0.1,0.1,0.1,0.1,0.2c0.1,0.1,0.1,0.2,0.1,0.3c0.2,0.5,0.3,0.9,0.4,1.4
		c0,0.1,0.1,0.2,0.1,0.3c0.1,0.2,0.1,0.5,0.2,0.7c0,0.2,0,0.5,0.1,0.7c0.1,0.5,0.1,0.9,0.1,1.4c0,3.9-1.9,7.4-4.8,9.6
		c-0.4,0.3-0.8,0.6-1.3,0.8c-0.2,0.1-0.5,0.3-0.7,0.4c0.2,0.2,0.4,0.4,0.6,0.5c0.4,0.4,0.8,0.7,1.3,1c1.7,1.1,3.7,1.8,5.9,1.8
		c3,0,5.7-1.2,7.6-3.1c0.5-0.5,1-1.1,1.4-1.7c0.7-1.1,1.3-2.4,1.6-3.7C71.3,33,71.4,32.3,71.4,31.5z M54.8,35.8
		c1.1-1.1,2-2.4,2.5-3.9c0.4-1.1,0.7-2.3,0.7-3.5c0-0.1,0-0.2,0-0.3c0-0.4-0.1-0.7-0.1-1.1c0-0.3,0-0.6-0.1-0.9
		c0-0.2-0.1-0.3-0.1-0.5c-0.1-0.3-0.2-0.7-0.3-1c-0.1-0.3-0.1-0.5-0.3-0.8c0-0.1-0.1-0.1-0.1-0.1c0-0.1-0.1-0.1-0.1-0.2
		c-0.2-0.3-0.3-0.7-0.5-1c0,0,0-0.1-0.1-0.1c0-0.1-0.1-0.2-0.1-0.2c0,0,0,0,0-0.1c-0.1-0.1-0.2-0.2-0.3-0.3
		c-0.3-0.4-0.6-0.8-0.9-1.1c-0.1-0.1-0.1-0.2-0.2-0.2c-0.1-0.1-0.3-0.2-0.4-0.3c-0.1-0.1-0.2-0.2-0.3-0.2c-0.3-0.3-0.6-0.5-1-0.8
		C53.1,19.1,53,19,52.9,19c-0.8-0.5-1.6-0.8-2.4-1.1h0c-0.2-0.1-0.4-0.1-0.6-0.2c-0.1,0-0.2-0.1-0.2-0.1c-0.7-0.1-1.3-0.2-2-0.2
		c-0.1,0-0.1,0-0.2,0c0,0,0,0-0.1,0c-0.2,0-0.3,0-0.5,0.1c-0.2,0-0.3,0-0.5,0c-0.7,0.1-1.4,0.2-2.1,0.4c-0.7,0.2-1.4,0.5-2,0.8
		c-0.4,0.2-0.9,0.5-1.2,0.8c-0.1,0.1-0.2,0.1-0.3,0.2c-0.2,0.1-0.3,0.3-0.5,0.4c0,0,0,0,0,0c-0.2,0.1-0.4,0.3-0.5,0.4
		c-0.2,0.2-0.3,0.4-0.5,0.6c-0.2,0.2-0.3,0.4-0.5,0.6c0,0.1-0.1,0.1-0.1,0.2c-0.1,0.1-0.2,0.3-0.3,0.4c0,0,0,0.1-0.1,0.1
		c-0.1,0.2-0.2,0.4-0.3,0.6c0,0,0,0,0,0.1c-0.2,0.3-0.3,0.5-0.5,0.8c-0.1,0.1-0.1,0.3-0.2,0.4c0,0,0,0.1,0,0.1
		c-0.1,0.2-0.2,0.5-0.2,0.7c-0.2,0.5-0.3,1.1-0.3,1.6c-0.1,0.4-0.1,0.9-0.1,1.3c0,3.6,1.8,6.8,4.6,8.8c0.4,0.3,0.8,0.5,1.3,0.7
		c0.2,0.1,0.4,0.3,0.7,0.4c0.5,0.2,0.9,0.3,1.4,0.4c0.3,0.1,0.5,0.2,0.8,0.2c0.5,0.1,1.1,0.1,1.6,0.2c0.1,0,0.3,0,0.4,0
		c0.3,0,0.5-0.1,0.8-0.1c0.5,0,1.1-0.1,1.6-0.2c0.3-0.1,0.5-0.2,0.8-0.2c0.5-0.1,1-0.3,1.5-0.5c0.2-0.1,0.5-0.2,0.7-0.4
		c0.4-0.2,0.8-0.5,1.2-0.8C54.1,36.4,54.5,36.1,54.8,35.8z M43.5,23.2C43.4,23.3,43.4,23.3,43.5,23.2c-0.3,0.3-0.4,0.4-0.5,0.6
		c0,0-0.1,0.1-0.1,0.1c-0.2,0.2-0.4,0.5-0.5,0.7c-0.1,0.2-0.2,0.3-0.2,0.5c0,0.1-0.1,0.1-0.1,0.2c-0.1,0.2-0.2,0.4-0.2,0.7
		c0,0.1,0,0.1,0,0.2c0,0.2-0.1,0.4-0.1,0.6c0,0.2,0,0.5,0.1,0.8c0,0.2,0,0.4,0.1,0.7c0.1,0.2,0.1,0.4,0.1,0.6c0,0.1,0,0.2,0,0.4
		c0,0.4-0.1,0.7-0.4,1c-0.5,0.4-1.6-0.1-1.9-1.2c0-0.2-0.1-0.4-0.1-0.7c-0.1-0.6-0.1-1.2-0.1-1.8c0-0.3,0-0.5,0.1-0.7
		c0,0,0-0.1,0-0.1c0.1-0.5,0.2-0.9,0.4-1.3c0,0,0,0,0,0c0,0,0-0.1,0.1-0.1c0.1-0.2,0.2-0.3,0.3-0.5c0-0.1,0.1-0.1,0.1-0.2
		c0.1-0.2,0.2-0.3,0.3-0.5c0.2-0.2,0.3-0.5,0.5-0.7c0.2-0.2,0.4-0.4,0.5-0.5l0,0c0.1-0.1,0.2-0.2,0.2-0.3c0,0,0.1,0,0.2-0.1
		c0.1,0,0.1-0.1,0.2-0.1c0.2-0.1,0.4-0.2,0.6-0.2c0.1,0,0.1,0,0.2,0c0.1,0,0.1,0,0.2,0c0.5,0,0.8,0.2,0.9,0.5c0,0.1,0,0.2,0,0.3
		c0,0,0,0,0,0.1C44.2,22.5,43.9,22.9,43.5,23.2z"/>
	<path class="st2" d="M76.7,25.4c-1.1-0.2-2.1-0.1-3.1-0.1c-0.5,0.1-1.1,0.1-1.6,0.2c-0.3,0.1-0.5,0.1-0.8,0.2
		c0.4,0.7,0.7,1.3,0.9,2.1c0.2,0.5,0.3,1.1,0.4,1.6c0.1,0.7,0.2,1.4,0.2,2.1c0,0.2,0,0.3-0.1,0.5c0.2,0.1,0.5,0.2,0.7,0.3
		c0.5,0.2,1,0.3,1.5,0.5c2.7,0.8,5.7,1.3,5.7,1.3s-2.9-0.1-5.9-0.2c-0.5,0-1-0.1-1.5-0.1c-0.3,0-0.5,0-0.8,0
		c-0.1,0.8-0.4,1.5-0.7,2.2c0,0.1-0.1,0.2-0.1,0.3c-0.3,0.7-0.7,1.3-1.1,2c0.2,0.1,0.4,0.3,0.7,0.4c0.4,0.2,0.9,0.5,1.3,0.7
		c1.1,0.4,2.3,0.7,3.7,0.8c0,0,0.1,0,0.1,0c4.7,0,14-6.5,14-6.5S83.3,26.4,76.7,25.4z M37.5,9.6l4.4,0.2l0.1,0l2,0.1l0.1,0l2.2,0.1
		c0-0.1,0-0.1,0.1-0.2l-0.7-0.4l-1.2-0.7l-1.8-1.1l-3.6-2.2L37,4.3c-0.2,0.4-0.5,1-0.7,1.7c0,0.1-0.1,0.3-0.1,0.4
		c-0.1,0.3-0.2,0.6-0.3,0.9c-0.2,0.7-0.4,1.4-0.6,2.2L37.5,9.6z M59.5,16.7l0.8,0.5l0.8,0.5l0.4,0.2l0,0l0.1,0l0.1,0l0,0l0.9,0.7
		l0.2,0.2l0.1,0.1c0,0-0.1,0.2-0.4,0.5c0.3,0,0.6-0.1,0.9-0.1c0.3,0,0.6-0.1,0.8-0.1c0.2,0,0.4-0.1,0.6-0.1l0.2,0
		c0.4-0.1,0.8-0.2,1.2-0.2c0.2,0,0.4-0.1,0.6-0.2c2.5-0.8,5.9-3,5.9-3s-2.3,2-4.5,3.8c-0.2,0.2-0.5,0.4-0.7,0.5
		c-0.2,0.2-0.4,0.3-0.6,0.4c-0.2,0.2-0.5,0.3-0.7,0.5c1.3,0.7,2.5,1.6,3.5,2.7c0.3-0.1,0.5-0.1,0.8-0.2c0.5-0.2,1-0.4,1.4-0.6
		c0.5-0.3,1-0.6,1.5-1c3-2.5,5-11.9,5-11.9s-8.6-0.4-13.2,2.7c-1,0.7-1.8,1.5-2.5,2.3c-0.3,0.3-0.5,0.7-0.7,1c0,0,0,0.1-0.1,0.1
		c-0.2,0.3-0.3,0.6-0.5,0.8c-0.4-0.1-0.9-0.3-1.4-0.5c-0.2-0.1-0.5-0.2-0.7-0.3c-1.2-0.5-2.7-1-4.2-1.7l3.9,2.3L59.5,16.7z
		 M46.3,9.8C46.3,9.8,46.3,9.8,46.3,9.8L46.3,9.8L46.3,9.8z M44,10.9l-0.3,0l0,0l-2.5,0L37.2,11l-2.3,0c-0.1,0.7-0.1,1.3-0.2,2
		c0,0.1,0,0.1,0,0.2c0,0.7,0.1,1.4,0.2,2.1l2.2-0.7l4.4-1.5l2.5-0.8l0.5-0.2l0.8-0.3l0.1,0l1.3-0.4c-0.1-0.2-0.3-0.4-0.3-0.6l-0.6,0
		L44,10.9z M46,12.2l-0.1,0l-1.1,0.5l-0.9,0.4l-1.6,0.7l-5,2.1l-2,0.8l-0.1-0.1c0.1,0.4,0.2,0.8,0.4,1.2c0.1,0.3,0.3,0.6,0.5,0.9
		c0,0.1,0.1,0.1,0.1,0.2c0,0.1,0.1,0.1,0.1,0.2c0.1,0.1,0.1,0.2,0.2,0.3c0.2,0.3,0.4,0.5,0.6,0.7c0.1,0.1,0.1,0.2,0.2,0.3
		c0.1,0,0.3,0.1,0.4,0.1c0.2-0.2,0.3-0.4,0.5-0.6c0.3-0.3,0.5-0.6,0.8-0.8c0.1-0.1,0.3-0.2,0.4-0.3c0.6-0.5,1.3-0.9,2-1.3l1.8-1.6
		l0.2-0.2l2.1-1.8l0.2-0.1l0.2-0.2l0.5-0.5l0.4-0.3l0,0l0.2-0.2l0.3-0.3c-0.1-0.1-0.2-0.1-0.3-0.2c-0.1,0-0.1-0.1-0.2-0.1L46.6,12
		L46,12.2z M47.4,13l-0.2,0.2l-0.5,0.5l-0.3,0.4l-0.5,0.6l-0.6,0.7l-0.9,1c0.2,0,0.4-0.1,0.5-0.2c0.8-0.2,1.6-0.2,2.4-0.2
		c0,0,0.1,0,0.1,0l0-0.1l0.3-0.6l0.1-0.4l0.4-0.9l0.1-0.2l0.1-0.3l0.3-0.7c0,0-0.1,0-0.1,0c-0.2-0.1-0.3-0.1-0.5-0.2
		c0,0-0.1,0-0.1-0.1c0,0,0,0,0,0l-0.1,0.2L47.4,13L47.4,13z M48.5,13.5l-0.1,0.2l-0.1,0.4l-0.2,0.8L48,15.2l-0.2,0.5L47.8,16
		c0.6,0,1.1,0.1,1.7,0.2c0.1,0,0.2,0,0.2,0l-0.1-0.8l0-0.2L49.5,14l0,0l0-0.1l0-0.3l-0.1-0.6c0,0-0.1,0-0.1,0c-0.1,0-0.2,0-0.2,0
		c-0.1,0-0.2,0-0.3-0.1L48.5,13.5L48.5,13.5z M51.9,14.5l0.1,0.1l0.4,0.6l0.1,0.2l0.2,0.4l0.7,1l0.9,1.4c0.1,0.1,0.2,0.2,0.3,0.2
		c0.4,0.3,0.9,0.7,1.3,1.1c0.1,0.1,0.1,0.1,0.2,0.2c0.1,0.1,0.2,0.3,0.4,0.4c0.3-0.1,0.5-0.2,0.8-0.2c0.2-0.1,0.5-0.2,0.7-0.2
		c0.1,0,0.2,0,0.3-0.1c0.2,0,0.3,0,0.5,0c0.1,0,0.1,0,0.2,0c0.2,0,0.3,0,0.5,0c0.2,0,0.4,0,0.5-0.1c0.3-0.3,0.5-0.5,0.7-0.7
		c0,0,0.1-0.1,0.1-0.1c0.1-0.1,0.2-0.2,0.3-0.3l-0.2-0.1l-1.6-1l-0.1-0.1L58.9,17l-4.6-2.9l-0.8-0.5l-1.2-0.8
		c-0.1-0.1-0.3-0.1-0.4-0.2c-0.2-0.1-0.4-0.2-0.6-0.3c-0.1,0-0.1,0-0.2,0c0,0,0,0-0.1,0c-0.1,0-0.2,0.1-0.5,0.2l0.4,0.5L51.9,14.5z
		 M49.9,13.9L49.9,13.9l0,0.3l0.1,0.9l0.1,0.4l0.1,0.3l0.1,0.5c0.8,0.2,1.6,0.5,2.4,0.9c0,0,0,0,0,0l0,0L52,16.1l-0.7-1.2l0,0
		l-0.1-0.1l-0.3-0.5l-0.2-0.3L50.3,13l-0.1-0.2c-0.1,0.1-0.3,0.1-0.4,0.1l0.1,0.6L49.9,13.9z M32.2,16.2c0.1,0.5,0.2,1.1,0.3,1.6
		c0.1,0.5,0.3,1,0.5,1.5c0.1,0.2,0.2,0.5,0.3,0.7c0.2,0,0.4-0.1,0.6-0.1c0.2,0,0.4,0,0.5,0.1c0.2,0,0.3,0,0.5,0
		c-0.1-0.2-0.3-0.4-0.4-0.7c0-0.1,0-0.1-0.1-0.2c-0.1-0.2-0.2-0.4-0.3-0.6c-0.1-0.3-0.3-0.6-0.4-0.9c-0.3-0.7-0.4-1.4-0.6-2.1
		c-0.1-0.6-0.2-1.2-0.2-1.8c0-0.2,0-0.4,0-0.7c0-2.1,0.3-4.2,0.7-5.9C34,6.4,34.3,5.6,34.5,5c0.5-1.3,0.8-2.1,0.8-2.1l0.2-0.2
		l0.3,0.1C35.3,2.4,35,2.2,35,2.2S34.7,2.9,34.2,4c-0.4,0.9-0.8,2.1-1.2,3.5c-0.4,1.5-0.8,3.1-0.9,4.9c0,0.4,0,0.8,0,1.2
		c0,0.6,0,1.2,0.1,1.8C32.2,15.6,32.2,15.9,32.2,16.2z M21.1,33.7c-0.3,0-0.6,0.1-0.9,0.1c-0.2,0-0.4,0-0.6,0
		C16.1,34,12,34.1,12,34.1s4.6-0.7,7.4-1.9c0.3-0.1,0.7-0.3,1-0.4c0.2-0.1,0.4-0.2,0.6-0.3c0.3-0.2,0.5-0.3,0.8-0.5
		c0.2-1.7,0.7-3.3,1.5-4.7c-0.2-0.1-0.5-0.2-0.7-0.3c-0.5-0.2-1-0.3-1.5-0.4c-1.5-0.4-3.2-0.5-5-0.3c-6.6,1-13.9,8.2-13.9,8.2
		s9.2,6.6,14,6.5c0,0,0.1,0,0.1,0c1.9,0,3.5-0.6,4.8-1.3c0.5-0.2,0.9-0.5,1.3-0.8c0.2-0.2,0.4-0.3,0.6-0.5c-0.6-1.2-1-2.5-1.2-3.9
		C21.6,33.6,21.4,33.6,21.1,33.7z M22.6,23.3c0.6,0.2,1.1,0.3,1.7,0.3c0.3,0,0.6,0.1,0.9,0.1c0.8-0.8,1.8-1.5,2.8-2.1
		c-0.3-0.1-0.5-0.3-0.8-0.4c-0.4-0.3-0.9-0.6-1.4-0.9c-0.2-0.1-0.4-0.3-0.6-0.4c-2.3-1.9-5.2-4.4-5.2-4.4s4.1,2.6,6.5,3.3
		c0.5,0.1,1,0.2,1.4,0.3c1,0.2,1.9,0.3,2.7,0.4c0.2,0,0.5,0,0.7,0.1c0.4,0,0.7,0.1,0.8,0.1c0.1,0,0.2,0,0.2,0s0-0.1,0-0.2
		c-0.1-0.3-0.2-0.8-0.5-1.5c-0.2-0.4-0.4-1-0.7-1.5c-0.4-0.7-0.8-1.3-1.4-2c-0.6-0.7-1.3-1.5-2.3-2.1C23,9.2,14.4,9.6,14.4,9.6
		s2,9.4,5,11.9C20.4,22.4,21.5,22.9,22.6,23.3z M40.2,38c-3.1-2.2-5.2-5.8-5.1-9.9c0-0.8,0.1-1.6,0.2-2.3c0.1-0.6,0.3-1.1,0.5-1.6
		c0-0.1,0.1-0.2,0.1-0.4c0-0.1,0.1-0.3,0.1-0.4c0.1-0.2,0.2-0.4,0.3-0.5c0.1-0.1,0.1-0.3,0.2-0.4c0.1-0.1,0.2-0.3,0.2-0.4
		c0-0.1,0.1-0.2,0.1-0.2c-0.2,0-0.4-0.1-0.5-0.2c-0.1,0-0.2,0-0.2,0c-0.2,0-0.5,0-0.8-0.1c-0.3,0-0.6-0.1-0.9-0.1
		c-0.1,0-0.1,0-0.2,0c-0.1,0-0.1,0-0.2,0c-0.2,0-0.4,0-0.5,0.1c-0.1,0-0.1,0-0.2,0c-0.5,0-1,0.1-1.6,0.2c-0.7,0.2-1.5,0.4-2.1,0.7
		c-0.7,0.3-1.4,0.7-2,1.2c-0.1,0.1-0.1,0.1-0.2,0.2c-0.2,0.1-0.3,0.3-0.5,0.4c-0.3,0.3-0.6,0.6-0.9,0.9c-0.3,0.3-0.5,0.6-0.7,0.9
		c-0.2,0.3-0.4,0.6-0.6,0.9c-0.5,0.9-1,2-1.2,3.1c-0.2,0.7-0.2,1.4-0.2,2.2c0,0.4,0.1,0.8,0.1,1.2c0.1,1.1,0.4,2.2,0.8,3.1
		c0.3,0.7,0.7,1.4,1.2,2c2,2.6,5.1,4.4,8.7,4.4c2.4,0,4.6-0.8,6.4-2.1c0.4-0.3,0.9-0.7,1.3-1c0.2-0.2,0.3-0.4,0.5-0.6
		c-0.2-0.1-0.5-0.2-0.7-0.4C41,38.5,40.6,38.3,40.2,38z M30.1,27.3c-1.1,1.1-1.5,2-1.6,3.1c-0.1,0.5-0.1,1.1,0,1.8
		c0.2,0.7,0.2,1.5-0.3,1.9c-0.4,0.3-1.2,0-1.7-0.7c-0.1-0.1-0.2-0.3-0.2-0.5c0-0.1,0-0.3-0.1-0.4c-0.4-2.5,0.1-4.4,1.7-6.2
		c0.2-0.2,0.4-0.4,0.6-0.6c0,0,0-0.1,0.1-0.1c0,0,0.1-0.1,0.1-0.1c0,0,0.1,0,0.1-0.1c0.5-0.3,1.1-0.4,1.5-0.3
		c0.3,0.1,0.5,0.2,0.6,0.5C31.2,26.2,30.7,26.9,30.1,27.3z M71.4,31.5c0-0.1,0-0.2,0-0.3c0-1-0.2-2-0.5-3c0,0,0,0,0-0.1
		c-0.2-0.7-0.5-1.4-0.9-2c-0.1-0.1-0.1-0.3-0.2-0.4c-0.3-0.5-0.7-1-1.1-1.4c-0.2-0.2-0.4-0.4-0.6-0.6c-0.9-0.9-2-1.6-3.2-2.1
		c-0.3-0.1-0.7-0.2-1.1-0.3c-0.1,0-0.1,0-0.2-0.1c-0.8-0.2-1.6-0.4-2.4-0.4c0,0,0,0-0.1,0c-0.2,0-0.3-0.1-0.5-0.1
		c-0.3,0-0.5,0.1-0.8,0.1c-0.3,0-0.6,0-0.9,0.1c0,0-0.1,0-0.1,0c-0.2,0-0.3,0.1-0.5,0.1c-0.1,0-0.1,0-0.2,0.1
		c-0.1,0-0.2,0.1-0.3,0.1c-0.1,0-0.2,0.1-0.3,0.1c0,0,0,0,0,0.1c0,0.1,0.1,0.1,0.1,0.2c0.1,0.1,0.1,0.3,0.2,0.4
		c0.1,0.2,0.2,0.4,0.3,0.6c0.1,0.2,0.2,0.3,0.3,0.5c0,0.1,0.1,0.1,0.1,0.2c0.1,0.1,0.1,0.2,0.1,0.3c0.2,0.5,0.3,0.9,0.4,1.4
		c0,0.1,0.1,0.2,0.1,0.3c0.1,0.2,0.1,0.5,0.2,0.7c0,0.2,0,0.5,0.1,0.7c0.1,0.5,0.1,0.9,0.1,1.4c0,3.9-1.9,7.4-4.8,9.6
		c-0.4,0.3-0.8,0.6-1.3,0.8c-0.2,0.1-0.5,0.3-0.7,0.4c0.2,0.2,0.4,0.4,0.6,0.5c0.4,0.4,0.8,0.7,1.3,1c1.7,1.1,3.7,1.8,5.9,1.8
		c3,0,5.7-1.2,7.6-3.1c0.5-0.5,1-1.1,1.4-1.7c0.7-1.1,1.3-2.4,1.6-3.7C71.3,33,71.4,32.3,71.4,31.5z M54.8,35.8
		c1.1-1.1,2-2.4,2.5-3.9c0.4-1.1,0.7-2.3,0.7-3.5c0-0.1,0-0.2,0-0.3c0-0.4-0.1-0.7-0.1-1.1c0-0.3,0-0.6-0.1-0.9
		c0-0.2-0.1-0.3-0.1-0.5c-0.1-0.3-0.2-0.7-0.3-1c-0.1-0.3-0.1-0.5-0.3-0.8c0-0.1-0.1-0.1-0.1-0.1c0-0.1-0.1-0.1-0.1-0.2
		c-0.2-0.3-0.3-0.7-0.5-1c0,0,0-0.1-0.1-0.1c0-0.1-0.1-0.2-0.1-0.2c0,0,0,0,0-0.1c-0.1-0.1-0.2-0.2-0.3-0.3
		c-0.3-0.4-0.6-0.8-0.9-1.1c-0.1-0.1-0.1-0.2-0.2-0.2c-0.1-0.1-0.3-0.2-0.4-0.3c-0.1-0.1-0.2-0.2-0.3-0.2c-0.3-0.3-0.6-0.5-1-0.8
		C53.1,19.1,53,19,52.9,19c-0.8-0.5-1.6-0.8-2.4-1.1h0c-0.2-0.1-0.4-0.1-0.6-0.2c-0.1,0-0.2-0.1-0.2-0.1c-0.7-0.1-1.3-0.2-2-0.2
		c-0.1,0-0.1,0-0.2,0c0,0,0,0-0.1,0c-0.2,0-0.3,0-0.5,0.1c-0.2,0-0.3,0-0.5,0c-0.7,0.1-1.4,0.2-2.1,0.4c-0.7,0.2-1.4,0.5-2,0.8
		c-0.4,0.2-0.9,0.5-1.2,0.8c-0.1,0.1-0.2,0.1-0.3,0.2c-0.2,0.1-0.3,0.3-0.5,0.4c0,0,0,0,0,0c-0.2,0.1-0.4,0.3-0.5,0.4
		c-0.2,0.2-0.3,0.4-0.5,0.6c-0.2,0.2-0.3,0.4-0.5,0.6c0,0.1-0.1,0.1-0.1,0.2c-0.1,0.1-0.2,0.3-0.3,0.4c0,0,0,0.1-0.1,0.1
		c-0.1,0.2-0.2,0.4-0.3,0.6c0,0,0,0,0,0.1c-0.2,0.3-0.3,0.5-0.5,0.8c-0.1,0.1-0.1,0.3-0.2,0.4c0,0,0,0.1,0,0.1
		c-0.1,0.2-0.2,0.5-0.2,0.7c-0.2,0.5-0.3,1.1-0.3,1.6c-0.1,0.4-0.1,0.9-0.1,1.3c0,3.6,1.8,6.8,4.6,8.8c0.4,0.3,0.8,0.5,1.3,0.7
		c0.2,0.1,0.4,0.3,0.7,0.4c0.5,0.2,0.9,0.3,1.4,0.4c0.3,0.1,0.5,0.2,0.8,0.2c0.5,0.1,1.1,0.1,1.6,0.2c0.1,0,0.3,0,0.4,0
		c0.3,0,0.5-0.1,0.8-0.1c0.5,0,1.1-0.1,1.6-0.2c0.3-0.1,0.5-0.2,0.8-0.2c0.5-0.1,1-0.3,1.5-0.5c0.2-0.1,0.5-0.2,0.7-0.4
		c0.4-0.2,0.8-0.5,1.2-0.8C54.1,36.4,54.5,36.1,54.8,35.8z M43.5,23.2C43.4,23.3,43.4,23.3,43.5,23.2c-0.3,0.3-0.4,0.4-0.5,0.6
		c0,0-0.1,0.1-0.1,0.1c-0.2,0.2-0.4,0.5-0.5,0.7c-0.1,0.2-0.2,0.3-0.2,0.5c0,0.1-0.1,0.1-0.1,0.2c-0.1,0.2-0.2,0.4-0.2,0.7
		c0,0.1,0,0.1,0,0.2c0,0.2-0.1,0.4-0.1,0.6c0,0.2,0,0.5,0.1,0.8c0,0.2,0,0.4,0.1,0.7c0.1,0.2,0.1,0.4,0.1,0.6c0,0.1,0,0.2,0,0.4
		c0,0.4-0.1,0.7-0.4,1c-0.5,0.4-1.6-0.1-1.9-1.2c0-0.2-0.1-0.4-0.1-0.7c-0.1-0.6-0.1-1.2-0.1-1.8c0-0.3,0-0.5,0.1-0.7
		c0,0,0-0.1,0-0.1c0.1-0.5,0.2-0.9,0.4-1.3c0,0,0,0,0,0c0,0,0-0.1,0.1-0.1c0.1-0.2,0.2-0.3,0.3-0.5c0-0.1,0.1-0.1,0.1-0.2
		c0.1-0.2,0.2-0.3,0.3-0.5c0.2-0.2,0.3-0.5,0.5-0.7c0.2-0.2,0.4-0.4,0.5-0.5l0,0c0.1-0.1,0.2-0.2,0.2-0.3c0,0,0.1,0,0.2-0.1
		c0.1,0,0.1-0.1,0.2-0.1c0.2-0.1,0.4-0.2,0.6-0.2c0.1,0,0.1,0,0.2,0c0.1,0,0.1,0,0.2,0c0.5,0,0.8,0.2,0.9,0.5c0,0.1,0,0.2,0,0.3
		c0,0,0,0,0,0.1C44.2,22.5,43.9,22.9,43.5,23.2z"/>
</g>
</svg>
