<svg xmlns="http://www.w3.org/2000/svg" id="Layer_1" data-name="Layer 1" viewBox="0 0 81.24 86.51"><defs><style>.cls-1{fill:#39b54a;}.cls-1,.cls-2{stroke:#39b54a;stroke-miterlimit:10;stroke-width:2px;}.cls-2{fill:#fff;}.cls-3{fill:#006837;}</style></defs><title>Diznatys_eng</title><path class="cls-1" d="M80.24,45.89A39.62,39.62,0,0,1,40.62,85.51H1V45.89a39.62,39.62,0,1,1,79.24,0Z"></path><path class="cls-2" d="M79.75,40.37A39.38,39.38,0,0,1,40.37,79.75H1V40.37a39.38,39.38,0,0,1,78.75,0Z"></path><path class="cls-3" d="M16.79,35q0,.55-.06,1.08c0,.34,0,.6,0,.79s0,.31,0,.46,0,.27,0,.37h-.25A5.9,5.9,0,0,0,16,36.28a1.77,1.77,0,0,0-.64-.76,1.67,1.67,0,0,0-.88-.23h-.25v6.28a1.86,1.86,0,0,0,.09.66.49.49,0,0,0,.35.29,2.68,2.68,0,0,0,.73.08v.23l-.9,0H12.21l-.87,0V42.6a2.79,2.79,0,0,0,.75-.08.48.48,0,0,0,.34-.29,1.86,1.86,0,0,0,.09-.66V35.29h-.24a1.65,1.65,0,0,0-.88.23,1.73,1.73,0,0,0-.64.75,6.25,6.25,0,0,0-.46,1.47H10a1.9,1.9,0,0,0,0-.37c0-.15,0-.3,0-.46s0-.45,0-.79S10,35.41,10,35l1.1,0h4.6Z"></path><path class="cls-3" d="M21.66,34.88a4.16,4.16,0,0,1,2,.48,3.28,3.28,0,0,1,1.36,1.35,5,5,0,0,1,0,4.31,3.55,3.55,0,0,1-1.38,1.44,3.87,3.87,0,0,1-2,.52,4.27,4.27,0,0,1-2-.47,3.27,3.27,0,0,1-1.36-1.37,4.87,4.87,0,0,1,0-4.3,3.59,3.59,0,0,1,1.37-1.44A3.94,3.94,0,0,1,21.66,34.88Zm0,.2a1.43,1.43,0,0,0-1.08.5,3.29,3.29,0,0,0-.7,1.36,7.17,7.17,0,0,0-.25,2,6.47,6.47,0,0,0,.28,2,3.19,3.19,0,0,0,.76,1.33,1.45,1.45,0,0,0,1.06.47,1.4,1.4,0,0,0,1.07-.49,3.34,3.34,0,0,0,.71-1.37,7.67,7.67,0,0,0,.25-2,6.84,6.84,0,0,0-.28-2,3.22,3.22,0,0,0-.76-1.32A1.51,1.51,0,0,0,21.62,35.08Z"></path><path class="cls-3" d="M32.86,35v.22a1.65,1.65,0,0,0-.57.08.44.44,0,0,0-.26.26,2.2,2.2,0,0,0-.06.6v5.59a2.16,2.16,0,0,0,0,.51.34.34,0,0,0,.2.22,1.64,1.64,0,0,0,.45,0h.54a1.48,1.48,0,0,0,.92-.31,2.43,2.43,0,0,0,.69-.86,4.09,4.09,0,0,0,.39-1.28h.25c0,.25,0,.57,0,1,0,.17,0,.41,0,.73s0,.66.07,1c-.38,0-.8,0-1.27,0H30.68q-.69,0-1.29,0V42.6a2,2,0,0,0,.53-.08.39.39,0,0,0,.24-.27,2.17,2.17,0,0,0,.06-.59V36.2a2.2,2.2,0,0,0-.06-.6.4.4,0,0,0-.25-.26,1.38,1.38,0,0,0-.52-.08V35l.74,0h1.95Z"></path><path class="cls-3" d="M42.22,35q0,.48-.06.93c0,.3,0,.53,0,.69s0,.29,0,.42,0,.25,0,.33h-.25a4.27,4.27,0,0,0-.34-1.27,1.44,1.44,0,0,0-.6-.66,1.82,1.82,0,0,0-.86-.19h-.45a1.46,1.46,0,0,0-.49.06.31.31,0,0,0-.22.21,1.66,1.66,0,0,0-.05.51v5.72a1.66,1.66,0,0,0,.05.51.34.34,0,0,0,.22.22,1.87,1.87,0,0,0,.49,0h.53a1.57,1.57,0,0,0,1.53-.94,4.89,4.89,0,0,0,.41-1.4h.25c0,.23,0,.54,0,.92,0,.17,0,.41,0,.72s0,.62.07,1c-.38,0-.8,0-1.27,0H37.62q-.69,0-1.29,0V42.6a2,2,0,0,0,.53-.08.39.39,0,0,0,.24-.27,2.17,2.17,0,0,0,.06-.59V36.2a2.2,2.2,0,0,0-.06-.6.4.4,0,0,0-.25-.26,1.38,1.38,0,0,0-.52-.08V35l1.29,0h3.45ZM40.5,38.8V39H38.58V38.8Zm.32-1.45c0,.41,0,.73,0,.95s0,.43,0,.61,0,.38,0,.6,0,.54.05,1H40.6a2.66,2.66,0,0,0-.2-.71,1.34,1.34,0,0,0-.43-.54,1.19,1.19,0,0,0-.71-.2V38.8a1,1,0,0,0,.7-.24,1.7,1.7,0,0,0,.41-.58,3.5,3.5,0,0,0,.2-.63Z"></path><path class="cls-3" d="M47.2,35l2.67,6.89a1.37,1.37,0,0,0,.35.55.65.65,0,0,0,.35.15v.23q-.33,0-.78,0H47.94a6.83,6.83,0,0,0-.72,0V42.6c.38,0,.61-.07.71-.19s.08-.36-.07-.73L46,36.57l.2-.29-1.67,4.36a3.73,3.73,0,0,0-.31,1.23.6.6,0,0,0,.27.56,1.55,1.55,0,0,0,.71.17v.23l-.7,0H43.37a2.09,2.09,0,0,0-.38,0V42.6a.84.84,0,0,0,.47-.29,2.65,2.65,0,0,0,.47-.86L46.44,35l.38,0ZM48,39.66v.22H44.69l.11-.22Z"></path><path class="cls-3" d="M50.86,35l.75,0h2.65a4.16,4.16,0,0,1,2.29.5A1.58,1.58,0,0,1,57.31,37a2.1,2.1,0,0,1-.15.76,2,2,0,0,1-.53.7,2.61,2.61,0,0,1-1,.52,6,6,0,0,1-1.61.19H53v-.22h.95a1.59,1.59,0,0,0,1-.25,1.23,1.23,0,0,0,.47-.66,3.26,3.26,0,0,0,.12-.92,2.39,2.39,0,0,0-.31-1.34,1.14,1.14,0,0,0-1.05-.48.67.67,0,0,0-.56.18,1.61,1.61,0,0,0-.12.76v5.46a2.17,2.17,0,0,0,.06.59.4.4,0,0,0,.23.27,2,2,0,0,0,.53.08v.23q-.3,0-.75,0h-1.9a7.34,7.34,0,0,0-.75,0V42.6a2,2,0,0,0,.53-.08.39.39,0,0,0,.24-.27,2.17,2.17,0,0,0,.06-.59V36.2a2.2,2.2,0,0,0-.06-.6.41.41,0,0,0-.24-.26,1.48,1.48,0,0,0-.53-.08Zm2.08,3.9c.32,0,.59,0,.82.05l.61.06.48,0a3.17,3.17,0,0,1,1.48.43,1.67,1.67,0,0,1,.62,1l.25,1.13a2.17,2.17,0,0,0,.21.62.36.36,0,0,0,.32.17.52.52,0,0,0,.23-.07,1.06,1.06,0,0,0,.21-.18l.15.13a1.8,1.8,0,0,1-.64.49,2,2,0,0,1-.82.15,1.82,1.82,0,0,1-1-.25,1.32,1.32,0,0,1-.51-.94l-.2-1.1a6.2,6.2,0,0,0-.18-.81,1.51,1.51,0,0,0-.3-.55.73.73,0,0,0-.54-.2H53Z"></path><path class="cls-3" d="M65.94,35v.22a1.05,1.05,0,0,0-.52.18.7.7,0,0,0-.24.43,4.53,4.53,0,0,0-.06.84v6.14h-.56L59.78,36.8V41a5.33,5.33,0,0,0,.07.93.63.63,0,0,0,.29.46,1.75,1.75,0,0,0,.71.19v.23a4,4,0,0,0-.55,0H59.15a2.59,2.59,0,0,0-.44,0V42.6a1.05,1.05,0,0,0,.52-.18.67.67,0,0,0,.24-.44,4.41,4.41,0,0,0,.06-.83V36.2a2.2,2.2,0,0,0-.06-.6.41.41,0,0,0-.24-.26,1.42,1.42,0,0,0-.52-.08V35l.44,0h1l.44,0,4.26,5.24V36.84a5.33,5.33,0,0,0-.07-.93.7.7,0,0,0-.29-.47,1.77,1.77,0,0,0-.71-.18V35l.55,0h1.16Z"></path><path class="cls-3" d="M19.56,48.24v.22a1.4,1.4,0,0,0-.53.08.41.41,0,0,0-.24.26,2.2,2.2,0,0,0-.06.6v5.46a2.17,2.17,0,0,0,.06.59.39.39,0,0,0,.24.27,2,2,0,0,0,.53.08V56q-.31,0-.78,0H16.84a7.48,7.48,0,0,0-.75,0V55.8a2.34,2.34,0,0,0,.57-.08.41.41,0,0,0,.26-.27,2.17,2.17,0,0,0,.06-.59v-6h.08L14.33,56h-.17l-3-7.09v5.27a5.52,5.52,0,0,0,.06.93.67.67,0,0,0,.29.46,1.75,1.75,0,0,0,.71.19V56a4,4,0,0,0-.55,0H10.55a2.68,2.68,0,0,0-.44,0V55.8a1.14,1.14,0,0,0,.53-.18.71.71,0,0,0,.23-.44,4.41,4.41,0,0,0,.06-.83v-5a2.2,2.2,0,0,0-.06-.6.41.41,0,0,0-.24-.26,1.38,1.38,0,0,0-.52-.08v-.22l.44,0H12l.8,0,2.31,5.57-.27.26,2.21-5.8h1.73Z"></path><path class="cls-3" d="M24.42,48.08a4.16,4.16,0,0,1,2,.48,3.28,3.28,0,0,1,1.36,1.35,4.51,4.51,0,0,1,.48,2.16,4.46,4.46,0,0,1-.49,2.15,3.55,3.55,0,0,1-1.38,1.44,3.85,3.85,0,0,1-2,.52,4.27,4.27,0,0,1-2-.47A3.33,3.33,0,0,1,21,54.34,5,5,0,0,1,21,50,3.72,3.72,0,0,1,22.4,48.6,3.94,3.94,0,0,1,24.42,48.08Zm0,.2a1.43,1.43,0,0,0-1.08.5,3.29,3.29,0,0,0-.7,1.36,7.17,7.17,0,0,0-.25,2,6.77,6.77,0,0,0,.28,2,3.19,3.19,0,0,0,.76,1.33,1.45,1.45,0,0,0,1.06.47,1.43,1.43,0,0,0,1.08-.49,3.46,3.46,0,0,0,.7-1.37,7.67,7.67,0,0,0,.25-2,6.84,6.84,0,0,0-.28-2,3.22,3.22,0,0,0-.76-1.32A1.51,1.51,0,0,0,24.38,48.28Z"></path><path class="cls-3" d="M29.28,48.24l.74,0h2.66a4.16,4.16,0,0,1,2.29.5,1.6,1.6,0,0,1,.76,1.41,1.92,1.92,0,0,1-.16.76,1.85,1.85,0,0,1-.52.7,2.66,2.66,0,0,1-1,.52,5.94,5.94,0,0,1-1.6.19H31.38v-.22h.95a1.59,1.59,0,0,0,1-.25,1.16,1.16,0,0,0,.46-.66,2.92,2.92,0,0,0,.13-.92,2.39,2.39,0,0,0-.31-1.34,1.14,1.14,0,0,0-1.05-.48.67.67,0,0,0-.56.18,1.61,1.61,0,0,0-.12.76v5.46a2.17,2.17,0,0,0,.06.59.4.4,0,0,0,.23.27,2,2,0,0,0,.53.08V56q-.3,0-.75,0H30a7.12,7.12,0,0,0-.74,0V55.8a2,2,0,0,0,.53-.08.41.41,0,0,0,.24-.27,2.17,2.17,0,0,0,.06-.59V49.4a2.2,2.2,0,0,0-.06-.6.46.46,0,0,0-.25-.26,1.38,1.38,0,0,0-.52-.08Zm2.08,3.9c.32,0,.59,0,.82,0l.61.06.47,0a3.14,3.14,0,0,1,1.48.43,1.58,1.58,0,0,1,.62,1l.26,1.13a1.9,1.9,0,0,0,.21.62.36.36,0,0,0,.32.17.42.42,0,0,0,.23-.07,1,1,0,0,0,.2-.18l.16.13a1.8,1.8,0,0,1-.64.49,2,2,0,0,1-.82.15,1.72,1.72,0,0,1-1-.25,1.32,1.32,0,0,1-.51-.94l-.2-1.1a6.2,6.2,0,0,0-.18-.81,1.52,1.52,0,0,0-.31-.55.69.69,0,0,0-.53-.2H31.38Z"></path><path class="cls-3" d="M43,48.24q0,.48-.06.93c0,.3,0,.53,0,.7s0,.28,0,.41,0,.25,0,.33H42.7a4.27,4.27,0,0,0-.34-1.27,1.39,1.39,0,0,0-.6-.66,1.82,1.82,0,0,0-.86-.19h-.45a1.46,1.46,0,0,0-.49.06.31.31,0,0,0-.22.21,2.05,2.05,0,0,0-.05.51V55a2.05,2.05,0,0,0,.05.51.34.34,0,0,0,.22.22,1.87,1.87,0,0,0,.49.05H41a1.75,1.75,0,0,0,.87-.21,1.81,1.81,0,0,0,.65-.73,4.59,4.59,0,0,0,.41-1.4h.25c0,.23,0,.54,0,.92,0,.17,0,.41,0,.72s0,.63.07,1c-.38,0-.8,0-1.27,0H38.4q-.69,0-1.29,0V55.8a2,2,0,0,0,.53-.08.39.39,0,0,0,.24-.27,2.17,2.17,0,0,0,.06-.59V49.4a2.2,2.2,0,0,0-.06-.6.41.41,0,0,0-.24-.26,1.48,1.48,0,0,0-.53-.08v-.22l1.29,0h3.45ZM41.28,52v.22H39.36V52Zm.32-1.45c0,.42,0,.73,0,1s0,.43,0,.61,0,.38,0,.6,0,.54.05,1h-.25a2.66,2.66,0,0,0-.2-.71,1.34,1.34,0,0,0-.43-.54,1.19,1.19,0,0,0-.71-.2V52a1,1,0,0,0,.7-.24,1.7,1.7,0,0,0,.41-.58,2.85,2.85,0,0,0,.2-.63Z"></path></svg>